<?xml version="1.0" encoding="utf-8"?>
<!-- Generator: Adobe Illustrator 26.2.1, SVG Export Plug-In . SVG Version: 6.00 Build 0)  -->
<svg version="1.1" id="Providers" xmlns="http://www.w3.org/2000/svg" xmlns:xlink="http://www.w3.org/1999/xlink" x="0px" y="0px"
	 viewBox="0 0 1200 60" style="enable-background:new 0 0 1200 60;" xml:space="preserve">
<style type="text/css">
	.st0{display:none;}
	.st1{display:inline;fill:#84D5F7;}
	.st2{fill:none;stroke:#84D5F7;stroke-miterlimit:10;}
	.st3{fill:#84D5F7;}
	.st4{fill:#84D5F7;stroke:#84D5F7;stroke-miterlimit:10;}
	.st5{opacity:0.6;}
	.st6{opacity:0.45;}
	.st7{opacity:0.8;}
	.st8{fill:none;}
</style>
<g id="g4158" class="st0">
	<polygon id="polygon9" class="st1" points="59.6,44.9 51.9,44.9 56.7,15.1 64.4,15.1 	"/>
	<path id="path11" class="st1" d="M87.5,15.9c-2.2-0.8-4.5-1.3-6.9-1.3c-7.6,0-13,4.1-13,9.9c-0.1,4.3,3.8,6.7,6.8,8.1
		c2.9,1.4,4,2.4,4,3.7c0,2-2.4,2.9-4.6,2.9c-2.5,0.1-5-0.5-7.2-1.6l-1-0.5l-1.1,6.7c2.7,1.1,5.6,1.6,8.6,1.6c8.1,0,13.4-4,13.4-10.2
		c0-3.4-2-6-6.4-8.1c-2.7-1.4-4.3-2.3-4.3-3.7c0-1.4,1.4-2.6,4.4-2.6c2,0,3.9,0.4,5.7,1.2l0.7,0.3L87.5,15.9L87.5,15.9z"/>
	<path id="path13" class="st1" d="M97.7,34.4c0.6-1.7,3.1-8.3,3.1-8.3s0.6-1.7,1-2.8l0.5,2.6c0,0,1.5,7.1,1.8,8.6L97.7,34.4z
		 M107.3,15.1h-6c-1.8-0.2-3.4,0.8-4,2.5L85.9,44.9H94c0,0,1.3-3.7,1.6-4.5h9.9l0.9,4.5h7.1L107.3,15.1L107.3,15.1z"/>
	<path id="path15" class="st1" d="M45.4,15.1l-7.5,20.3l-0.8-4.1c-1.4-4.8-5.8-9.9-10.7-12.5l6.9,26.1h8.1l12.2-29.8
		C53.6,15.1,45.4,15.1,45.4,15.1z"/>
	<path id="path17" class="st1" d="M30.9,15.1H18.5l-0.1,0.6c9.7,2.5,16.1,8.4,18.7,15.6l-2.7-13.7C33.9,15.7,32.5,15.2,30.9,15.1z"
		/>
</g>
<g>
	<path class="st2" d="M719,34.8c-1.6,6.5-8.1,10.4-14.6,8.8s-10.4-8.1-8.8-14.5s8.1-10.4,14.6-8.8S720.6,28.4,719,34.8L719,34.8z"/>
	<path class="st3" d="M712.6,30.2c0.2-1.6-1-2.5-2.7-3l0.5-2.2l-1.3-0.3l-0.5,2.1c-0.3-0.1-0.7-0.2-1.1-0.2l0.5-2.1l-1.3-0.3
		l-0.5,2.2l-0.9-0.2l0,0l-1.7-0.5l-0.4,1.3c0,0,1,0.2,0.9,0.2c0.4,0.1,0.6,0.4,0.6,0.8l-0.6,2.5l0.2,0.1h-0.1l-0.9,3.4
		c-0.1,0.2-0.3,0.4-0.6,0.3l0,0l-0.9-0.2l-0.6,1.5l1.7,0.4l0.9,0.2l-0.5,2.2l1.3,0.3l0.5-2.2l1,0.2l-0.5,2.1l1.3,0.3l0.5-2.2
		c2.3,0.4,3.9,0.2,4.7-1.8c0.6-1.2,0.2-2.5-1-3.1c-0.1-0.1-0.2-0.1-0.2-0.1C711.9,32,712.5,31.2,712.6,30.2L712.6,30.2z M709.6,34.5
		c-0.4,1.6-3.2,0.8-4.1,0.5l0.7-2.9C707.1,32.3,710,32.7,709.6,34.5L709.6,34.5z M710,30.2c-0.4,1.5-2.7,0.7-3.4,0.5l0.6-2.7
		C708,28.3,710.4,28.7,710,30.2L710,30.2z"/>
	<path class="st3" d="M730.6,27.2c0.9,0,1.7,0.2,2.5,0.5c0.7,0.3,1.3,0.8,1.8,1.4s0.9,1.3,1,2.1c0.2,0.9,0.3,1.6,0.3,2.5
		c0,1.3-0.2,2.7-0.8,4c-0.5,1.3-1.3,2.3-2.1,3.3c-0.9,0.9-2,1.6-3.2,2.2c-1.3,0.5-2.6,0.9-4,0.9h-0.9c-0.5,0-1-0.1-1.6-0.2
		c-0.6-0.1-1.3-0.2-1.9-0.4c-0.6-0.2-1.3-0.4-1.9-0.7l5.2-22.1l4.7-0.7l-1.9,7.8c0.4-0.2,0.8-0.3,1.3-0.4
		C729.7,27.3,730.1,27.2,730.6,27.2L730.6,27.2z M726.6,40.2c0.7,0,1.4-0.2,2-0.5s1.2-0.8,1.6-1.4c0.5-0.6,0.9-1.3,1.1-2
		c0.2-0.7,0.4-1.5,0.4-2.3c0.1-0.8-0.2-1.6-0.5-2.3c-0.4-0.6-1.1-0.9-1.8-0.9c-0.4,0-0.8,0.1-1.1,0.2c-0.5,0.1-0.9,0.3-1.3,0.6
		l-2,8.4l0.3,0.1h0.3c0.2,0,0.2,0,0.4,0L726.6,40.2z"/>
	<path class="st3" d="M741.2,43.5h-4.5l3.8-16h4.5L741.2,43.5z M743.3,25.5c-0.6,0-1.2-0.2-1.6-0.5c-0.5-0.4-0.8-1-0.8-1.7
		c0-0.4,0.1-0.9,0.2-1.2c0.2-0.4,0.4-0.7,0.7-0.9c0.3-0.3,0.6-0.5,1-0.6s0.8-0.2,1.2-0.2c0.6,0,1.2,0.2,1.6,0.5
		c0.5,0.4,0.8,1,0.8,1.7c0,0.4-0.1,0.9-0.2,1.2c-0.2,0.4-0.4,0.7-0.7,0.9c-0.3,0.3-0.6,0.5-1,0.6S743.7,25.6,743.3,25.5z"/>
	<path class="st3" d="M748.9,23.5l4.7-0.7l-1.2,4.7h5l-0.9,3.8h-5l-1.3,5.6c-0.2,0.4-0.2,0.9-0.2,1.3c0,0.4,0,0.7,0.2,1
		s0.4,0.5,0.6,0.7c0.4,0.2,0.9,0.3,1.3,0.2c0.5,0,0.9-0.1,1.4-0.2s0.9-0.2,1.4-0.4l0.3,3.4c-0.6,0.2-1.3,0.4-2,0.5
		c-0.9,0.2-1.6,0.2-2.5,0.2c-1.1,0.1-2.2-0.2-3.2-0.6c-0.7-0.4-1.3-0.9-1.6-1.6c-0.3-0.8-0.5-1.6-0.4-2.5c0.1-1,0.2-2,0.4-3
		L748.9,23.5L748.9,23.5z"/>
	<path class="st3" d="M757.3,37.2c0-1.3,0.2-2.7,0.7-3.9c0.4-1.2,1.1-2.3,2-3.2c0.9-0.9,1.9-1.6,3-2.2c1.3-0.5,2.6-0.8,4-0.8
		c0.9,0,1.6,0.1,2.4,0.2c0.7,0.2,1.3,0.4,2,0.7l-1.6,3.5c-0.4-0.2-0.9-0.3-1.3-0.5c-0.5-0.2-1.1-0.2-1.6-0.2
		c-1.3-0.1-2.7,0.5-3.6,1.6c-0.9,1.2-1.4,2.7-1.3,4.2c-0.1,0.9,0.2,1.8,0.7,2.5c0.6,0.7,1.6,1.1,2.5,0.9c0.5,0,1.1-0.1,1.6-0.2
		c0.5-0.1,1-0.2,1.5-0.5l0.3,3.6c-0.6,0.2-1.3,0.5-1.9,0.6c-0.8,0.2-1.6,0.3-2.5,0.2c-1.1,0-2.2-0.2-3.2-0.5
		c-0.8-0.3-1.6-0.9-2.2-1.5c-0.5-0.6-1-1.4-1.3-2.2C757.5,38.9,757.3,38,757.3,37.2L757.3,37.2z"/>
	<path class="st3" d="M777.4,44c-0.9,0-1.9-0.2-2.8-0.5c-0.8-0.3-1.4-0.8-2-1.4c-0.5-0.6-0.9-1.3-1.2-2.1c-0.3-0.9-0.4-1.8-0.4-2.7
		c0-1.3,0.2-2.5,0.6-3.7c0.4-1.2,0.9-2.3,1.7-3.3s1.7-1.8,2.8-2.4c1.2-0.6,2.5-0.9,3.8-0.9c0.9,0,1.9,0.2,2.8,0.5
		c0.8,0.3,1.4,0.8,2,1.3c0.5,0.6,0.9,1.3,1.2,2.1c0.3,0.9,0.4,1.8,0.4,2.7c0,1.3-0.2,2.5-0.5,3.7c-0.4,1.2-0.9,2.3-1.6,3.3
		c-0.8,0.9-1.7,1.8-2.8,2.3C780.1,43.7,778.8,44,777.4,44z M779.6,30.9c-0.6,0-1.3,0.2-1.8,0.5c-0.5,0.4-0.9,0.9-1.3,1.5
		c-0.4,0.6-0.6,1.3-0.8,2c-0.2,0.6-0.2,1.3-0.2,2c-0.1,0.8,0.2,1.6,0.5,2.3c0.4,0.6,1.1,0.9,1.8,0.9c0.6,0,1.3-0.2,1.8-0.5
		c0.5-0.4,0.9-0.9,1.3-1.5c0.3-0.6,0.6-1.3,0.8-2c0.2-0.6,0.2-1.3,0.2-2c0.1-0.8-0.2-1.6-0.5-2.3C781,31.2,780.3,30.9,779.6,30.9z"
		/>
	<path class="st3" d="M791.3,43.5h-4.5l3.8-16h4.5L791.3,43.5z M793.5,25.5c-0.6,0-1.2-0.2-1.6-0.5c-0.5-0.4-0.8-1-0.8-1.7
		c0-0.4,0.1-0.9,0.2-1.2c0.2-0.4,0.4-0.7,0.7-0.9c0.3-0.3,0.6-0.5,1-0.6s0.8-0.2,1.2-0.2c0.6,0,1.2,0.2,1.6,0.5
		c0.5,0.4,0.8,1.1,0.8,1.7c0,0.4-0.1,0.9-0.2,1.2c-0.2,0.4-0.4,0.7-0.7,0.9c-0.3,0.3-0.6,0.5-1,0.6
		C794.3,25.5,793.9,25.6,793.5,25.5z"/>
	<path class="st3" d="M798.4,28.3l1.2-0.4c0.5-0.2,0.9-0.2,1.4-0.4c0.5-0.2,1.2-0.2,1.7-0.3c0.7-0.1,1.5-0.1,2.2-0.1
		c2.3,0,4,0.7,4.9,2.1s1.1,3.3,0.5,5.6l-2.1,8.7h-4.5l2-8.4c0.2-0.5,0.2-1,0.3-1.6c0.1-0.5,0.1-0.9,0-1.3c-0.1-0.4-0.3-0.7-0.5-0.9
		c-0.4-0.2-0.9-0.4-1.3-0.3c-0.6,0-1.2,0.1-1.8,0.2l-3,12.4h-4.5L798.4,28.3z"/>
</g>
<g>
	<path class="st3" d="M961.6,31c0,8.2-6.4,14.6-14.5,14.6c-7.5,0-14.5-5.8-14.5-14.6c-0.1-7.9,6.6-14.5,14.5-14.5
		C955,16.3,961.6,22.9,961.6,31z M947.2,38.9c1.6,0,3.1,0,4.7,0c2,0,1.9,0,2.4-2c0.2-0.9-0.1-1.3-1-1.3c-1.3,0-2.6,0-3.9,0
		c-3,0-2.9,0-2.2-2.9c0.2-0.9,0.5-1.4,1.4-1.6s1.2-0.8,1.4-1.6s0-1.1-0.8-0.7c-0.9,0.4-1,0-0.8-0.8c0.4-1.3,0.7-2.7,1.1-4.1
		c0.2-0.8,0-1.2-0.9-1.2s-1.9,0-2.7,0c-0.9-0.1-1.3,0.3-1.4,1.2c-0.5,2.1-1.1,4.2-1.6,6.3c-0.2,0.7-0.5,1.2-1.2,1.3
		c-0.9,0.2-1.2,0.9-1.3,1.6c-0.2,0.6-0.2,1,0.6,0.7s0.9,0.2,0.7,0.8c-0.2,0.9-0.5,2-0.8,2.9c-0.2,0.9,0,1.2,0.9,1.2
		C943.6,38.9,945.4,38.9,947.2,38.9z"/>
	<path class="st3" d="M990.6,35.7c-1.5,0-3,0-4.5,0c-1.1,0-1.2,0.2-0.7,1.3c1.4,3,5.6,3.5,7.8,1.1c0.2-0.2,0.5-0.7,0.9-0.6
		c0.5,0.1,1.3-0.1,1.6,0.5c0.2,0.5-0.2,0.9-0.5,1.3c-2.5,3-6.8,3.4-9.9,1.1c-2.8-2.1-3.4-6.9-1.3-10c2-2.9,6.3-3.8,9.5-1.8
		c2.3,1.4,3,3.7,3,6.2c0,0.8-0.5,0.9-1.2,0.9C993.7,35.7,992.2,35.7,990.6,35.7L990.6,35.7z M989.6,33.6c1.2,0,2.3,0,3.4,0
		c0.9,0.1,1.2-0.3,0.9-1.2c-0.6-1.6-2.3-2.7-4.3-2.7s-3.8,1.3-4.3,2.9c-0.2,0.8,0,1,0.7,0.9C987.2,33.5,988.3,33.5,989.6,33.6z"/>
	<path class="st3" d="M1017.8,41.7c-4.2,0-7.1-3-7-7.2c0-4.1,3-7.1,7.3-7c4.1,0,7,3,7,7.3C1025,38.9,1022.1,41.8,1017.8,41.7z
		 M1017.8,39.6c2.9,0,5-2.1,5.1-5c0-2.8-2.1-4.8-5-4.8c-2.8,0-4.9,2-5,4.8C1012.8,37.3,1015,39.6,1017.8,39.6z"/>
	<path class="st3" d="M1032.8,34.6c0-1.8,0-3.7,0-5.5c0-0.5-0.1-1.2,0.7-1.2c0.6,0,1.3-0.2,1.6,0.7c0.2,0.9,0.6,0.2,0.9,0
		c1.9-1.3,3.8-1.5,5.9-0.5c2.1,1,2.7,2.9,2.9,5c0.2,2.4,0,4.9,0.1,7.3c0,0.9-0.4,1.1-1.2,1.1s-1.1-0.3-1.1-1.1c0-2.3,0-4.5,0-6.8
		c0-2.6-1.1-3.9-3.2-3.9c-2.4,0-4.1,1.6-4.1,3.9c-0.1,2.1,0,4.3,0,6.4c0,0.9-0.2,1.4-1.2,1.4c-1.1,0-1.1-0.6-1.1-1.4
		C1032.8,38.2,1032.8,36.4,1032.8,34.6z"/>
	<path class="st3" d="M1005.2,41.7c-3.4,0-5.9-1.7-7-4.7c-0.9-3,0-6.3,2.2-8c2.7-2,6.2-2,8.8-0.3c0.5,0.3,0.9,0.6,0.5,1.3
		c-0.4,0.5-0.8,1.1-1.6,0.6c-0.9-0.6-2-0.9-3-0.9c-2,0.1-3.7,0.9-4.5,2.8c-0.9,2-0.5,3.8,0.9,5.5c1.3,1.4,3.5,2,5.4,1.3
		c0.4-0.2,0.7-0.3,1-0.5c0.9-0.6,1.5,0,1.9,0.6c0.5,0.9-0.3,1-0.8,1.3C1007.7,41.4,1006.4,41.8,1005.2,41.7z"/>
	<path class="st3" d="M977,35.4c0-1.5,0-3,0-4.5c0-0.9-0.2-1.3-1.2-1.3c-0.7,0.1-1.2-0.1-1.2-0.9c0-0.9,0.5-1.2,1.3-1.1
		c0.9,0.1,1.2-0.5,1.2-1.3c0-0.9,0-1.7,0-2.7c0-0.9,0.4-1.2,1.2-1.2s1.1,0.3,1.1,1.1c0,0.9,0.1,1.8,0,2.7c-0.1,1,0.4,1.4,1.3,1.3
		c0.5,0,1.2-0.2,1.4,0.6c0.3,0.9-0.1,1.4-1.1,1.5c-1.6,0.1-1.6,0.1-1.6,1.8c0,2.8,0,5.6,0,8.4c0,0.8,0.2,1.6-1.2,1.6
		c-1.3,0-1.1-0.9-1.1-1.6C977,38.4,977,36.9,977,35.4z"/>
	<path class="st3" d="M965.4,30.8c0-3,0-6.1,0-9.1c0-0.8,0.1-1.3,1.1-1.3s1.1,0.6,1.1,1.4c0,6.2,0,12.3,0,18.5
		c0,0.8-0.1,1.3-1.1,1.3s-1.1-0.6-1.1-1.3C965.4,37,965.4,33.9,965.4,30.8z"/>
	<path class="st3" d="M973.1,34.6c0,1.9,0,3.8,0,5.6c0,0.8-0.2,1.2-1.1,1.3c-0.9,0-1.3-0.4-1.2-1.3c0-3.8,0-7.5,0-11.3
		c0-0.8,0.2-1.2,1.1-1.3c0.9,0,1.3,0.4,1.2,1.3C973,30.9,973.1,32.8,973.1,34.6z"/>
	<path class="st3" d="M1029.6,34.6c0,1.9,0,3.8,0,5.6c0,0.8-0.2,1.3-1.1,1.3c-0.9,0-1.1-0.5-1.1-1.3c0-3.8,0-7.5,0-11.3
		c0-0.8,0.2-1.3,1.1-1.3c0.9,0,1.1,0.5,1.1,1.3C1029.6,30.9,1029.6,32.8,1029.6,34.6z"/>
	<path class="st3" d="M1030.2,22.8c0,0.9-0.6,1.5-1.6,1.5c-0.9,0-1.6-0.5-1.6-1.4s0.5-1.6,1.5-1.6
		C1029.4,21.2,1030.1,21.9,1030.2,22.8z"/>
	<path class="st3" d="M971.9,21.3c0.8,0,1.6,0.7,1.6,1.5c0,0.9-0.7,1.5-1.6,1.5s-1.6-0.6-1.6-1.5C970.4,22,971.1,21.3,971.9,21.3z"
		/>
</g>
<g>
	<path class="st4" d="M853.2,34.1c0,0.2-0.2,0.3-0.3,0.3h-5.7c0.2,1.4,1.2,2.7,2.7,2.7c1,0,1.7-0.4,2.3-1.2c0.1-0.1,0.2-0.2,0.4-0.1
		c0.1,0,0.2,0.1,0.2,0.2c0,0.1,0,0.2,0,0.2c-0.5,1-1.7,1.5-2.8,1.5c-1.9,0-3.2-1.7-3.2-3.5s1.3-3.5,3.2-3.5
		C851.9,30.6,853.2,32.3,853.2,34.1 M852.6,33.8c-0.2-1.4-1.2-2.7-2.7-2.7s-2.5,1.3-2.7,2.7H852.6z M860,30.7c0.2,0,0.3,0.2,0.3,0.3
		s-0.2,0.3-0.3,0.3h-1.5v5.9c0,0.2-0.2,0.3-0.3,0.3s-0.3-0.2-0.3-0.3v-5.9h-1.4c-0.2,0-0.3-0.2-0.3-0.3c0-0.2,0.2-0.3,0.3-0.3h1.4
		v-2.2c0-0.2,0.1-0.2,0.2-0.3c0.2,0,0.3,0.1,0.3,0.3v2.2L860,30.7L860,30.7z M869.2,33.6v3.6c0,0.2-0.2,0.3-0.3,0.3
		s-0.3-0.2-0.3-0.3v-3.6c0-1.2-0.7-2.4-2-2.4c-1.7,0-2.5,1.5-2.3,3c0,0.1,0,0.2,0,0.2v2.7c0,0.2-0.1,0.2-0.2,0.3
		c-0.2,0-0.3-0.1-0.3-0.3V25.4c0-0.2,0.2-0.3,0.3-0.3s0.3,0.2,0.3,0.3V32c0.5-0.9,1.3-1.4,2.3-1.4C868.3,30.6,869.2,32,869.2,33.6
		 M879.3,34.1c0,0.2-0.2,0.3-0.3,0.3h-5.6c0.2,1.4,1.2,2.7,2.7,2.7c1,0,1.7-0.4,2.3-1.2c0.1-0.1,0.2-0.2,0.4-0.1
		c0.1,0,0.2,0.1,0.2,0.2c0,0.1,0,0.2,0,0.2c-0.5,1-1.7,1.5-2.8,1.5c-1.9,0-3.2-1.7-3.2-3.5s1.3-3.5,3.2-3.5
		C877.9,30.6,879.2,32.3,879.3,34.1 M878.7,33.8c-0.2-1.4-1.2-2.7-2.7-2.7s-2.5,1.3-2.7,2.7H878.7z M886.2,31c0,0.2-0.1,0.3-0.2,0.3
		c-1.6,0.2-2.4,1.6-2.4,3.1v2.7c0,0.2-0.1,0.2-0.2,0.3c-0.2,0-0.3-0.1-0.3-0.3V31c0-0.2,0.1-0.2,0.2-0.3c0.2,0,0.3,0.1,0.3,0.3v1.3
		c0.5-0.8,1.4-1.6,2.3-1.6C886,30.7,886.2,30.8,886.2,31 M895.4,34.1c0,0.2-0.2,0.3-0.3,0.3h-5.6c0.2,1.4,1.2,2.7,2.7,2.7
		c1,0,1.7-0.4,2.3-1.2c0.1-0.1,0.2-0.2,0.4-0.1c0.1,0,0.2,0.1,0.2,0.2c0,0.1,0,0.2,0,0.2c-0.5,1-1.7,1.5-2.8,1.5
		c-1.9,0-3.2-1.7-3.2-3.5s1.3-3.5,3.2-3.5C894,30.6,895.4,32.3,895.4,34.1 M894.8,33.8c-0.2-1.4-1.2-2.7-2.7-2.7s-2.5,1.3-2.7,2.7
		H894.8z M904.5,31.1v6.1c0,0.2-0.2,0.3-0.3,0.3s-0.3-0.2-0.3-0.3V36c-0.5,0.9-1.3,1.6-2.3,1.6c-1.6,0-2.6-1.4-2.6-3V31
		c0-0.2,0.2-0.3,0.3-0.3s0.3,0.2,0.3,0.3v3.6c0,1.2,0.7,2.4,2,2.4c1.9,0,2.3-1.8,2.3-3.8V31c0-0.2,0.2-0.3,0.4-0.2
		C904.4,30.8,904.5,30.9,904.5,31.1 M918.6,33.6v3.6c0,0.2-0.2,0.3-0.3,0.3c-0.2,0-0.3-0.2-0.3-0.3v-3.6c0-1.2-0.7-2.4-2-2.4
		c-1.7,0-2.3,1.8-2.3,3.2v2.7c0,0.2-0.2,0.3-0.3,0.3s-0.3-0.2-0.3-0.3v-3.6c0-1.2-0.7-2.4-2-2.4c-1.7,0-2.4,1.3-2.3,3.1
		c0,0.1,0,0.2,0,0.2v2.7c0,0.2-0.1,0.2-0.2,0.3c-0.2,0-0.3-0.1-0.3-0.3v-6.2c0-0.2,0.1-0.2,0.2-0.3c0.2,0,0.3,0.1,0.3,0.3v1
		c0.5-0.9,1.3-1.4,2.3-1.4c1.2,0,2,0.7,2.4,1.8c0.5-1,1.3-1.8,2.5-1.8C917.7,30.6,918.6,32,918.6,33.6"/>
	<g class="st5">
		<g>
			<path class="st3" d="M832.4,29.1l-9.4,4.3l9.4,5.6l9.4-5.6L832.4,29.1z"/>
		</g>
	</g>
	<g class="st6">
		<g>
			<path class="st3" d="M823,33.3l9.4,5.6V17.7L823,33.3z"/>
		</g>
	</g>
	<g class="st7">
		<g>
			<path class="st3" d="M832.4,17.7v21.1l9.4-5.6L832.4,17.7z"/>
		</g>
	</g>
	<g class="st6">
		<g>
			<path class="st3" d="M823,35.1l9.4,13.2v-7.7L823,35.1z"/>
		</g>
	</g>
	<g class="st7">
		<g>
			<path class="st3" d="M832.4,40.6v7.7l9.4-13.2L832.4,40.6z"/>
		</g>
	</g>
</g>
<g>
	<g>
		<path class="st3" d="M1091.6,31c-0.2-0.1-0.7-0.2-1.2-0.2c-1.4,0-3,1.2-3,2.6v6.8h-3.3v-12h3.1v1.3c0.7-0.9,2-1.5,3.5-1.5
			c0.5,0,0.8,0.1,1.1,0.1L1091.6,31z"/>
		<path class="st3" d="M1095.3,21.8c1.2,0,2.1,0.9,2.1,2.1s-0.9,2-2.1,2s-2.1-0.9-2.1-2.1C1093.2,22.6,1094.1,21.8,1095.3,21.8z
			 M1096.9,40.3h-3.3V28.2h3.3V40.3z"/>
		<path class="st3" d="M1106.5,27.9c-1.4,0-2.6,0.5-3.5,1.3v-1h-3.1v18.1h3.3v-6.9c1,0.8,2,1.1,3.3,1.1c1.8,0,3.5-0.8,4.6-2
			c0.9-1.1,1.6-2.6,1.6-4.2C1112.5,30.7,1109.8,27.9,1106.5,27.9z M1106.2,37.6c-2,0-3.4-1.4-3.4-3.4s1.3-3.4,3.4-3.4
			c1.7,0,3.1,1.5,3.1,3.4S1107.9,37.6,1106.2,37.6z"/>
		<path class="st3" d="M1132.3,40.3h-3.3V22.5h3.3V40.3z"/>
		<path class="st3" d="M1145.6,38.3c-1.2,1.4-3.1,2.2-5,2.2c-3.6,0-6.3-2.5-6.3-6.3c0-3.4,2.3-6.3,5.9-6.3c3.4,0,5.7,2.8,5.7,6.2
			c0,0.3,0,0.6-0.1,0.9h-8.4c0.2,1.7,1.6,2.9,3.3,2.9c1.4,0,2.5-0.8,3-1.4L1145.6,38.3z M1142.5,32.6c-0.1-1.1-1.1-2.1-2.4-2.1
			s-2.4,1-2.6,2.1H1142.5z"/>
		<path class="st3" d="M1121.2,27.9c-1.4,0-2.6,0.5-3.5,1.3v-1h-3.1v18.1h3.3v-6.9c1,0.8,2,1.1,3.3,1.1c1.8,0,3.5-0.8,4.6-2
			c0.9-1.1,1.6-2.6,1.6-4.2C1127.1,30.7,1124.5,27.9,1121.2,27.9z M1120.8,37.6c-2,0-3.4-1.4-3.4-3.4s1.3-3.4,3.4-3.4
			c1.7,0,3.1,1.5,3.1,3.4S1122.5,37.6,1120.8,37.6z"/>
	</g>
	<g>
		<path class="st3" d="M1077.5,35.8c-0.7-0.4-1.6-0.5-2.3-0.5c-0.7,0-1.7-0.5-1.7-1.7c0-0.9,0.8-1.7,1.7-1.7c0.8,0,1.6-0.2,2.3-0.5
			c1.3-0.8,2.2-2.2,2.2-3.8c0-1.6-0.9-3-2.2-3.8c-1.3-0.8-3-0.8-4.4,0c-1.3,0.8-2.2,2.2-2.2,3.8c0,0.9,0.3,1.6,0.7,2.3
			c0.3,0.6,0.5,1.7-0.6,2.3c-0.8,0.5-1.9,0.2-2.3-0.6c-0.5-0.7-0.9-1.3-1.7-1.7c-1.3-0.8-3-0.8-4.4,0c-1.3,0.8-2.2,2.2-2.2,3.8
			s0.9,3,2.2,3.8c1.3,0.8,3,0.8,4.4,0c0.7-0.4,1.3-1.1,1.6-1.7c0.4-0.5,1.3-1.3,2.3-0.6c0.8,0.5,1.1,1.5,0.6,2.3
			c-0.4,0.7-0.7,1.5-0.7,2.3c0,1.6,0.9,3,2.2,3.8c1.3,0.8,3,0.8,4.4,0c1.3-0.8,2.2-2.2,2.2-3.8C1079.7,38.1,1078.9,36.6,1077.5,35.8
			z"/>
	</g>
</g>
<g id="g6321" transform="translate(-9.4000001,96.810998)">
	<g id="g6323" transform="matrix(1.8215159,0,0,1.8215159,-8.5437653,-109.83667)">
		<path id="path6325" class="st8" d="M127.1,31.1c0,2.7-2.2,4.8-4.8,4.8H96.1v-19c0-2.7,2.2-4.8,4.8-4.8h26.2V31.1L127.1,31.1z"/>
		<g id="g6327">
			<path id="path6338" class="st3" d="M118.5,26.2h2c0.1,0,0.2,0,0.2,0c0.4-0.1,0.7-0.4,0.7-0.9s-0.3-0.8-0.7-0.9
				c-0.1,0-0.2,0-0.2,0h-2V26.2L118.5,26.2z"/>
			<path id="path6349" class="st3" d="M120.3,13.7c-1.9,0-3.5,1.5-3.5,3.5v3.6h4.9c0.1,0,0.2,0,0.3,0c1.1,0.1,1.9,0.6,1.9,1.6
				c0,0.8-0.5,1.4-1.6,1.6l0,0c1.1,0.1,2,0.7,2,1.7s-0.9,1.7-2.2,1.7h-5.3v7h5.1c1.9,0,3.5-1.5,3.5-3.5V13.7H120.3L120.3,13.7z"/>
			<path id="path6360" class="st3" d="M121.2,22.6c0-0.5-0.3-0.8-0.7-0.8c0,0-0.1,0-0.2,0h-1.8v1.7h1.8c0.1,0,0.2,0,0.2,0
				C120.9,23.3,121.2,23,121.2,22.6z"/>
		</g>
		<path id="path6371" class="st3" d="M101.2,13.7c-1.9,0-3.5,1.5-3.5,3.5v8.5c1,0.5,2,0.8,3,0.8c1.2,0,1.8-0.7,1.8-1.7v-4h3v4
			c0,1.6-1,2.8-4.2,2.8c-2,0-3.5-0.4-3.5-0.4v7.3h5.1c1.9,0,3.5-1.5,3.5-3.5V13.7C106.3,13.7,101.2,13.7,101.2,13.7z"/>
		<path id="path6384" class="st3" d="M110.8,13.7c-1.9,0-3.5,1.5-3.5,3.5v4.5c0.9-0.7,2.4-1.2,4.8-1.1c1.3,0.1,2.7,0.4,2.7,0.4v1.5
			c-0.7-0.4-1.5-0.7-2.6-0.8c-1.9-0.1-3,0.8-3,2.4s1.1,2.5,3,2.4c1.1-0.1,1.9-0.4,2.6-0.8v1.5c0,0-1.4,0.4-2.7,0.4
			c-2.4,0.1-4-0.4-4.8-1.1v8h5.1c1.9,0,3.5-1.5,3.5-3.5V13.7C115.8,13.7,110.8,13.7,110.8,13.7z"/>
	</g>
	<g id="g6386">
	</g>
</g>
<g id="layer1" transform="translate(-55.5,-1002.3452)">
	<path class="st3" d="M330.3,1042.8h-16l-1-1.2v1.2h-3.2v-2c0,0-0.4,0.3-1.4,0.3h-1.1v1.7h-4.8l-0.9-1.1l-0.9,1.1h-7.9v-7.5h8
		l0.9,1.1l0.9-1.1h28.8l0.1-0.1v-25.9h-48v20.3l1.8-4.2h3.1l1,2.3v-2.3h3.9l0.6,1.7l0.6-1.7h17.4v0.9c0,0,0.9-0.9,2.4-0.9h5.6l1,2.3
		v-2.3h3.2l0.9,1.3v-1.3h3.3v7.5h-3.3l-0.9-1.3v1.3h-4.8l-0.5-1.2h-1.3l-0.5,1.2h-3.2c-1.3,0-2.1-0.8-2.1-0.8v0.8h-4.9l-1-1.2v1.2
		h-17.9l-0.5-1.2h-1.3l-0.5,1.2h-2.1v24.4h48v-14.9C331.6,1042.5,330.9,1042.8,330.3,1042.8z"/>
	<path id="path3046" class="st3" d="M286.2,1026.3l-2.4,5.6h1.6l0.4-1.1h2.6l0.4,1.1h1.6l-2.4-5.6H286.2L286.2,1026.3z
		 M287.1,1027.6l0.8,2h-1.6L287.1,1027.6z"/>
	<path id="path3048" class="st3" d="M290.7,1032v-5.6h2.2l1.3,3.6l1.3-3.6h2.2v5.6h-1.4v-4.2l-1.5,4.2h-1.2l-1.5-4.2v4.2H290.7z"/>
	<path id="path3050" class="st3" d="M298.7,1032v-5.6h4.6v1.3h-3.2v1h3.1v1.2h-3.1v1h3.2v1.2L298.7,1032L298.7,1032z"/>
	<path id="path3052" class="st3" d="M304.1,1026.3v5.6h1.4v-2h0.6l1.7,2h1.7l-1.9-2.1c0.8-0.1,1.5-0.7,1.5-1.7c0-1.2-0.9-1.8-2-1.8
		H304.1L304.1,1026.3z M305.5,1027.6h1.6c0.4,0,0.7,0.3,0.7,0.6c0,0.4-0.4,0.6-0.6,0.6h-1.6v-1.2H305.5z"/>
	<path id="path3054" class="st3" d="M311.2,1032h-1.4v-5.6h1.4V1032z"/>
	<path id="path3056" class="st3" d="M314.6,1032h-0.3c-1.5,0-2.4-1.2-2.4-2.8c0-1.7,0.9-2.8,2.8-2.8h1.6v1.3h-1.6
		c-0.8,0-1.3,0.6-1.3,1.5c0,1.1,0.6,1.6,1.5,1.6h0.4L314.6,1032z"/>
	<path id="path3058" class="st3" d="M317.7,1026.3l-2.4,5.6h1.6l0.4-1.1h2.6l0.4,1.1h1.6l-2.4-5.6H317.7L317.7,1026.3z
		 M318.6,1027.6l0.8,2h-1.6L318.6,1027.6L318.6,1027.6z"/>
	<path id="path3060" class="st3" d="M322.1,1032v-5.6h1.8l2.3,3.5v-3.5h1.4v5.6h-1.7l-2.3-3.6v3.6H322.1z"/>
	<path id="path3062" class="st3" d="M294.1,1041.8v-5.6h4.6v1.3h-3.2v1h3.1v1.2h-3.1v1h3.2v1.2L294.1,1041.8L294.1,1041.8z"/>
	<path id="path3064" class="st3" d="M316.6,1041.8v-5.6h4.6v1.3H318v1h3.1v1.2H318v1h3.2v1.2L316.6,1041.8L316.6,1041.8z"/>
	<path id="path3066" class="st3" d="M298.9,1041.8l2.2-2.8l-2.3-2.9h1.8l1.4,1.8l1.4-1.8h1.7l-2.3,2.8l2.2,2.8h-1.8l-1.3-1.7
		l-1.3,1.7L298.9,1041.8L298.9,1041.8z"/>
	<path id="path3068" class="st3" d="M305.2,1036.2v5.6h1.4v-1.8h1.5c1.3,0,2.2-0.7,2.2-2c0-1.1-0.7-1.9-2-1.9h-3.1V1036.2z
		 M306.6,1037.5h1.6c0.4,0,0.7,0.2,0.7,0.6s-0.3,0.6-0.7,0.6h-1.6V1037.5L306.6,1037.5z"/>
	<path id="path3072" class="st3" d="M310.9,1036.2v5.6h1.4v-2h0.6l1.7,2h1.7l-1.9-2.1c0.8-0.1,1.5-0.7,1.5-1.7c0-1.2-0.9-1.8-2-1.8
		H310.9L310.9,1036.2z M312.3,1037.4h1.6c0.4,0,0.7,0.3,0.7,0.6c0,0.4-0.4,0.6-0.6,0.6h-1.6v-1.2H312.3z"/>
	<path id="path3074" class="st3" d="M321.9,1041.8v-1.2h2.8c0.4,0,0.6-0.2,0.6-0.5c0-0.2-0.2-0.5-0.6-0.5h-1.3
		c-1.1,0-1.7-0.7-1.7-1.7c0-0.9,0.6-1.8,2.2-1.8h2.7l-0.6,1.3h-2.4c-0.5,0-0.6,0.2-0.6,0.5c0,0.2,0.2,0.5,0.5,0.5h1.3
		c1.2,0,1.8,0.7,1.8,1.6c0,1-0.6,1.8-1.8,1.8L321.9,1041.8L321.9,1041.8z"/>
	<path id="path3076" class="st3" d="M327.1,1041.8v-1.2h2.8c0.4,0,0.6-0.2,0.6-0.5c0-0.2-0.2-0.5-0.6-0.5h-1.3
		c-1.1,0-1.7-0.7-1.7-1.7c0-0.9,0.6-1.8,2.2-1.8h2.7l-0.6,1.3h-2.4c-0.5,0-0.6,0.2-0.6,0.5c0,0.2,0.2,0.5,0.5,0.5h1.3
		c1.2,0,1.8,0.7,1.8,1.6c0,1-0.6,1.8-1.8,1.8L327.1,1041.8L327.1,1041.8z"/>
</g>
<g>
	<path class="st3" d="M303.8,45.2c-7.1,0.6-13.3-6.3-13.4-12.9c0-7.3,5.9-13.3,13.2-13.5c7.4,0,13.4,5.9,13.5,13.2
		C317.2,39.4,310.6,45.7,303.8,45.2z M304.3,32c0-1.7,0-3.4,0-5.1c0-0.7,0.3-1,1-1c1.1,0,2,0,3.1,0c0.4,0,1.1,0.2,1.1-0.4
		s-0.7-0.4-1.1-0.4h-9.1c-0.3,0-0.6,0-0.6,0.4s0.3,0.3,0.6,0.4c1.1,0,2.2,0.1,3.3,0c0.9,0,1.2,0.3,1.2,1.2c0,3.1,0,6.1,0,9.2
		c0,1.7,0,1.7-1.6,1.9c-0.2,0-0.5,0-0.5,0.2s0.3,0.3,0.5,0.3c1.1,0,2.2,0,3.3,0c0.3,0,0.8,0.2,0.8-0.3s-0.5-0.3-0.7-0.2
		c-1,0.1-1.3-0.4-1.2-1.3C304.4,35.2,304.3,33.6,304.3,32z M309.2,32.6h-1.7c-0.2,0-0.5-0.1-0.6,0.2s0.2,0.4,0.3,0.5
		c1.2,0.8,2.8,0.7,4-0.1c0.1-0.1,0.2-0.3,0.2-0.4c0-0.1-0.3-0.2-0.5-0.2H309.2z M299.1,33.9c0.6,0,1.2-0.3,1.7-0.7
		c0.2-0.1,0.3-0.2,0.3-0.5c-0.1-0.2-0.2-0.2-0.4-0.2H297c-0.2,0-0.4,0-0.4,0.2s0.1,0.3,0.2,0.4C297.5,33.7,298.3,33.9,299.1,33.9z
		 M300.9,31.5c-0.3-1.5-0.9-3-1.6-4.4c-0.2-0.5-0.5-0.1-0.6,0.2c-0.7,1.2-1.1,2.5-1.6,3.8c-0.1,0.2-0.4,0.4,0,0.6
		c0.4,0.1,0.4-0.2,0.5-0.4c0.3-0.8,0.7-1.6,1-2.5c0.1-0.3,0.1-0.6,0.5-0.7s0.5,0.4,0.6,0.7C299.8,29.8,300.2,30.7,300.9,31.5z
		 M311,31.6l0.3-0.1l-1.8-4.1c-0.1-0.2-0.1-0.4-0.3-0.4c-0.2,0-0.3,0.3-0.4,0.5c-0.4,0.8-0.8,1.6-1.1,2.4c-0.2,0.5-0.7,1.1-0.4,1.8
		c0.7-0.7,0.7-1.5,1.1-2.2c0.3-0.4,0.2-1.3,0.8-1.2c0.5,0,0.5,0.8,0.7,1.3C310.1,30.2,310.5,31,311,31.6L311,31.6z"/>
	<path class="st3" d="M348.5,34.8c-1.4,1.2-2.7,2.5-3.9,3.9c-0.8,1-1.4,2.1-3.1,2.2c-1.1,0.1-2.3,0.2-3.4,0.3
		c-0.4,0-0.7-0.1-1.1-0.3c-1.1-0.5-1.6-1.8-1.1-2.8c0.2-0.4,0.4-0.7,0.8-0.9c0.6-0.3,0.8-1,0.6-1.6c-0.2-0.8,0.1-1.6,0.8-2.1
		c1.3-1.3,2.9-2.1,4.7-2.3c0.7-0.2,1.4,0.1,1.7,0.7c0.3,0.6-0.1,1.1-0.5,1.6c-0.4,0.4-1.2,1.1-1.8,0.6c-1-0.6-1.4,0.1-2,0.5
		c0.1,0.3,0.3,0.2,0.4,0.2c0.5-0.2,1.1,0,1.3,0.5c0,0.1,0,0.1,0.1,0.2c0.2,0.7-0.4,1.1-0.9,1.2c-0.8,0.3-1.6,0.8-2.3,1.3
		c-0.2,0.1-0.4,0.3-0.3,0.6s0.4,0.3,0.6,0.3c1.3,0.3,2.6-0.3,3.2-1.5c1.1-1.8,2.1-3.5,3.2-5.4c0.4-0.6,1-1,1.7-1.1
		c0.5,0,0.9,0.1,0.9,0.6c0,0.6,0.4,0.4,0.6,0.2c0.5-0.4,1.1-0.7,1.8-0.8c1.4-0.2,2.1,0.7,1.6,2c-0.6,1.1-1.3,2.2-2,3.2
		c-0.4,0.6-0.7,1.2-1,1.8c-0.1,0.2-0.3,0.5,0,0.7c0.2,0.1,0.5,0.1,0.7,0c1-0.6,1.9-1.4,2.6-2.4c0.8-1.3,1.6-2.7,2.4-4.1
		c0.4-0.7,0.9-1.2,1.7-0.7c0.8,0.5,0.5,1.1,0.1,1.8c-0.8,1.6-1.6,3.1-2.5,4.7c0.4,0.1,0.6-0.2,0.7-0.4c1.8-1.6,3.3-3.4,4.6-5.5
		c0.2-0.3,0.5-0.6,0.8-0.8c0.5-0.3,1.1-0.3,1.6,0c0.5,0.4,0.2,1-0.1,1.4c-0.9,1.4-1.7,3-2.3,4.6c-0.1,0.4-0.5,1.1-0.1,1.3
		s0.8-0.3,1.1-0.6c0.3-0.3,0.5-0.5,0.7-0.7c0.5-0.5,0.9-1.1,1.5,0.1c0.4,0.6,1.1,1.1,1.8,1.4c0.8,0.2,1.5-0.3,2.3-0.5
		c0.1-0.1,0.2-0.2,0.2-0.3c0-0.2-0.1-0.3-0.3-0.3c-0.6-0.2-1.2-0.4-1.8-0.5c-0.9-0.2-1.8-0.5-2-1.5c-0.3-1,0.1-2,0.9-2.7
		c1.3-1.1,2.8-1.9,4.5-2.3c0.8-0.3,1.6-0.4,2.4-0.2c0.6,0.2,1.1,0.6,1.1,1.3c0,0.9-0.6,1.6-1.5,1.9c-0.5,0.4-1.1,0.3-1.5-0.2
		c0,0,0-0.1-0.1-0.1c-0.3-0.5-0.6-0.4-1-0.3c-0.7,0.2-1.4,0.6-2,1.1c-0.2,0.1-0.4,0.3-0.3,0.6s0.3,0.2,0.5,0.2
		c0.7,0.1,1.5,0.3,2.1,0.5c0.8,0.2,1.5,0.8,1.7,1.6c0.2,0.9-0.2,1.8-1,2.3c-1.5,1.1-3.3,1.7-5.2,1.5c-0.6-0.1-1.2-0.2-1.4-0.7
		c-0.4-1-0.7-0.5-1.2-0.1c-0.6,0.5-1.4,0.8-2.1,0.8c-0.8,0.1-1.6-0.4-1.8-1.2c-0.2-0.8-0.6-0.7-1.1-0.2c-0.4,0.4-0.9,0.8-1.4,1.1
		c-0.8,0.5-1.9,0.4-2.6-0.3c-0.4-0.4-0.7-0.3-1,0c-0.5,0.4-1,0.6-1.6,0.6c-1.2,0.2-2.4-0.6-2.6-1.9c-0.1-0.5,0-0.9,0.2-1.4
		C347.4,36.9,348,35.9,348.5,34.8z"/>
	<path class="st3" d="M414.9,30.7c-0.6,0-1.2,0-1.8,0c-0.8-0.1-1.1-0.7-0.6-1.3c0.4-0.7,1.2-1.2,2.1-1.1c1.3,0.3,2.6-0.4,3.1-1.6
		c0.3-0.5,0.8-0.8,1.4-0.8c1,0,1.3,0.5,0.8,1.3s-0.5,1.1,0.5,1.1c0.6,0,1.1,0.5,1.1,1.1c0,0,0,0,0,0.1c-0.1,0.7-0.7,0.8-1.3,0.9
		h-0.6c-1.2-0.1-2.4,0.6-2.9,1.7c-1,2-2.4,3.9-3.1,6c-0.1,0.3-0.4,0.6,0,0.9c0.4,0.3,0.6,0,0.9-0.2c0.6-0.5,1.3-0.9,1.9-1.4
		c0.2-0.2,0.5-0.4,0.8-0.3c0.3,0.1,0.4,0.5,0.4,0.8s0,0.6-0.2,0.8c-0.9,1.4-2.3,2.3-4,2.5c-0.7,0.1-1.5-0.2-1.9-0.8
		c-0.4-0.5-0.7-0.5-1.2-0.2c-0.4,0.4-1,0.7-1.5,0.9c-0.9,0.3-1.9,0-2.5-0.7c-0.6-0.9-0.7-2-0.2-2.9c0.4-1.1,1-2.1,1.7-3
		c-0.4,0.1-0.8,0.3-1.1,0.7c-1.5,1.4-2.8,2.9-4,4.5c-0.5,0.7-1.1,1.2-2,0.9c-0.4-0.1-0.8,0-1.1,0.2c-0.7,0.3-1.4,0.4-2.1,0.3
		c-1.1-0.1-2-1-2-2.2c0-0.3,0.1-0.5,0.2-0.7c0.5-1.1,1-2.2,1.7-3.2c0.2-0.3,0.4-0.6,0.4-1c0.1-1.4,1.1-2.6,2.5-3
		c0.4,0,0.8,0.2,1.1,0.6c0.3,0.4,0.3,0.9,0,1.3c-0.9,1.5-1.7,3-2.6,4.5c-0.2,0.4-0.9,1-0.4,1.4s1-0.3,1.4-0.6c2-1.4,3.1-3.4,4.2-5.5
		c0.3-0.7,0.9-1.3,1.6-1.5c0.6-0.2,1.3-0.4,1.4,0.6c0.1,0.5,0.4,0.3,0.7,0.1c0.5-0.4,1.1-0.7,1.8-0.8c0.6-0.2,1.2,0,1.6,0.5
		s0.4,1.2,0,1.7c-0.8,1.5-2,2.8-2.7,4.3c-0.2,0.4-0.6,0.8-0.2,1.1s0.9,0,1.2-0.3c1.1-1,2.4-1.8,3-3.3
		C413.1,33.6,414,32.1,414.9,30.7z"/>
	<path class="st3" d="M327.4,29.7c-0.7,0.1-1.1,0.2-1.6,0.2s-1-0.4-1.2-0.9c-0.2-0.6-0.1-1.3,0.4-1.7c0.3-0.4,0.7-0.6,1.2-0.2
		c0.3,0.2,0.6,0,0.8-0.2l2.9-2c0.2-0.2,0.5-0.4,0.7-0.5c0.8-0.4,1.7-0.4,2.4,0.2c0.6,0.7,0.2,1.4-0.3,1.9c-1.8,2.6-3.7,5.2-5.4,7.9
		c-0.5,0.9-1.1,1.7-1.5,2.6c-0.2,0.3-0.6,0.8-0.2,1.2c0.4,0.3,0.8,0,1.2-0.2c1.2-0.7,2.4-1.5,3.4-2.5c2.9-2.5,5.4-5.4,7.6-8.5
		c0.5-0.7,1.1-1.4,0.6-2.3c0-0.1,0-0.3,0.1-0.4c0.7-0.6,1.6-0.9,2.5-0.7c0.7,0.3,1,1.2,0.8,1.9c-0.4,1-0.9,1.9-1.5,2.8
		c-3,4.5-6.9,8.3-11.4,11.3c-0.9,0.6-1.8,1-2.8,1.3c-1.2,0.6-2.7,0.1-3.4-1.1c-0.4-0.7-0.3-1.6,0-2.3c0.6-1.7,1.4-3.2,2.5-4.7
		C325.9,31.7,326.6,30.8,327.4,29.7z"/>
	<path class="st3" d="M383.1,26.5c-1.5,0.4-3,1.1-4.4,1.9c-0.4,0.2-0.9,0.5,0,0.8c0.6,0.2,0.4,0.6,0,0.9c-0.5,0.5-1.2,0.8-2,0.8
		c-0.6,0.1-1.2-0.2-1.5-0.8c-0.4-0.8-0.3-1.7,0.2-2.4c1.1-1.3,2.5-2.2,4.1-2.7c2.8-1,5.8-1.3,8.8-0.8c1.1,0.2,2.1,0.7,2.9,1.4
		c1,0.7,1.4,2.1,0.8,3.2c-1,2.5-3.1,4.3-5.6,5.2c-1.6,0.7-3.2,1.1-4.8,0.3c-0.5-0.3-0.7,0.2-0.9,0.5c-1.1,1.7-2.1,3.3-3.1,5
		c-0.3,0.6-0.9,1.1-1.7,1.1c-1.3,0-1.7-0.5-1.1-1.7s1.3-2.3,2-3.4c2-3,3.8-6,6.1-8.9C383,26.8,383.1,26.7,383.1,26.5z M386.6,26.4
		c-0.4-0.1-0.6-0.1-0.8,0.2c-0.8,1.7-2.1,3.2-3,4.8c-0.1,0.2-0.4,0.4-0.2,0.7c0.2,0.3,0.5,0.2,0.8,0.2c2.1-0.3,3.9-1.4,5.2-3.1
		c1.1-1.3,0.5-2.5-1.2-2.8C387.1,26.4,386.8,26.4,386.6,26.4z"/>
	<path class="st3" d="M396.2,33.5c-0.2,1.4-0.8,2.7-1.7,3.8c-1.1,1.7-2.7,3-4.6,3.8c-1.2,0.6-2.6,0.1-3.2-1c-0.2-0.5-0.3-1-0.2-1.5
		c0.3-2.9,3.4-6.4,6.2-7.1c1.1-0.1,2.2,0.2,3.1,0.9C396.3,32.4,396.2,33,396.2,33.5z M393.6,34.1c0-0.6-0.5-0.8-1.1-0.5
		c-1.8,1-3.1,2.7-3.7,4.7c-0.1,0.2-0.1,0.4,0.1,0.5s0.4,0.1,0.6,0c1.8-1.1,3.2-2.7,4-4.6C393.6,34.2,393.6,34.2,393.6,34.1
		L393.6,34.1z"/>
	<path class="st3" d="M402,30.4c-0.5,0-0.9-0.3-0.9-0.8c0-0.1,0-0.1,0-0.2c0.1-1.1,0.9-2,1.9-2.1c0.5-0.1,1,0.3,1.1,0.9v0.1
		C404,29.3,403.1,30.2,402,30.4z"/>
</g>
<g>
	<path class="st3" d="M592.6,20.9c-9.8,0-17.6,4.6-17.6,10.3c0,2.4,1.4,4.7,3.8,6.4c-1.2-1.3-1.8-3-1.9-4.8
		c0-5.9,7.7-10.7,17.2-10.7c6.1,0,11.5,2,14.5,5C606,23.5,599.8,20.9,592.6,20.9L592.6,20.9z"/>
	<path class="st3" d="M584.7,30.1c0.5-0.4,1.2-0.6,1.9-0.6s1.3,0.2,1.9,0.6c0.5,0.4,0.8,1,0.9,1.6h-5.6
		C583.9,31.1,584.2,30.5,584.7,30.1z M591,34.2c0.6,0,1.3-0.2,1.7-0.5c0.5-0.3,0.8-0.9,0.8-1.5c0-1.2-0.4-2.3-1.2-3.3
		c-1.4-1.8-3.5-2.8-5.8-2.8c-1.9-0.1-3.8,0.7-5.2,2c-1.3,1.3-2,3-2,4.8c0,1.9,0.7,3.6,2.1,4.8c1.4,1.3,3.3,2,5.2,2
		c1.1,0,2.2-0.2,3.2-0.5c1-0.2,2-0.8,2.7-1.6c0.3-0.3,0.5-0.7,0.5-1.2c0-1-0.5-1.5-1.6-1.5c-0.6,0.2-1.3,0.3-1.9,0.6
		c-0.8,0.4-1.7,0.6-2.6,0.6c-0.8,0-1.6-0.2-2.2-0.6c-0.6-0.4-0.9-1-1-1.7L591,34.2z"/>
	<path class="st3" d="M595.8,38c1.3,1.3,3.2,2,5.2,2c1.1,0,2.2-0.2,3.2-0.5c1.2-0.5,1.8-1.2,1.8-2c0-0.5-0.2-0.9-0.5-1.2
		s-0.8-0.5-1.2-0.5c-0.5,0-0.9,0.2-1.3,0.3c-0.5,0.2-1.1,0.3-1.6,0.3c-0.9,0.1-1.7-0.3-2.3-0.9c-0.5-0.6-0.8-1.5-0.7-2.3
		c0-0.8,0.2-1.6,0.7-2.3c0.5-0.7,1.4-1,2.3-1c0.5,0,1.2,0.1,1.6,0.3c0.4,0.2,0.9,0.3,1.3,0.3c0.5,0,0.9-0.2,1.3-0.5
		c0.3-0.3,0.5-0.7,0.5-1.2c0-0.9-0.5-1.6-1.7-2c-0.9-0.3-2-0.5-3-0.5c-2-0.1-3.8,0.6-5.3,1.9c-1.3,1.3-2,3.1-2,4.9
		C593.9,34.9,594.6,36.6,595.8,38L595.8,38z"/>
	<path class="st3" d="M611.2,30.8c0.9-1.2,2.7-1.4,3.8-0.5c0.2,0.2,0.3,0.3,0.5,0.5c0.5,0.6,0.7,1.4,0.7,2.2s-0.2,1.6-0.6,2.2
		c-0.5,0.7-1.3,1.1-2.1,1c-0.9,0-1.6-0.4-2.1-1s-0.7-1.4-0.7-2.2C610.5,32.2,610.7,31.5,611.2,30.8L611.2,30.8z M608.1,38
		c3,2.7,7.5,2.7,10.4,0c1.3-1.3,2-3,2-4.8c0.1-1.9-0.6-3.6-2-4.9s-3.3-2-5.2-2c-2-0.1-3.8,0.6-5.2,2c-1.3,1.3-2,3-2,4.9
		C606.1,34.9,606.8,36.7,608.1,38L608.1,38z"/>
	<path class="st3" d="M626.4,37v-3h3c1.7,0.1,3.5-0.5,4.8-1.6c1.3-1.1,1.9-2.7,1.8-4.4c0.1-1.7-0.6-3.4-2-4.4
		c-1.5-1.1-3.2-1.6-5-1.5h-3.8c-0.9-0.1-1.6,0.2-2.3,0.6c-0.5,0.6-0.7,1.4-0.6,2.2v12c0,1.9,0.7,2.8,2.2,2.8
		C625.7,39.8,626.4,38.9,626.4,37L626.4,37z M626.4,25.8h2c2,0,3,0.8,3,2.3c0,1.6-1,2.3-3,2.3h-1.9L626.4,25.8L626.4,25.8z"/>
	<path class="st3" d="M648.2,39.8c1.4,0,2.1-0.9,2.1-2.8v-7.8c0-1.9-0.7-2.8-2.1-2.8c-0.9,0-1.6,0.5-2,1.3c-0.9-0.9-2.1-1.4-3.4-1.4
		c-1.9-0.1-3.6,0.8-4.8,2.1c-2.3,2.7-2.3,6.6-0.1,9.3c1.2,1.4,2.9,2.2,4.7,2.1c1.3,0.1,2.7-0.5,3.6-1.4
		C646.6,39.3,647.4,39.8,648.2,39.8L648.2,39.8z M641.3,30.9c0.5-0.6,1.3-1,2-0.9c0.8-0.1,1.6,0.3,2,0.9c0.5,0.6,0.6,1.3,0.6,2.1
		s-0.2,1.5-0.6,2.1c-0.5,0.7-1.3,1.1-2,1.1s-1.6-0.3-2.1-1c-0.5-0.6-0.7-1.4-0.6-2.1C640.6,32.3,640.9,31.5,641.3,30.9z"/>
	<path class="st3" d="M660.2,27.9l-2.6,6.2l-2.4-5.8c-0.2-0.5-0.4-0.9-0.7-1.3c-0.4-0.4-0.9-0.5-1.4-0.5s-1.1,0.2-1.5,0.5
		s-0.5,0.9-0.5,1.3s0.1,0.7,0.2,1.1l4.3,9.1l-1.7,3.4c-0.2,0.4-0.3,0.9-0.4,1.3c0,0.5,0.2,1,0.5,1.3c0.4,0.3,0.9,0.5,1.5,0.5
		c0.8,0,1.4-0.5,1.9-1.6l6.5-13.9c0.2-0.4,0.3-0.9,0.3-1.3c0-1.3-0.7-1.9-2.1-1.9C661.2,26.5,660.7,26.9,660.2,27.9L660.2,27.9z"/>
	<path class="st3" d="M674.6,36.1h-4.2l5.6-6.6c0.5-0.5,0.8-1,0.9-1.6c0.1-0.5-0.2-0.9-0.6-0.9c-0.6-0.2-1.3-0.2-2-0.2h-6.8
		c-1.8,0-2.7,0.5-2.7,1.7s0.9,1.8,2.7,1.8h3.7l-6,6.7c-0.4,0.4-0.6,0.9-0.6,1.5c0,0.9,0.8,1.2,2.3,1.2h7.7c1.8,0,2.7-0.6,2.7-1.8
		S676.3,36.1,674.6,36.1L674.6,36.1z"/>
</g>
<g>
	<g>
		<g>
			<path class="st3" d="M469,40l-5.6-4.7c-0.3-0.2-0.7-0.3-1-0.1s-0.5,0.5-0.5,0.9v2.8h-1.7c-1.3,0-2.5-0.7-3.2-1.8l-6.1-9.7
				c-1.4-2.2-3.8-3.5-6.4-3.5h-5.3v3.8h5.3c1.3,0,2.5,0.7,3.2,1.8l6.1,9.7c1.4,2.2,3.8,3.5,6.4,3.5h1.6v2.8c0,0.4,0.2,0.7,0.5,0.9
				c0.1,0.1,0.3,0.1,0.4,0.1c0.2,0,0.4-0.1,0.6-0.2l5.6-4.7c0.2-0.2,0.3-0.4,0.3-0.7S469.2,40.2,469,40z"/>
		</g>
	</g>
	<g>
		<g>
			<path class="st3" d="M469,25l-5.6-4.7c-0.3-0.2-0.7-0.3-1-0.1c-0.3,0.2-0.5,0.5-0.5,0.8v2.8h-1.7c-2.6,0-5,1.3-6.4,3.5l-0.3,0.5
				l2.2,3.5l1.3-2.1c0.7-1.1,1.9-1.8,3.2-1.8h1.6v2.8c0,0.4,0.2,0.7,0.5,0.9c0.1,0.1,0.3,0.1,0.4,0.1c0.2,0,0.4-0.1,0.6-0.2l5.6-4.7
				c0.2-0.2,0.3-0.4,0.3-0.7S469.2,25.2,469,25z"/>
		</g>
	</g>
	<g>
		<g>
			<path class="st3" d="M449.1,35l-1.3,2.1c-0.7,1.1-1.9,1.8-3.2,1.8h-5.4v3.8h5.3c2.6,0,5-1.3,6.4-3.5l0.3-0.5L449.1,35z"/>
		</g>
	</g>
	<g>
		<path class="st3" d="M494.5,36c-0.9,0.6-1.9,1.3-2.7,1.8c0.7,1.2,1.7,2.1,3,2.7c-0.7,0.6-1.5,1.7-2,2.5c-1.7-0.9-2.9-2.3-3.8-4.1
			l0.3,2.4c-2.1,0.5-4.3,1-6.1,1.4l-0.4-1.3c-2.6,0.5-5.3,0.9-7.4,1.2l-0.6-2.7c0.9-0.1,1.9-0.2,3-0.4v-1l-2,0.6
			c-0.1-1-0.4-2.4-0.7-3.5l2.1-0.6c0.3,0.9,0.5,2,0.7,2.9v-3.5h-2.6v-2.6h2.6v-1.2h-1.8V30l0,0c-0.4-0.6-1.3-1.6-1.8-2.1
			c1.8-1.4,3.1-3.3,3.8-5h2.4c1.2,1,2.7,2.4,3.5,3.5v-2.7h9.8v9.8h-3.6c0.1,0.7,0.3,1.3,0.5,1.9c0.7-0.5,1.3-1.1,1.8-1.6L494.5,36z
			 M481.6,28.2c-0.5-0.8-1.3-1.7-2-2.4c-0.5,0.8-1.1,1.6-1.8,2.4H481.6z M480.5,39.2l2.7-0.4v0.9l0.6-0.1V26.8l-1.2,1.4v2.5h-2.2
			v1.2h2.6v2.6h-2.6v3.6c0.3-0.9,0.5-2.3,0.6-3.2l2.2,0.5c-0.4,1.2-0.8,2.5-1.1,3.4l-1.7-0.5v0.9H480.5z M486.8,26.4v1h4v-1H486.8z
			 M490.8,30.9v-1h-4v1H490.8z M486.8,38.9c0.7-0.1,1.4-0.3,2.1-0.4c-0.6-1.4-1.1-3.1-1.4-5h-0.7V38.9L486.8,38.9z"/>
		<path class="st3" d="M503.9,28.7c-0.6,1.1-1.4,2.1-2.2,3.2v11h-3.1v-7.6c-0.5,0.4-0.9,0.8-1.3,1.2c-0.4-0.7-1.4-2-2.1-2.7
			c2.1-1.5,4.4-3.9,5.8-6.3L503.9,28.7z M503.2,24.2c-1.6,2.1-3.9,4.3-6,5.8c-0.4-0.7-1.2-1.9-1.7-2.5c1.7-1.1,3.8-3,4.7-4.5
			L503.2,24.2z M515.4,32.9h-2.8v6.6c0,1.6-0.3,2.4-1.3,2.9c-1,0.5-2.4,0.5-4.2,0.5c-0.1-0.9-0.5-2.2-0.9-3.1c1,0.1,2.4,0.1,2.8,0.1
			s0.5-0.1,0.5-0.4v-6.6h-5.8V30h11.6L515.4,32.9L515.4,32.9z M514.8,27.1h-10.2v-2.9h10.2V27.1z"/>
		<path class="st3" d="M522.1,37.7c0.8,1.3,2.2,1.8,4.3,1.9c2.6,0.1,7.4,0,10.4-0.2c-0.3,0.7-0.8,2.2-1,3.1
			c-2.7,0.1-6.8,0.2-9.5,0.1c-2.5-0.1-4.2-0.6-5.5-2.2c-0.9,0.8-1.7,1.5-2.9,2.4l-1.5-3.2c0.9-0.5,1.8-1.1,2.7-1.7V34h-2.2v-2.8h5.1
			v6.5H522.1z M520.1,28.6c-0.6-1-2.1-2.4-3.3-3.3l2.3-1.8c1.2,0.9,2.7,2.2,3.4,3.1L520.1,28.6z M531.4,33.5
			c0.9,1.6,2.6,2.8,4.9,3.3c-0.7,0.6-1.5,1.8-1.9,2.6c-2.2-0.7-3.8-2-4.9-3.8c-0.9,1.4-2.4,2.8-4.9,3.8c-0.4-0.6-1.3-1.7-2-2.2
			c2.9-1,4.2-2.4,4.7-3.7h-4.6v-2.7h4.9v-1.5h-4.2v-2.7h1.8c-0.3-0.8-0.8-1.7-1.4-2.5l2.6-1.1c0.7,0.9,1.5,2.2,1.8,3.1l-1,0.4h4.1
			l-1-0.3c0.6-0.9,1.3-2.2,1.6-3.2l3.1,0.9c-0.6,1-1.3,1.9-1.8,2.6h2.2v2.7h-4.8v1.5h5.5v2.7h-4.7L531.4,33.5L531.4,33.5z"/>
		<path class="st3" d="M554.3,36.9c-0.7,1-1.5,2.1-2.1,2.9h4.3v2.6h-17.8v-2.6h3.8c-0.4-0.9-1-2.1-1.6-3l1.6-0.7h-2.6v-2.6h6v-1.7
			h-3.7V31c-0.9,0.7-1.9,1.3-2.9,1.8c-0.4-0.7-1.3-1.8-1.9-2.5c3.6-1.7,6.9-4.9,8.4-7.4h3.2c2.3,3.3,5.5,5.8,8.9,7.1
			c-0.8,0.8-1.4,1.8-2,2.8c-1-0.5-2-1.2-3-1.9v1h-3.7v1.7h6.1v2.6h-2.9L554.3,36.9z M543.6,36.2c0.7,1,1.4,2.1,1.6,3l-1.5,0.7h2.1
			v-3.6h-2.2L543.6,36.2L543.6,36.2z M550.7,29.2c-1.3-1.1-2.4-2.3-3.2-3.3c-0.8,1.1-1.8,2.2-3.1,3.3H550.7z M549.1,36.2v3.6h1.6
			l-1.1-0.5c0.6-0.9,1.3-2.1,1.7-3.2h-2.2V36.2z"/>
	</g>
</g>
<g>
	<polygon class="st3" points="120.1,22.9 120.1,22.9 120.1,22.9 	"/>
	<path class="st3" d="M82.1,16.2L82.1,16.2l-6.8,18.9l-0.8-4.1l0,0l0,0c0,0,0,0,0,0L72,18.7c0,0-0.3-2.5-3.4-2.5H57.3l-0.1,0.5l0,0
		l0,0c0,0,3.3,0.7,7.3,3c0.1,0.1,0.2,0.2,0.3,0.4l6.2,23.7h7.5l11.4-27.5H82.1z"/>
	<polygon class="st3" points="92.6,16.2 88.1,43.8 95.2,43.8 99.7,16.2 	"/>
	<path class="st3" d="M110,23.9c0-3.1,7-2.7,10-1l1-5.9c0,0-3.2-1.2-6.4-1.2c-3.6,0-12,1.6-12,9.1c0,7.1,9.9,7.2,9.9,10.9
		c0,3.7-8.9,3.1-11.8,0.7l-1.1,6.2c0,0,3.2,1.6,8.1,1.6c4.9,0,12.3-2.5,12.3-9.4C120,27.7,110,27,110,23.9z"/>
	<path class="st3" d="M139.3,16.2h-5.8c-2.7,0-3.3,2.1-3.3,2.1l-10.7,25.5h7.5l1.5-4.1h9.1l0.8,4.1h6.6L139.3,16.2z M130.5,34
		l3.8-10.3l2.1,10.3H130.5z"/>
</g>
</svg>
