<?xml version="1.0" encoding="utf-8"?>
<!-- Generator: Adobe Illustrator 25.2.3, SVG Export Plug-In . SVG Version: 6.00 Build 0)  -->
<svg version="1.2" baseProfile="tiny" id="Layer_1" xmlns="http://www.w3.org/2000/svg" xmlns:xlink="http://www.w3.org/1999/xlink"
	 x="0px" y="0px" viewBox="0 0 349.4 256" overflow="visible" xml:space="preserve">
<g>
	<path fill="#776149" d="M302.7,17.4h-70.3h-6.2H123.1h-6.2H46.7c-21.5,0-39.1,17.5-39.1,39.1v73.9c0,21.5,17.5,39.1,39.1,39.1h16.6
		L82.1,220c4.2,11.1,14.9,18.6,26.8,18.6h131.6c11.9,0,22.6-7.5,26.8-18.6l18.9-50.6h16.6c21.5,0,39.1-17.5,39.1-39.1V56.5
		C341.8,34.9,324.3,17.4,302.7,17.4z M123.1,23.6h103.1v139.6H123.1V23.6z M46.7,163.2c-18.1,0-32.9-14.7-32.9-32.9V56.5
		c0-18.1,14.7-32.9,32.9-32.9h70.3v139.6h-56H46.7z M261.5,217.8c-3.3,8.7-11.7,14.6-21,14.6H108.9c-9.3,0-17.7-5.9-21-14.6
		l-18.1-48.4h47.1h6.2h103.1h6.2h47.1L261.5,217.8z M335.6,130.3c0,18.1-14.7,32.9-32.9,32.9h-14.2h-56V23.6h70.3
		c18.1,0,32.9,14.7,32.9,32.9V130.3z"/>
	<path fill="#776149" d="M114.5,183.5c-9.2,0-16.6,7.5-16.6,16.6s7.5,16.6,16.6,16.6s16.6-7.5,16.6-16.6S123.6,183.5,114.5,183.5z
		 M114.5,211.6c-6.3,0-11.5-5.1-11.5-11.5c0-6.3,5.1-11.5,11.5-11.5c6.3,0,11.5,5.1,11.5,11.5C125.9,206.4,120.8,211.6,114.5,211.6z
		"/>
	<path fill="#776149" d="M175.2,183.5c-9.2,0-16.6,7.5-16.6,16.6s7.5,16.6,16.6,16.6s16.6-7.5,16.6-16.6S184.3,183.5,175.2,183.5z
		 M175.2,211.6c-6.3,0-11.5-5.1-11.5-11.5c0-6.3,5.1-11.5,11.5-11.5s11.5,5.1,11.5,11.5C186.6,206.4,181.5,211.6,175.2,211.6z"/>
	<path fill="#776149" d="M219.3,200.1c0,9.2,7.5,16.6,16.6,16.6s16.6-7.5,16.6-16.6s-7.5-16.6-16.6-16.6S219.3,191,219.3,200.1z
		 M235.9,188.7c6.3,0,11.5,5.1,11.5,11.5c0,6.3-5.1,11.5-11.5,11.5s-11.5-5.1-11.5-11.5C224.5,193.8,229.6,188.7,235.9,188.7z"/>
	<path fill="#776149" d="M87.1,59.2H43.5l-0.3,0c-2.7,0.3-4.5,2.2-4.5,4.9v10.6c0,2.8,2,4.8,4.8,4.8h20.6L47.3,121l0,0.1
		c-0.8,2.3-0.1,3.9,0.4,4.6c0.5,0.7,1.7,2,4.2,2l11-0.1c2.6,0,4.5-1.3,5.3-3.7L91.6,66l0-0.1c0.9-2.4,0.1-4-0.4-4.8
		C90.7,60.4,89.5,59.2,87.1,59.2z M62.6,121.4l-8.8,0.1l19.5-48.2H44.9v-7.9h40.2L62.6,121.4z"/>
	<path fill="#776149" d="M196.4,59.2h-43.6l-0.3,0c-2.7,0.3-4.5,2.2-4.5,4.9v10.6c0,2.8,2,4.8,4.8,4.8h20.6L156.6,121l0,0.1
		c-0.8,2.3-0.1,3.9,0.4,4.6c0.5,0.7,1.7,2,4.2,2l11-0.1c2.6,0,4.5-1.3,5.3-3.7L200.9,66l0-0.1c0.9-2.4,0.1-4-0.4-4.8
		C200,60.4,198.8,59.2,196.4,59.2z M171.9,121.4l-8.8,0.1l19.5-48.2h-28.4v-7.9h40.2L171.9,121.4z"/>
	<path fill="#776149" d="M305.8,59.2h-43.6l-0.3,0c-2.7,0.3-4.5,2.2-4.5,4.9v10.6c0,2.8,2,4.8,4.8,4.8h20.6L266,121l0,0.1
		c-0.8,2.3-0.1,3.9,0.4,4.6c0.5,0.7,1.7,2,4.2,2l11-0.1c2.6,0,4.5-1.3,5.3-3.7L310.2,66l0-0.1c0.9-2.4,0.1-4-0.4-4.8
		C309.4,60.4,308.2,59.2,305.8,59.2z M281.3,121.4l-8.8,0.1L292,73.2h-28.4v-7.9h40.2L281.3,121.4z"/>
</g>
</svg>
