<?xml version="1.0" encoding="utf-8"?>
<!-- Generator: Adobe Illustrator 26.3.1, SVG Export Plug-In . SVG Version: 6.00 Build 0)  -->
<svg version="1.2" baseProfile="tiny" id="Layer_1" xmlns="http://www.w3.org/2000/svg" xmlns:xlink="http://www.w3.org/1999/xlink"
	 x="0px" y="0px" viewBox="0 0 132 28" overflow="visible" xml:space="preserve">
<g id="JetonGo">
	<g id="logo-jetonwallet">
		<g id="Group" transform="translate(257.723404, 14.162791)">
			<polygon id="Path" fill="#FF6300" points="-186.4,-7.6 -184.9,-7.6 -181.4,5.9 -181.3,5.9 -177.6,-7.6 -175.7,-7.6 -172,5.9 
				-171.9,5.9 -168.4,-7.6 -167,-7.6 -171.2,7.8 -172.7,7.8 -176.7,-6 -176.7,-6 -180.6,7.8 -182.2,7.8 			"/>
			<g transform="translate(75.808511, 0.000000)">
				<path id="Shape" fill="#FF6300" d="M-242.3,0.1c0.1-2.6,2-3.7,4.5-3.7c2,0,4.1,0.6,4.1,3.6v5.9c0,0.2,0,0.4,0.2,0.6
					c0.2,0.2,0.4,0.2,0.6,0.2c0.1,0,0.3,0,0.4-0.1v1.1c-0.3,0.1-0.6,0.1-0.9,0.1c-1.4,0-1.6-0.8-1.6-1.9h0c-0.9,1.4-1.9,2.3-4.1,2.3
					c-2.1,0-3.7-1-3.7-3.3c0-3.1,3-3.2,6-3.6c1.1-0.1,1.7-0.3,1.7-1.5c0-1.8-1.3-2.3-2.9-2.3c-1.7,0-2.9,0.8-3,2.6H-242.3z
					 M-235.1,1.7L-235.1,1.7c-0.2,0.3-0.8,0.4-1.2,0.5c-2.3,0.4-5.2,0.4-5.2,2.6c0,1.4,1.2,2.2,2.5,2.2c2.1,0,3.9-1.3,3.9-3.5
					L-235.1,1.7z"/>
				<polygon id="Path_00000130638866124100364690000014399945467059711149_" fill="#FF6300" points="-231,-7.6 -229.6,-7.6 
					-229.6,7.8 -231,7.8 				"/>
				<polygon id="Path_00000037672039199084890200000013683797145585274515_" fill="#FF6300" points="-227,-7.6 -225.6,-7.6 
					-225.6,7.8 -227,7.8 				"/>
				<path id="Shape_00000121243323908966078470000002363385065351416448_" fill="#FF6300" d="M-222.2,2.6c0,2,1,4.4,3.7,4.4
					c2,0,3.1-1.2,3.5-2.8h1.4c-0.6,2.5-2.1,4-4.9,4c-3.5,0-5-2.7-5-5.9c0-2.9,1.5-5.9,5-5.9s5,3.1,4.9,6.3H-222.2z M-215,1.4
					c-0.1-2.1-1.3-4-3.5-4c-2.2,0-3.4,1.9-3.7,4H-215z"/>
				<path id="Path_00000080197323139595257970000009034965181961220539_" fill="#FF6300" d="M-209.7-3.4h2.3v1.1h-2.3v7.5
					c0,0.9,0.1,1.4,1.1,1.5c0.4,0,0.8,0,1.2-0.1v1.2c-0.4,0-0.8,0-1.2,0c-1.8,0-2.4-0.6-2.4-2.5v-7.6h-2v-1.1h1.9v-3.3h1.4
					L-209.7-3.4z"/>
			</g>
		</g>
		<path id="Path_00000095311323769280221530000003754433453481012634_" fill="#FF6300" d="M16.4,11.6V6.2c0-0.2,0-0.3-0.2-0.3h-3.5
			c-0.2,0-0.3,0.1-0.3,0.3c0,0.2,0,0.2,0,0.3v10.2c0.1,0.8-0.4,1.4-1.2,1.5c-0.7,0.1-1.5-0.4-1.6-1.1c-0.1-0.2-0.2-0.2-0.3-0.2H5.9
			c-0.3,0-0.4,0.1-0.4,0.4c0.1,3.1,3.2,5.5,6.3,5c2.7-0.4,4.7-2.8,4.6-5.5V11.6z"/>
		<path id="Path_00000112612489126712197460000007699771881439276988_" fill="#FF6300" d="M36.2,18.8c-0.5,0-1,0.1-1.5,0.1
			c-0.5,0-0.7-0.2-0.7-0.8v-4.4c0-0.2,0.1-0.3,0.3-0.3h1.6c0.2,0,0.3-0.1,0.3-0.3v-2.5c0-0.2-0.1-0.3-0.3-0.3h-1.6
			C34,10.4,34,10.3,34,10V7.4c0-0.2-0.1-0.3-0.3-0.3H31c-0.3,0-0.4,0.1-0.4,0.4V10c0,0.3-0.1,0.4-0.4,0.4h-0.6c-0.1,0-0.2,0-0.3,0.1
			c-0.1,0.1-0.1,0.2-0.1,0.3v1.8c0,0.9,0,0.9,0.9,0.9c0.5,0,0.5,0,0.5,0.5c0,1.6,0,3.3,0,4.9c0,1.2,0.7,2.3,1.9,2.8
			c1.1,0.4,2.3,0.5,3.4,0.1c0.2,0,0.3-0.2,0.3-0.4L36.2,18.8L36.2,18.8z"/>
		<path id="Path_00000165231147244961652490000003234730795700845962_" fill="#FF6300" d="M60.3,21.9h-2.9c-0.5,0-0.5,0-0.5-0.5
			v-6.1c0-0.2,0-0.4,0-0.6c-0.2-1-0.7-1.5-1.7-1.5c-0.9-0.1-1.6,0.6-1.8,1.4c-0.1,0.3-0.1,0.6-0.1,0.9c0,2,0,4,0,6
			c0,0.3-0.1,0.4-0.4,0.4h-2.6c-0.3,0-0.4-0.1-0.4-0.3V10.7c0-0.3,0.1-0.3,0.3-0.3h2.5c0.3,0,0.5,0.1,0.4,0.4c0,0.1,0,0.1,0,0.2
			c0.1-0.1,0.2-0.1,0.3-0.2c1.2-0.8,2.7-1,4.1-0.4c1.3,0.6,2.3,1.8,2.5,3.3c0,0.2,0.1,0.5,0.1,0.7L60.3,21.9z"/>
		<path id="Shape_00000016761391271627763340000011881662985836320664_" fill="#FF6300" d="M21,17.2c0.1,0.6,0.4,1.1,0.8,1.4
			c0.9,0.7,2.2,0.8,3.2,0.1c0.1,0,0.2-0.1,0.3-0.1c0.1,0,0.1,0,0.2,0.1l2.8,0.8c-0.4,0.7-0.9,1.3-1.6,1.8c-2.9,2-8.1,0.9-8.9-4
			c-0.4-1.8,0.1-3.8,1.3-5.2c1.1-1.5,3-2.2,4.8-2c1.3,0.1,2.5,0.6,3.4,1.4c1,1,1.5,2.3,1.6,3.6c0,0.5,0,1,0,1.5
			c0,0.5-0.1,0.5-0.6,0.5L21,17.2L21,17.2z M25.3,14.5c-0.1-0.9-1-1.5-2.2-1.5c-1,0-1.9,0.7-2,1.5H25.3z"/>
		<path id="Shape_00000176018141655084394140000013693831929308950190_" fill="#FF6300" d="M42.9,22.1c-3.4,0-6-2.6-5.9-6.1
			c-0.1-2.2,1-4.3,2.9-5.4s4.3-1.1,6.1,0c1.9,1.1,3,3.2,2.8,5.4c0.1,1.6-0.5,3.2-1.6,4.3C46.1,21.6,44.5,22.2,42.9,22.1z M45.5,16.1
			c0-0.3-0.1-0.6-0.1-0.9c-0.2-1.1-1.1-1.9-2.2-2C42,13,41,13.6,40.6,14.7c-0.3,0.7-0.4,1.5-0.2,2.3c0.2,0.9,0.8,1.6,1.6,1.9
			c0.9,0.3,1.8,0.1,2.5-0.5C45.2,17.8,45.6,17,45.5,16.1L45.5,16.1z"/>
		<path id="Path_00000087412737973530637090000000650712485995920020_" fill="#FF6300" d="M16.4,11.6v5c0,2.9-2.2,5.4-5.2,5.5
			s-5.4-2.1-5.7-5c0-0.3,0.1-0.4,0.4-0.4c1.1,0,2.2,0,3.4,0c0.2,0,0.3,0,0.3,0.2c0.1,0.7,0.8,1.2,1.6,1.1c0.7-0.1,1.3-0.8,1.2-1.5
			c0-3.4,0-6.8,0-10.2V6.1c0-0.1,0-0.1,0.1-0.2c0-0.1,0.1-0.1,0.2-0.1h3.5c0.3,0,0.2,0.2,0.2,0.3L16.4,11.6L16.4,11.6z"/>
		<path id="Path_00000056412849252918294980000001348021801571082649_" fill="#FF6300" d="M36.2,18.8v2.5c0,0.2-0.1,0.3-0.3,0.4
			c-1.1,0.4-2.3,0.4-3.4-0.1c-1.1-0.5-1.9-1.6-1.9-2.8c-0.1-1.6,0-3.3,0-4.9c0-0.5,0-0.5-0.5-0.5c-0.9,0-0.9,0-0.9-0.9v-1.8
			c0-0.3,0.1-0.4,0.3-0.4c0.2,0,0.4,0,0.6,0c0.3,0,0.4-0.1,0.4-0.4V7.5c0-0.3,0.1-0.4,0.4-0.4h2.6c0.3,0,0.3,0.1,0.3,0.3V10
			c0,0.2,0.1,0.3,0.3,0.3h1.6c0.2,0,0.3,0.1,0.3,0.3v2.5c0,0.2-0.1,0.3-0.3,0.3h-1.6c-0.2,0-0.3,0.1-0.3,0.3v4.4
			c0,0.5,0.2,0.8,0.7,0.8C35.2,18.9,35.7,18.8,36.2,18.8L36.2,18.8z"/>
		<rect id="Rectangle" x="65.8" y="2.8" fill="#FF6300" width="1.1" height="22.1"/>
	</g>
</g>
</svg>
