<?xml version="1.0" encoding="utf-8"?>
<!-- Generator: Adobe Illustrator 26.5.0, SVG Export Plug-In . SVG Version: 6.00 Build 0)  -->
<svg version="1.1" id="Providers" xmlns="http://www.w3.org/2000/svg" xmlns:xlink="http://www.w3.org/1999/xlink" x="0px" y="0px"
	 viewBox="0 0 1200 60" style="enable-background:new 0 0 1200 60;" xml:space="preserve">
<style type="text/css">
	.st0{display:none;}
	.st1{display:inline;fill:#84D5F7;}
	.st2{fill:#84D5F7;}
	.st3{fill-rule:evenodd;clip-rule:evenodd;fill:#84D5F7;}
</style>
<g id="g4158" class="st0">
	<polygon id="polygon9" class="st1" points="59.6,44.9 51.9,44.9 56.7,15.1 64.4,15.1 	"/>
	<path id="path11" class="st1" d="M87.5,15.9c-2.2-0.8-4.5-1.3-6.9-1.3c-7.6,0-13,4.1-13,9.9c-0.1,4.3,3.8,6.7,6.8,8.1
		c2.9,1.4,4,2.4,4,3.7c0,2-2.4,2.9-4.6,2.9c-2.5,0.1-5-0.5-7.2-1.6l-1-0.5l-1.1,6.7c2.7,1.1,5.6,1.6,8.6,1.6c8.1,0,13.4-4,13.4-10.2
		c0-3.4-2-6-6.4-8.1c-2.7-1.4-4.3-2.3-4.3-3.7c0-1.4,1.4-2.6,4.4-2.6c2,0,3.9,0.4,5.7,1.2l0.7,0.3L87.5,15.9L87.5,15.9z"/>
	<path id="path13" class="st1" d="M97.7,34.4c0.6-1.7,3.1-8.3,3.1-8.3s0.6-1.7,1-2.8l0.5,2.6c0,0,1.5,7.1,1.8,8.6L97.7,34.4z
		 M107.3,15.1h-6c-1.8-0.2-3.4,0.8-4,2.5L85.9,44.9H94c0,0,1.3-3.7,1.6-4.5h9.9l0.9,4.5h7.1L107.3,15.1L107.3,15.1z"/>
	<path id="path15" class="st1" d="M45.4,15.1l-7.5,20.3l-0.8-4.1c-1.4-4.8-5.8-9.9-10.7-12.5l6.9,26.1h8.1l12.2-29.8
		C53.6,15.1,45.4,15.1,45.4,15.1z"/>
	<path id="path17" class="st1" d="M30.9,15.1H18.5l-0.1,0.6c9.7,2.5,16.1,8.4,18.7,15.6l-2.7-13.7C33.9,15.7,32.5,15.2,30.9,15.1z"
		/>
</g>
<g id="Group_37" transform="translate(-722.908 11.948)">
	<g id="Group_35" transform="translate(1029.707 1912.815) rotate(-45)">
		<path id="Rectangle_16" d="M38.4,304.2h10.2c0.5,0,0.8,0.4,0.8,0.8l0,0c0,0.5-0.4,0.9-0.8,0.9H38.4c-0.5,0-0.9-0.4-0.9-0.9l0,0
			C37.6,304.6,38,304.2,38.4,304.2z"/>
		<path id="Rectangle_17" d="M46,301l3.3,3.3c0.4,0.4,0.4,0.9,0,1.3l0,0c-0.4,0.4-0.9,0.4-1.3,0l-3.3-3.3c-0.4-0.4-0.4-0.9,0-1.3
			l0,0C45.1,300.7,45.7,300.7,46,301z"/>
		<path id="Rectangle_18" d="M44.7,307.7l3.3-3.3c0.4-0.4,0.9-0.4,1.3,0l0,0c0.4,0.4,0.4,0.9,0,1.3L46,309c-0.4,0.4-0.9,0.4-1.3,0
			l0,0C44.4,308.6,44.4,308.1,44.7,307.7z"/>
	</g>
	<g id="Group_36" transform="translate(1045.014 1919.254) rotate(135)">
		<path id="Rectangle_16-2" d="M-36.7-296.6h10.2c0.5,0,0.9,0.4,0.9,0.9l0,0c0,0.5-0.4,0.9-0.9,0.9h-10.2c-0.5,0-0.8-0.4-0.8-0.9
			l0,0C-37.6-296.2-37.2-296.6-36.7-296.6z"/>
		<path id="Rectangle_17-2" d="M-29.2-299.7l3.3,3.3c0.4,0.4,0.4,0.9,0,1.3l0,0c-0.4,0.4-0.9,0.4-1.3,0l-3.3-3.3
			c-0.4-0.4-0.4-0.9,0-1.3l0,0C-30.1-300.1-29.5-300.1-29.2-299.7z"/>
		<path id="Rectangle_18-2" d="M-30.4-293l3.3-3.3c0.4-0.4,0.9-0.4,1.3,0l0,0c0.4,0.4,0.4,0.9,0,1.3l-3.3,3.3
			c-0.4,0.4-0.9,0.4-1.3,0l0,0C-30.8-292.1-30.8-292.7-30.4-293z"/>
	</g>
</g>
<g>
	<g>
		<path class="st2" d="M435.9,19.8c-9.8,0-17.6,4.6-17.6,10.3c0,2.4,1.4,4.7,3.8,6.4c-1.2-1.3-1.8-3-1.9-4.8
			c0-5.9,7.7-10.7,17.2-10.7c6.1,0,11.5,2,14.5,5C449.3,22.4,443.1,19.8,435.9,19.8L435.9,19.8z"/>
		<path class="st2" d="M428,29c0.5-0.4,1.2-0.6,1.9-0.6s1.3,0.2,1.9,0.6c0.5,0.4,0.8,1,0.9,1.6h-5.6C427.2,30,427.5,29.4,428,29z
			 M434.3,33.1c0.6,0,1.3-0.2,1.7-0.5c0.5-0.3,0.8-0.9,0.8-1.5c0-1.2-0.4-2.3-1.2-3.3c-1.4-1.8-3.5-2.8-5.8-2.8
			c-1.9-0.1-3.8,0.7-5.2,2c-1.3,1.3-2,3-2,4.8c0,1.9,0.7,3.6,2.1,4.8c1.4,1.3,3.3,2,5.2,2c1.1,0,2.2-0.2,3.2-0.5
			c1-0.2,2-0.8,2.7-1.6c0.3-0.3,0.5-0.7,0.5-1.2c0-1-0.5-1.5-1.6-1.5c-0.6,0.2-1.3,0.3-1.9,0.6c-0.8,0.4-1.7,0.6-2.6,0.6
			c-0.8,0-1.6-0.2-2.2-0.6c-0.6-0.4-0.9-1-1-1.7L434.3,33.1z"/>
		<path class="st2" d="M439.1,36.9c1.3,1.3,3.2,2,5.2,2c1.1,0,2.2-0.2,3.2-0.5c1.2-0.5,1.8-1.2,1.8-2c0-0.5-0.2-0.9-0.5-1.2
			s-0.8-0.5-1.2-0.5c-0.5,0-0.9,0.2-1.3,0.3c-0.5,0.2-1.1,0.3-1.6,0.3c-0.9,0.1-1.7-0.3-2.3-0.9c-0.5-0.6-0.8-1.5-0.7-2.3
			c0-0.8,0.2-1.6,0.7-2.3c0.5-0.7,1.4-1,2.3-1c0.5,0,1.2,0.1,1.6,0.3c0.4,0.2,0.9,0.3,1.3,0.3c0.5,0,0.9-0.2,1.3-0.5
			c0.3-0.3,0.5-0.7,0.5-1.2c0-0.9-0.5-1.6-1.7-2c-0.9-0.3-2-0.5-3-0.5c-2-0.1-3.8,0.6-5.3,1.9c-1.3,1.3-2,3.1-2,4.9
			C437.2,33.8,437.9,35.5,439.1,36.9L439.1,36.9z"/>
		<path class="st2" d="M454.5,29.7c0.9-1.2,2.7-1.4,3.8-0.5c0.2,0.2,0.3,0.3,0.5,0.5c0.5,0.6,0.7,1.4,0.7,2.2c0,0.8-0.2,1.6-0.6,2.2
			c-0.5,0.7-1.3,1.1-2.1,1c-0.9,0-1.6-0.4-2.1-1s-0.7-1.4-0.7-2.2C453.8,31.1,454,30.4,454.5,29.7L454.5,29.7z M451.4,36.9
			c3,2.7,7.5,2.7,10.4,0c1.3-1.3,2-3,2-4.8c0.1-1.9-0.6-3.6-2-4.9s-3.3-2-5.2-2c-2-0.1-3.8,0.6-5.2,2c-1.3,1.3-2,3-2,4.9
			C449.4,33.8,450.1,35.6,451.4,36.9L451.4,36.9z"/>
		<path class="st2" d="M469.7,35.9v-3h3c1.7,0.1,3.5-0.5,4.8-1.6s1.9-2.7,1.8-4.4c0.1-1.7-0.6-3.4-2-4.4c-1.5-1.1-3.2-1.6-5-1.5
			h-3.8c-0.9-0.1-1.6,0.2-2.3,0.6c-0.5,0.6-0.7,1.4-0.6,2.2v12c0,1.9,0.7,2.8,2.2,2.8C469,38.7,469.7,37.8,469.7,35.9L469.7,35.9z
			 M469.7,24.7h2c2,0,3,0.8,3,2.3c0,1.6-1,2.3-3,2.3h-1.9L469.7,24.7L469.7,24.7z"/>
		<path class="st2" d="M491.5,38.7c1.4,0,2.1-0.9,2.1-2.8v-7.8c0-1.9-0.7-2.8-2.1-2.8c-0.9,0-1.6,0.5-2,1.3
			c-0.9-0.9-2.1-1.4-3.4-1.4c-1.9-0.1-3.6,0.8-4.8,2.1c-2.3,2.7-2.3,6.6-0.1,9.3c1.2,1.4,2.9,2.2,4.7,2.1c1.3,0.1,2.7-0.5,3.6-1.4
			C489.9,38.2,490.7,38.7,491.5,38.7L491.5,38.7z M484.6,29.8c0.5-0.6,1.3-1,2-0.9c0.8-0.1,1.6,0.3,2,0.9c0.5,0.6,0.6,1.3,0.6,2.1
			s-0.2,1.5-0.6,2.1c-0.5,0.7-1.3,1.1-2,1.1s-1.6-0.3-2.1-1c-0.5-0.6-0.7-1.4-0.6-2.1C483.9,31.2,484.2,30.4,484.6,29.8z"/>
		<path class="st2" d="M503.5,26.8l-2.6,6.2l-2.4-5.8c-0.2-0.5-0.4-0.9-0.7-1.3c-0.4-0.4-0.9-0.5-1.4-0.5s-1.1,0.2-1.5,0.5
			s-0.5,0.9-0.5,1.3s0.1,0.7,0.2,1.1l4.3,9.1l-1.7,3.4c-0.2,0.4-0.3,0.9-0.4,1.3c0,0.5,0.2,1,0.5,1.3c0.4,0.3,0.9,0.5,1.5,0.5
			c0.8,0,1.4-0.5,1.9-1.6l6.5-13.9c0.2-0.4,0.3-0.9,0.3-1.3c0-1.3-0.7-1.9-2.1-1.9C504.5,25.4,504,25.8,503.5,26.8L503.5,26.8z"/>
		<path class="st2" d="M517.9,35h-4.2l5.6-6.6c0.5-0.5,0.8-1,0.9-1.6c0.1-0.5-0.2-0.9-0.6-0.9c-0.6-0.2-1.3-0.2-2-0.2h-6.8
			c-1.8,0-2.7,0.5-2.7,1.7s0.9,1.8,2.7,1.8h3.7l-6,6.7c-0.4,0.4-0.6,0.9-0.6,1.5c0,0.9,0.8,1.2,2.3,1.2h7.7c1.8,0,2.7-0.6,2.7-1.8
			S519.6,35,517.9,35L517.9,35z"/>
	</g>
	<g>
		<g>
			<path class="st2" d="M268.9,14.7c2.5,0,4.7,2.1,4.7,4.7v20.2c0,2.5-2.1,4.7-4.7,4.7h-36.4c-2.5,0-4.7-2.1-4.7-4.7V19.4
				c0-2.5,2.1-4.7,4.7-4.7H268.9L268.9,14.7z M268.9,12.9h-36.4c-3.6,0-6.5,2.9-6.5,6.5v20.2c0,3.6,2.9,6.5,6.5,6.5h36.4
				c3.6,0,6.5-2.9,6.5-6.5V19.4C275.4,15.8,272.5,12.9,268.9,12.9L268.9,12.9z"/>
		</g>
		<g>
			<rect x="226.8" y="20" class="st2" width="47.3" height="6.3"/>
		</g>
		<g>
			<path class="st2" d="M267.3,39.1h-2.6c-1,0-1.8-0.8-1.8-1.8v-2.6c0-1,0.8-1.8,1.8-1.8h2.6c1,0,1.8,0.8,1.8,1.8v2.6
				C269.2,38.3,268.4,39.1,267.3,39.1z"/>
		</g>
		<g>
			<path class="st2" d="M245.1,35.6h-12.3c-0.5,0-0.9-0.4-0.9-0.9v-0.1c0-0.5,0.4-0.9,0.9-0.9h12.3c0.5,0,0.9,0.4,0.9,0.9v0.1
				C246,35.2,245.6,35.6,245.1,35.6z"/>
		</g>
		<g>
			<path class="st2" d="M238.6,38.2h-5.8c-0.5,0-0.9-0.4-0.9-0.9l0,0c0-0.5,0.4-0.9,0.9-0.9h5.8c0.5,0,0.9,0.4,0.9,0.9l0,0
				C239.5,37.8,239.1,38.2,238.6,38.2z"/>
		</g>
	</g>
	<g id="JetonGo_00000043429071856522738870000008318169328503952315_">
		<g id="logo-jetonwallet_00000060728074218446252680000011502917645925121963_">
			<g id="Group_00000123439535516636388690000009322507432754533029_" transform="translate(257.723404, 14.162791)">
				<polygon id="Path_00000041978453286865542930000010002575121197544619_" class="st2" points="346.7,8.9 348.3,8.9 351.7,22.1 
					351.7,22.1 355.4,8.9 357.2,8.9 360.8,22.1 360.9,22.1 364.3,8.9 365.7,8.9 361.6,24 360.1,24 356.3,10.5 356.2,10.5 352.4,24 
					350.9,24 				"/>
				<g transform="translate(75.808511, 0.000000)">
					<path id="Shape_00000164481753743266299630000004525497535050217406_" class="st2" d="M290.3,16.4c0.1-2.5,1.9-3.6,4.4-3.6
						c1.9,0,4,0.6,4,3.5v5.8c0,0.2,0,0.4,0.2,0.6s0.4,0.2,0.6,0.2c0.1,0,0.3,0,0.4-0.1v1.1c-0.3,0.1-0.6,0.1-0.9,0.1
						c-1.3,0-1.6-0.8-1.6-1.9l0,0c-0.9,1.4-1.9,2.2-4,2.2c-2,0-3.6-1-3.6-3.2c0-3.1,3-3.2,5.8-3.5c1.1-0.1,1.7-0.3,1.7-1.5
						c0-1.8-1.3-2.2-2.8-2.2c-1.6,0-2.9,0.8-2.9,2.5C291.6,16.4,290.3,16.4,290.3,16.4z M297.4,18L297.4,18
						c-0.2,0.3-0.8,0.4-1.2,0.5c-2.2,0.4-5,0.4-5,2.5c0,1.3,1.2,2.1,2.4,2.1c2,0,3.8-1.3,3.8-3.4L297.4,18z"/>
					<polygon id="Path_00000059296406797950242270000012325479129405091216_" class="st2" points="301.4,8.9 302.7,8.9 302.7,24 
						301.4,24 					"/>
					<polygon id="Path_00000076571345098934152270000016275090118291167408_" class="st2" points="305.3,8.9 306.6,8.9 306.6,24 
						305.3,24 					"/>
					<path id="Shape_00000139286514847213233840000010239421559087743908_" class="st2" d="M310,18.9c0,1.9,1,4.3,3.6,4.3
						c1.9,0,3-1.1,3.4-2.8h1.3c-0.6,2.5-2,3.9-4.7,3.9c-3.5,0-4.9-2.7-4.9-5.7c0-2.9,1.4-5.7,4.9-5.7s4.9,3.1,4.8,6.1H310L310,18.9
						L310,18.9z M317,17.8c-0.1-2-1.3-3.9-3.5-3.9s-3.4,1.9-3.6,3.9H317z"/>
					<path id="Path_00000002351554695210088930000006518044494375626682_" class="st2" d="M322.2,13.1h2.2v1.1h-2.2v7.3
						c0,0.9,0.1,1.4,1.1,1.4c0.4,0,0.8,0,1.1-0.1v1.1c-0.4,0-0.8,0-1.2,0c-1.8,0-2.4-0.6-2.4-2.4v-7.4h-1.9v-1h1.9V9.8h1.3
						L322.2,13.1z"/>
				</g>
			</g>
			<path id="Path_00000045613439564110528060000016402498714614309761_" class="st2" d="M550.9,28v-5.3c0-0.2,0-0.3-0.2-0.3h-3.4
				c-0.2,0-0.3,0.1-0.3,0.3c0,0.2,0,0.2,0,0.3v9.9c0.1,0.7-0.4,1.4-1.2,1.5c-0.7,0.1-1.4-0.4-1.6-1.1c-0.1-0.2-0.2-0.2-0.3-0.2h-3.3
				c-0.3,0-0.4,0.1-0.3,0.4c0.1,3,3.2,5.4,6.1,4.8c2.6-0.4,4.5-2.7,4.5-5.4V28z"/>
			<path id="Path_00000183954553542190445720000016588966082182915732_" class="st2" d="M570.2,35c-0.5,0-1,0.1-1.4,0.1
				s-0.7-0.2-0.7-0.8v-4.2c0-0.2,0.1-0.3,0.3-0.3h1.6c0.2,0,0.3-0.1,0.3-0.3v-2.4c0-0.2-0.1-0.3-0.3-0.3h-1.6
				c-0.2,0-0.3-0.1-0.3-0.3V24c0-0.2-0.1-0.3-0.3-0.3h-2.6c-0.3,0-0.4,0.1-0.4,0.4v2.4c0,0.3-0.1,0.4-0.4,0.4h-0.6
				c-0.1,0-0.2,0-0.3,0.1s-0.1,0.2-0.1,0.3v1.8c0,0.9,0,0.9,0.8,0.9c0.5,0,0.5,0,0.5,0.5c0,1.6,0,3.2,0,4.8c0,1.2,0.7,2.3,1.8,2.7
				s2.2,0.5,3.3,0.1c0.2,0,0.3-0.2,0.3-0.4L570.2,35L570.2,35z"/>
			<path id="Path_00000083810387488330418730000008721500423789506962_" class="st2" d="M593.7,38.1h-2.8c-0.5,0-0.5,0-0.5-0.5v-6
				c0-0.2,0-0.4,0-0.6c-0.2-1-0.7-1.4-1.7-1.4c-0.9-0.1-1.6,0.6-1.7,1.4c-0.1,0.3-0.1,0.6-0.1,0.8c0,2,0,3.9,0,5.9
				c0,0.3-0.1,0.4-0.4,0.4H584c-0.3,0-0.4-0.1-0.4-0.3V27.2c0-0.2,0.1-0.3,0.3-0.3h2.5c0.3,0,0.4,0.1,0.4,0.4c0,0.1,0,0.1,0,0.2
				c0.1-0.1,0.2-0.1,0.3-0.2c1.2-0.8,2.7-1,4-0.4s2.2,1.8,2.4,3.2c0,0.2,0.1,0.4,0.1,0.7L593.7,38.1z"/>
			<path id="Shape_00000085215043984005921920000003336660302793549456_" class="st2" d="M555.4,33.5c0.1,0.5,0.4,1,0.8,1.4
				c0.9,0.7,2.1,0.8,3.1,0.1c0.1,0,0.2-0.1,0.3-0.1s0.1,0,0.2,0.1l2.7,0.8c-0.4,0.7-0.9,1.3-1.6,1.7c-2.8,1.9-7.9,0.9-8.7-3.9
				c-0.4-1.8,0.1-3.7,1.2-5.1c1.1-1.4,2.9-2.2,4.7-2c1.2,0.1,2.4,0.6,3.3,1.4c0.9,0.9,1.5,2.2,1.6,3.5c0,0.5,0,1,0,1.5
				s-0.1,0.5-0.6,0.5L555.4,33.5L555.4,33.5z M559.6,30.9c-0.1-0.9-1-1.5-2.1-1.5c-1,0-1.9,0.7-2,1.5H559.6z"/>
			<path id="Shape_00000161590268370519381950000004766363770192235659_" class="st2" d="M576.8,38.3c-3.3,0-5.8-2.5-5.8-6
				c-0.1-2.2,1-4.2,2.8-5.3c1.8-1.1,4.2-1.1,6,0s2.9,3.2,2.8,5.3c0.1,1.6-0.5,3.1-1.6,4.2C579.8,37.8,578.3,38.4,576.8,38.3z
				 M579.3,32.4c0-0.3-0.1-0.6-0.1-0.9c-0.2-1.1-1.1-1.9-2.2-2c-1.1-0.1-2.1,0.5-2.5,1.5c-0.3,0.7-0.3,1.5-0.2,2.2
				c0.2,0.9,0.8,1.6,1.6,1.9c0.8,0.3,1.8,0.1,2.4-0.5C579,34.1,579.3,33.3,579.3,32.4L579.3,32.4z"/>
			<path id="Path_00000010999878628910696310000006254106793841908373_" class="st2" d="M550.9,28v4.9c0,2.9-2.2,5.3-5,5.4
				c-2.9,0.1-5.3-2-5.6-4.9c0-0.3,0.1-0.4,0.3-0.4c1.1,0,2.2,0,3.3,0c0.2,0,0.3,0,0.3,0.2c0.1,0.7,0.8,1.2,1.6,1.1
				c0.7-0.1,1.2-0.8,1.2-1.5c0-3.3,0-6.6,0-9.9v-0.3c0-0.1,0-0.1,0.1-0.2s0.1-0.1,0.2-0.1h3.4c0.3,0,0.2,0.2,0.2,0.3V28L550.9,28z"
				/>
			<path id="Path_00000094607278034880071100000005613386535721715842_" class="st2" d="M570.2,35v2.5c0,0.2-0.1,0.3-0.3,0.4
				c-1.1,0.4-2.2,0.4-3.3-0.1c-1.1-0.4-1.8-1.5-1.8-2.7c-0.1-1.6,0-3.2,0-4.8c0-0.5,0-0.5-0.5-0.5c-0.8,0-0.8,0-0.8-0.9v-1.8
				c0-0.3,0.1-0.4,0.3-0.3c0.2,0,0.4,0,0.6,0c0.3,0,0.4-0.1,0.4-0.4V24c0-0.3,0.1-0.4,0.4-0.4h2.6c0.3,0,0.3,0.1,0.3,0.3v2.6
				c0,0.2,0.1,0.3,0.3,0.3h1.6c0.2,0,0.3,0.1,0.3,0.3v2.5c0,0.2-0.1,0.3-0.3,0.3h-1.6c-0.2,0-0.3,0.1-0.3,0.3v4.3
				c0,0.5,0.2,0.8,0.7,0.8C569.2,35.1,569.7,35.1,570.2,35L570.2,35z"/>
			
				<rect id="Rectangle_00000083793366289489902940000001441474336522749865_" x="599.1" y="19.5" class="st2" width="1.1" height="21.6"/>
		</g>
	</g>
	<g>
		<path class="st3" d="M687.2,40.7c-0.6,0-1.3-0.3-1.6-0.9l-7.7-13.5c-0.5-0.9-0.2-2,0.7-2.6c0.9-0.5,2-0.2,2.5,0.7l7.7,13.5
			c0.5,0.9,0.2,2-0.7,2.6C687.9,40.6,687.6,40.7,687.2,40.7z"/>
		<path class="st3" d="M706.7,33.4c0-1-0.3-1.9-0.9-2.9c-0.9-1.5-1.8-2.5-3.1-3.2c-1.1-0.5-2.3-0.8-3.6-0.7c0.4-0.9,0.7-1.8,0.8-2.8
			c0.1-1.4-0.3-2.7-1.2-4.2c-0.6-1-1.2-1.7-2-2.2s-1.7-0.8-2.6-0.9c-0.9-0.1-1.9,0-3,0.2c-0.3,0.1-0.7,0.2-1,0.3
			c-0.1,0-0.3,0.1-0.4,0.1c-0.6,0.2-2.2,1.1-2.8,1.5l-2.6,1.7h-0.1c-1,0.6-1.3,1.9-0.8,2.9c0.4,0.7,1.1,1.1,1.8,1.1
			c0.3,0,0.7-0.1,1-0.3l0,0l4.3-2.5c0.4-0.2,0.8-0.4,1.3-0.4c0.4-0.1,0.9,0,1.3,0.1c0.4,0.1,0.8,0.3,1.1,0.6c0.4,0.3,0.7,0.6,0.9,1
			s0.4,0.8,0.5,1.3s0.1,0.9,0,1.3s-0.2,0.8-0.4,1.1c-0.2,0.3-0.5,0.6-0.9,0.9l-2.6,1.6l-1.1,0.7l-0.7,0.4c-0.9,0.5-1.3,1.8-0.7,2.7
			c0.4,0.6,1,1,1.7,1c0.3,0,0.7-0.1,1-0.3l1.4-0.8l3.7-2.1c0.4-0.2,0.8-0.3,1.2-0.4c0.4,0,0.8,0,1.2,0.2c0.4,0.1,0.8,0.4,1.1,0.7
			c0.3,0.3,0.6,0.7,0.9,1.1c0.2,0.4,0.4,0.8,0.4,1.3c0.1,0.5,0,0.9-0.1,1.3c-0.1,0.4-0.3,0.8-0.6,1.2s-0.6,0.7-1,0.9l-6.4,3.7
			l-0.3,0.2l-1.2,0.7l-2.2,1.2c-1,0.5-1.4,1.8-0.8,2.8c0.4,0.7,1.1,1.1,1.8,1.1c0.3,0,0.7-0.1,1-0.2l5.5-3l4.4-2.5
			c1-0.6,1.9-1.3,2.6-2c0.7-0.8,1.3-1.6,1.7-2.5C706.6,35.2,706.7,34.3,706.7,33.4z"/>
		<path class="st3" d="M809.4,26.9c0.8,0,1.2,0.2,1.7,0.5c0.4,0.2,0.6,0.6,0.6,1s-0.2,0.7-0.4,0.9c-0.2,0.2-0.5,0.3-0.8,0.3
			c-0.2,0-0.5-0.1-0.8-0.3c-0.3-0.2-0.6-0.3-0.9-0.3c-0.8,0-1.6,0.6-1.6,1.8v4.4c0,0.6,0,0.8-0.2,1.1c-0.2,0.4-0.6,0.6-1.1,0.6
			s-0.9-0.2-1.1-0.6c-0.1-0.3-0.2-0.5-0.2-1.1v-6.7c0-0.6,0-0.8,0.2-1.1c0.2-0.3,0.6-0.6,1-0.6c0.3,0,0.6,0.1,0.8,0.3
			c0.2,0.2,0.3,0.4,0.4,0.8C807.5,27.4,808.4,26.9,809.4,26.9z"/>
		<path class="st3" d="M777.3,30c-0.3-0.6-0.8-1-1.6-1s-1.4,0.4-1.6,1c-0.2,0.4-0.2,0.6-0.2,1.1h3.7C777.5,30.6,777.4,30.4,777.3,30
			z M773.8,32.8c0,1.3,0.7,2.2,2.2,2.2c0.6,0,1.2-0.2,1.7-0.5c0.4-0.3,0.6-0.4,0.9-0.4c0.5,0,1,0.5,1,1s-0.4,0.9-1,1.3
			c-0.7,0.5-1.6,0.7-2.7,0.7c-2.3,0-4.5-1.1-4.5-5.1c0-3.2,1.7-5.1,4.2-5.1c2.6,0,4.2,1.9,4.2,4.4c0,0.4,0,0.8-0.3,1.1
			s-0.7,0.3-1.1,0.3h-4.6L773.8,32.8L773.8,32.8z"/>
		<path class="st3" d="M782.3,29.2h-0.2c-0.5,0-0.6,0-0.8-0.1c-0.3-0.2-0.4-0.4-0.4-0.8s0.2-0.7,0.4-0.8c0.2-0.1,0.4-0.1,0.8-0.1
			h0.2v-1.3c0-0.6,0-0.8,0.2-1.1c0.2-0.4,0.6-0.6,1.1-0.6s0.9,0.2,1.1,0.6c0.1,0.3,0.2,0.5,0.2,1.1v1.3h0.7c0.5,0,0.6,0,0.8,0.1
			c0.3,0.2,0.4,0.4,0.4,0.8s-0.2,0.7-0.4,0.8c-0.2,0.1-0.4,0.1-0.8,0.1h-0.7V34c0,0.5,0.2,0.8,0.8,0.9c0.3,0,0.5,0,0.7,0.2
			c0.3,0.2,0.5,0.4,0.5,0.9c0,0.4-0.2,0.7-0.5,0.9c-0.2,0.1-0.5,0.2-1,0.2h-0.1c-2,0-2.8-1.4-2.8-2.8v-5.1
			C782.5,29.2,782.3,29.2,782.3,29.2z"/>
		<path class="st3" d="M788.8,29.2h-0.2c-0.5,0-0.6,0-0.8-0.1c-0.3-0.2-0.4-0.4-0.4-0.8s0.2-0.7,0.4-0.8c0.2-0.1,0.4-0.1,0.8-0.1
			h0.2v-1.3c0-0.6,0-0.8,0.2-1.1c0.2-0.4,0.6-0.6,1.1-0.6s0.9,0.2,1.1,0.6c0.1,0.3,0.2,0.5,0.2,1.1v1.3h0.7c0.5,0,0.6,0,0.8,0.1
			c0.3,0.2,0.4,0.4,0.4,0.8s-0.2,0.7-0.4,0.8c-0.2,0.1-0.4,0.1-0.8,0.1h-0.7V34c0,0.5,0.2,0.8,0.8,0.9c0.3,0,0.5,0,0.7,0.2
			c0.3,0.2,0.5,0.4,0.5,0.9c0,0.4-0.2,0.7-0.5,0.9c-0.2,0.1-0.5,0.2-1,0.2h-0.1c-2,0-2.8-1.4-2.8-2.8v-5.1
			C789,29.2,788.8,29.2,788.8,29.2z"/>
		<path class="st3" d="M800.2,30c-0.3-0.6-0.8-1-1.6-1s-1.4,0.4-1.6,1c-0.2,0.4-0.2,0.6-0.2,1.1h3.7C800.4,30.6,800.3,30.4,800.2,30
			z M796.7,32.8c0,1.3,0.7,2.2,2.2,2.2c0.6,0,1.2-0.2,1.7-0.5c0.4-0.3,0.6-0.4,0.9-0.4c0.5,0,1,0.5,1,1s-0.4,0.9-1,1.3
			c-0.7,0.5-1.6,0.7-2.7,0.7c-2.3,0-4.5-1.1-4.5-5.1c0-3.2,1.7-5.1,4.2-5.1c2.6,0,4.2,1.9,4.2,4.4c0,0.4,0,0.8-0.3,1.1
			s-0.7,0.3-1.1,0.3h-4.6L796.7,32.8L796.7,32.8z"/>
		<path class="st3" d="M765.4,34.6c1.2,0,1.7-0.8,1.7-1.7s-0.6-1.7-1.7-1.7h-2.7v3.3h2.7V34.6z M762.6,25.8v3.1h2.6
			c1.1,0,1.7-0.6,1.7-1.6c0-0.9-0.6-1.6-1.7-1.6h-2.6V25.8z M761.6,36.9c-0.4,0-0.9,0-1.2-0.4c-0.4-0.4-0.4-0.9-0.4-1.2V25
			c0-0.4,0-0.9,0.4-1.2c0.4-0.4,0.8-0.4,1.2-0.4h3.8c2.6,0,4.1,1.5,4.1,3.8c0,1.5-1,2.5-1.7,2.8c0.8,0.4,1.9,1.2,1.9,3
			c0,2.5-1.7,3.9-4.1,3.9H761.6z"/>
		<path class="st3" d="M757.4,36.3c-0.2,0.4-0.6,0.6-1,0.6c-0.5,0-0.9-0.2-1-0.6c-0.1-0.3-0.2-0.5-0.2-1.1v-4.3
			c0-1.3-0.8-1.8-1.6-1.8s-1.6,0.4-1.6,1.8v4.3c0,0.6,0,0.8-0.2,1.1c-0.2,0.4-0.6,0.6-1,0.6s-0.9-0.2-1-0.6
			c-0.1-0.3-0.2-0.5-0.2-1.1V25c0-0.6,0-0.8,0.2-1.1c0.2-0.4,0.6-0.6,1-0.6s0.9,0.2,1,0.6c0.1,0.3,0.2,0.5,0.2,1.1v2.9
			c0.6-0.6,1.3-1,2.4-1c1,0,1.7,0.3,2.3,0.9c0.8,0.8,1,1.7,1,2.8v4.7C757.6,35.8,757.6,36.1,757.4,36.3z"/>
		<path class="st3" d="M746.7,27.4c0.5,0.3,1.2,0.8,1.2,1.4c0,0.3-0.1,0.6-0.3,0.8c-0.2,0.2-0.5,0.3-0.7,0.3c-0.3,0-0.5-0.1-0.8-0.3
			c-0.4-0.3-0.7-0.4-1.2-0.4c-0.6,0-1,0.2-1.4,0.6c-0.4,0.5-0.5,1.1-0.5,2.2c0,1,0.2,1.7,0.5,2.2c0.4,0.4,0.8,0.6,1.4,0.6
			c0.5,0,0.8-0.1,1.2-0.4c0.3-0.2,0.6-0.4,0.8-0.4c0.3,0,0.6,0.2,0.7,0.3c0.2,0.2,0.3,0.5,0.3,0.8c0,0.6-0.6,1.1-1.2,1.4
			c-0.6,0.3-1.1,0.5-1.9,0.5c-1.9,0-4.3-1.1-4.3-5c0-4,2.4-5,4.3-5C745.6,26.9,746.1,27,746.7,27.4z"/>
		<path class="st3" d="M733.8,37c-1,0-1.7-0.3-2.3-0.9c-0.8-0.8-1-1.7-1-2.8v-4.7c0-0.6,0-0.8,0.2-1.1c0.2-0.4,0.6-0.6,1-0.6
			c0.5,0,0.9,0.2,1,0.6c0.1,0.3,0.2,0.5,0.2,1.1v4.3c0,1.3,0.8,1.8,1.6,1.8s1.6-0.4,1.6-1.8v-4.3c0-0.6,0-0.8,0.2-1.1
			c0.2-0.4,0.6-0.6,1-0.6c0.5,0,0.9,0.2,1,0.6c0.1,0.3,0.2,0.5,0.2,1.1v6.6c0,0.6,0,0.8-0.2,1.1s-0.6,0.6-1,0.6
			c-0.3,0-0.6-0.1-0.8-0.3s-0.3-0.4-0.4-0.7C735.6,36.6,734.7,37,733.8,37z"/>
		<path class="st3" d="M720.8,33.4l-2.2-4.3v6.1c0,0.6,0,0.8-0.2,1.2s-0.6,0.6-1.1,0.6s-0.9-0.3-1.1-0.6c-0.2-0.3-0.2-0.5-0.2-1.2
			V25c0-0.6,0.1-1,0.4-1.3c0.2-0.2,0.5-0.4,0.9-0.4c0.3,0,0.5,0.1,0.8,0.2c0.3,0.2,0.5,0.5,0.7,0.8l3.3,6.4l3.3-6.4
			c0.2-0.3,0.4-0.6,0.7-0.8c0.2-0.2,0.5-0.2,0.8-0.2c0.4,0,0.6,0.1,0.9,0.4c0.3,0.3,0.4,0.7,0.4,1.3v10.2c0,0.6,0,0.8-0.2,1.2
			s-0.6,0.6-1.1,0.6s-0.9-0.3-1.1-0.6c-0.2-0.3-0.2-0.5-0.2-1.2v-6.1l-2.2,4.3c-0.3,0.7-0.6,0.9-1.2,0.9
			C721.4,34.3,721.1,34,720.8,33.4z"/>
	</g>
	<g id="logo_pc_00000107586640228726010220000009837401314857458096_" transform="translate(-743 -500)">
		<path id="パス_1_00000001665326455793577400000012175658519848964244_" class="st2" d="M1579.4,518.1l1.2,2.4
			c0.1,0.1,0.2,0.2,0.3,0.2l2.6,0.4c0.2,0,0.4,0.2,0.3,0.4c0,0.1-0.1,0.2-0.1,0.2l-1.9,1.9c-0.1,0.1-0.1,0.2-0.1,0.3l0.5,2.6
			c0,0.2-0.1,0.4-0.3,0.4c-0.1,0-0.2,0-0.2,0l-2.4-1.2c-0.1-0.1-0.2-0.1-0.4,0l-2.4,1.2c-0.2,0.1-0.4,0-0.5-0.2c0-0.1-0.1-0.2,0-0.2
			l0.5-2.6c0-0.1,0-0.3-0.1-0.3l-1.9-1.9c-0.2-0.1-0.2-0.4,0-0.5c0.1-0.1,0.1-0.1,0.2-0.1l2.6-0.4c0.1,0,0.2-0.1,0.3-0.2l1.2-2.4
			c0.1-0.2,0.3-0.3,0.5-0.2C1579.3,518,1579.4,518.1,1579.4,518.1"/>
		<path id="パス_2_00000183235568221800939710000018346075265631859356_" class="st2" d="M1598.7,518.1l-1.2,2.4
			c-0.1,0.1-0.2,0.2-0.3,0.2l-2.6,0.4c-0.2,0-0.4,0.2-0.3,0.4c0,0.1,0.1,0.2,0.1,0.2l1.9,1.9c0.1,0.1,0.1,0.2,0.1,0.3l-0.5,2.6
			c0,0.2,0.1,0.4,0.3,0.4c0.1,0,0.2,0,0.2,0l2.4-1.2c0.1-0.1,0.2-0.1,0.4,0l2.4,1.2c0.2,0.1,0.4,0,0.5-0.2c0-0.1,0.1-0.2,0-0.2
			l-0.5-2.6c0-0.1,0-0.3,0.1-0.3l1.9-1.9c0.2-0.1,0.2-0.4,0-0.5c-0.1-0.1-0.1-0.1-0.2-0.1l-2.6-0.4c-0.1,0-0.2-0.1-0.3-0.2l-1.2-2.4
			c-0.1-0.2-0.3-0.3-0.5-0.2C1598.8,518,1598.7,518.1,1598.7,518.1"/>
		<path id="パス_3_00000082339066297846149220000002211007297828416918_" class="st2" d="M1601.1,529.8c-4.8,1.7-8.9,4.7-12,8.7
			c-3-4-7.2-7.1-12-8.7c-0.5-0.2-0.9,0.4-0.4,0.7c4.6,2.6,8.3,6.6,10.5,11.5c0.3,0.5,0.6,1.1,0.8,1.7c0.2,0.4,0.7,0.7,1.1,0.6
			c0.5,0,0.9-0.2,1.1-0.6c0.2-0.6,0.5-1.1,0.8-1.7c2.1-4.9,5.8-8.9,10.5-11.5C1602,530.3,1601.6,529.7,1601.1,529.8"/>
		<path id="パス_4_00000183214442726629424060000013264315869888524949_" class="st2" d="M1624.4,522.5l-5.7,13.7h-1.5l-5.5-13.7
			h2.5l4.2,10.7h0.1l4.4-10.7H1624.4z"/>
		<path id="パス_5_00000141422789665113658850000002187558843810934156_" class="st2" d="M1655.8,530.2c0-2.6-1.4-3.6-4-3.6
			c-2.5,0-3.8,1-4,1.3c0,0.4,0.5,0.9,0.9,0.9c0.7-0.7,1.7-1.1,2.7-1.1c1.2,0,2,0.6,2,2.3v0.9c-0.4-0.1-0.8-0.1-1.3-0.1
			c-3.3,0-5,1.2-5,3.1c0,1.9,1.3,2.5,2.9,2.5c1.7,0,2.7-0.7,3.2-1.2v1.3h2.5v-6.3L1655.8,530.2L1655.8,530.2z M1651.2,535.2
			c-1.1,0-1.6-0.7-1.6-1.6c0-1.1,0.9-1.8,2.7-1.8c0.4,0,0.7,0,1.1,0.1v2.3C1652.8,534.8,1652,535.2,1651.2,535.2"/>
		<path id="パス_6_00000181784663471338358520000012295895108228443012_" class="st2" d="M1686.9,530.2c0-2.6-1.4-3.6-4-3.6
			c-2.5,0-3.8,1-4,1.3c0,0.4,0.5,0.9,0.9,0.9c0.7-0.7,1.7-1.1,2.7-1.1c1.2,0,2,0.6,2,2.3v0.9c-0.4-0.1-0.8-0.1-1.3-0.1
			c-3.3,0-5,1.2-5,3.1c0,1.9,1.3,2.5,2.9,2.5c1.7,0,2.7-0.7,3.2-1.2v1.3h2.5v-6.3L1686.9,530.2L1686.9,530.2z M1682.2,535.2
			c-1.1,0-1.6-0.7-1.6-1.6c0-1.1,0.9-1.8,2.7-1.8c0.4,0,0.7,0,1.1,0.1v2.3C1683.9,534.8,1683.1,535.2,1682.2,535.2"/>
		<path id="パス_7_00000104683304069367793060000015242117321256766364_" class="st2" d="M1633,534.2L1633,534.2
			c-0.9,0.7-2,1.1-3.1,1.1c-2,0-3.3-1.1-3.3-3.6h7.1c0-2.7-1-5.1-4.5-5.1c-3.2,0-5,1.9-5,5c0,3.3,2.2,4.8,5.4,4.8
			c1.7,0,2.8-0.4,3.4-0.7V534.2z M1629.1,527.6c1.5,0,2.1,1.3,2.1,3h-4.5C1626.8,528.6,1627.7,527.6,1629.1,527.6"/>
		<path id="パス_8_00000127752937030921674990000004033952247852580013_" class="st2" d="M1708.5,534.2L1708.5,534.2
			c-0.9,0.7-2,1.1-3.1,1.1c-2,0-3.3-1.1-3.3-3.6h7.1c0-2.7-1-5.1-4.5-5.1c-3.2,0-5,1.9-5,5c0,3.3,2.2,4.8,5.4,4.8
			c1.7,0,2.8-0.4,3.4-0.7V534.2z M1704.6,527.6c1.5,0,2.1,1.3,2.1,3h-4.5C1702.3,528.6,1703.2,527.6,1704.6,527.6"/>
		<path id="パス_9_00000117667694961924327080000013087603451217876622_" class="st2" d="M1641.3,526.6c-3.6,0-5.8,1.9-5.8,5.3
			c0,3.3,1.8,4.5,4,4.5c1.1,0,2.2-0.3,3-1.1l0.1,0.1v1.2c0,3-1.3,3.8-3.2,3.8c-1.8,0-2.7-0.9-2.9-1.1v1.6c0.9,0.4,1.9,0.6,3,0.6
			c2.9,0,5.5-1.1,5.5-5.5v-8.8C1644.7,527.1,1643.5,526.6,1641.3,526.6 M1642.7,534.2c-0.6,0.6-1.4,1-2.2,0.9
			c-1.4,0-2.5-0.9-2.5-3.5c0-2.7,1.3-4,3.1-4c0.5,0,1.1,0.1,1.6,0.3V534.2z"/>
		
			<rect id="長方形_1_00000021106320181088334710000003105553923954070708_" x="1689.7" y="520.7" class="st2" width="2.4" height="15.8"/>
		
			<rect id="長方形_2_00000042017323807212584000000009398324208979948196_" x="1694.9" y="520.7" class="st2" width="2.4" height="15.8"/>
		<path id="パス_10_00000067212449264087130820000008756834884056423328_" class="st2" d="M1717,526.7h-1.8v-3.3h-2.5v3.3h-1.8
			v1.1h1.8v8.5h2.5v-8.5h1.8V526.7z"/>
		<path id="パス_11_00000033329350750261760440000003431811066540299691_" class="st2" d="M1677.3,526.7l-3.8,9.5h-1.5l-2.7-6.8
			h-0.1l-2.7,6.8h-1.4l-3.7-9.5h2.5l2.4,6.6h0.1l2.6-6.6h1.6l2.5,6.6h0.1l2.5-6.6H1677.3z"/>
	</g>
	<g>
		<g>
			<g>
				<path class="st2" d="M322,36.2l-4.9-4c-0.2-0.2-0.6-0.2-0.8-0.1s-0.5,0.5-0.5,0.7v2.4h-1.4c-1.1,0-2.1-0.6-2.7-1.5l-5.2-8.4
					c-1.2-1.9-3.2-3.1-5.4-3.1h-4.7v3.2h4.6c1.1,0,2.1,0.6,2.7,1.5l5.2,8.4c1.2,1.9,3.2,3.1,5.4,3.1h1.3v2.4c0,0.4,0.2,0.6,0.5,0.7
					c0.1,0,0.2,0.1,0.4,0.1c0.2,0,0.4-0.1,0.5-0.2l4.9-4c0.2-0.1,0.2-0.4,0.2-0.6C322.1,36.5,322.1,36.3,322,36.2z"/>
			</g>
		</g>
		<g>
			<g>
				<path class="st2" d="M322,23.3l-4.9-4c-0.2-0.2-0.6-0.2-0.8-0.1c-0.2,0.1-0.5,0.5-0.5,0.7v2.4h-1.4c-2.2,0-4.3,1.2-5.4,3.1
					l-0.2,0.5l1.9,3.1l1.2-1.8c0.6-0.9,1.7-1.5,2.7-1.5h1.3v2.4c0,0.4,0.2,0.6,0.5,0.7c0.1,0,0.2,0.1,0.4,0.1c0.2,0,0.4-0.1,0.5-0.2
					l4.9-4c0.2-0.1,0.2-0.4,0.2-0.6C322.2,23.7,322.1,23.4,322,23.3z"/>
			</g>
		</g>
		<g>
			<g>
				<path class="st2" d="M304.9,32l-1.1,1.8c-0.6,0.9-1.7,1.5-2.7,1.5h-4.6v3.2h4.6c2.2,0,4.3-1.2,5.4-3.1l0.2-0.5L304.9,32z"/>
			</g>
		</g>
		<g>
			<path class="st2" d="M343.9,32.8c-0.7,0.6-1.7,1.1-2.4,1.5c0.6,1.1,1.4,1.8,2.6,2.4c-0.6,0.5-1.3,1.5-1.7,2.1
				c-1.4-0.8-2.5-2-3.2-3.4l0.2,2c-1.8,0.5-3.7,0.8-5.2,1.2l-0.4-1.2c-2.2,0.4-4.5,0.7-6.3,1.1l-0.5-2.4c0.7-0.1,1.7-0.2,2.6-0.4
				v-0.8l-1.7,0.5c0-0.8-0.4-2.1-0.6-3.1l1.7-0.5c0.2,0.8,0.5,1.8,0.6,2.5v-3h-2.2v-2.2h2.2v-0.9h-1.5v-0.6l0,0
				c-0.4-0.6-1.1-1.4-1.5-1.8c1.5-1.3,2.6-2.8,3.2-4.3h2.1c1.1,0.8,2.4,2,3,3v-2.4h8.4v8.4h-3c0.1,0.6,0.2,1.2,0.5,1.7
				c0.6-0.5,1.1-0.9,1.5-1.3L343.9,32.8z M332.7,26.1c-0.5-0.6-1.1-1.4-1.7-2c-0.5,0.6-0.9,1.3-1.5,2H332.7z M331.9,35.5l2.4-0.4
				v0.7l0.6-0.1V24.9l-1.1,1.3v2.1h-1.9v0.9h2.2v2.3h-2.2v3.1c0.2-0.8,0.5-1.9,0.5-2.7l1.9,0.5c-0.4,1.1-0.7,2.1-0.9,2.8l-1.5-0.5
				V35.5L331.9,35.5z M337.2,24.5v0.8h3.4v-0.8H337.2z M340.7,28.4v-0.8h-3.4v0.8H340.7z M337.2,35.3c0.6-0.1,1.2-0.2,1.8-0.4
				c-0.6-1.3-0.9-2.7-1.2-4.3h-0.6L337.2,35.3L337.2,35.3z"/>
			<path class="st2" d="M352,26.5c-0.5,0.9-1.2,1.9-1.9,2.7v9.5h-2.6v-6.5c-0.4,0.4-0.8,0.7-1.2,1.1c-0.4-0.6-1.3-1.8-1.8-2.2
				c1.8-1.3,3.8-3.3,5-5.4L352,26.5z M351.3,22.6c-1.4,1.8-3.3,3.7-5.2,5c-0.4-0.6-0.9-1.7-1.4-2.1c1.5-0.9,3.2-2.6,4-3.8
				L351.3,22.6z M361.7,30.1h-2.3v5.7c0,1.3-0.2,2-1.2,2.5c-0.8,0.4-2.1,0.5-3.5,0.5c-0.1-0.8-0.5-1.9-0.8-2.7c0.8,0,2.1,0,2.4,0
				c0.4,0,0.5-0.1,0.5-0.4V30h-5v-2.5h9.9V30.1L361.7,30.1z M361.3,25.1h-8.8v-2.5h8.8V25.1z"/>
			<path class="st2" d="M367.5,34.2c0.7,1.1,1.9,1.5,3.7,1.7c2.2,0.1,6.3,0,8.9-0.2c-0.2,0.6-0.7,1.9-0.8,2.7
				c-2.2,0.1-5.9,0.1-8.2,0c-2.1-0.1-3.5-0.6-4.7-1.9c-0.7,0.6-1.5,1.3-2.5,2.1l-1.3-2.7c0.7-0.5,1.5-0.9,2.4-1.4v-3.3h-1.9v-2.4
				h4.4L367.5,34.2L367.5,34.2z M365.9,26.4c-0.5-0.8-1.8-2-2.8-2.8l1.9-1.5c1.1,0.7,2.4,1.9,3,2.7L365.9,26.4z M375.6,30.5
				c0.8,1.4,2.2,2.4,4.3,2.8c-0.6,0.5-1.3,1.5-1.7,2.2c-1.9-0.6-3.2-1.8-4.1-3.3c-0.8,1.2-2.1,2.4-4.1,3.3c-0.4-0.6-1.2-1.4-1.8-1.9
				c2.5-0.8,3.5-2,4-3.2h-3.9V28h4.3v-1.3h-3.5v-2.2h1.5c-0.2-0.7-0.7-1.4-1.2-2.1l2.2-0.9c0.6,0.8,1.3,1.9,1.5,2.7l-0.8,0.4h3.5
				l-0.8-0.2c0.5-0.8,1.1-1.9,1.4-2.7l2.7,0.8c-0.6,0.8-1.1,1.7-1.5,2.2h1.9v2.2h-4.1v1.3h4.7v2.4h-4.5V30.5L375.6,30.5z"/>
			<path class="st2" d="M395.2,33.5c-0.6,0.8-1.3,1.8-1.8,2.5h3.7v2.2h-15.3V36h3.2c-0.4-0.8-0.8-1.8-1.3-2.6l1.3-0.6h-2.2v-2.3h5.2
				v-1.4h-3.1v-0.7c-0.8,0.6-1.7,1.1-2.5,1.5c-0.4-0.6-1.1-1.5-1.7-2.1c3.1-1.4,5.9-4.3,7.2-6.4h2.7c2,2.8,4.7,5,7.7,6.2
				c-0.6,0.7-1.3,1.5-1.8,2.4c-0.8-0.5-1.8-1.1-2.6-1.7v0.8h-3.2v1.4h5.2v2.2h-2.5L395.2,33.5z M386,32.9c0.6,0.8,1.2,1.8,1.4,2.5
				l-1.3,0.6h1.8v-3.1H386z M392.1,27c-1.1-0.9-2.1-1.9-2.7-2.8c-0.7,0.9-1.5,1.9-2.7,2.8H392.1z M390.7,32.9V36h1.3l-0.9-0.4
				c0.5-0.7,1.1-1.8,1.5-2.7C392.6,32.9,390.7,32.9,390.7,32.9z"/>
		</g>
	</g>
</g>
</svg>
