<?xml version="1.0" encoding="utf-8"?>
<!-- Generator: Adobe Illustrator 26.5.0, SVG Export Plug-In . SVG Version: 6.00 Build 0)  -->
<svg version="1.1" id="Providers" xmlns="http://www.w3.org/2000/svg" xmlns:xlink="http://www.w3.org/1999/xlink" x="0px" y="0px"
	 viewBox="0 0 564.7 116" style="enable-background:new 0 0 564.7 116;" xml:space="preserve">
<style type="text/css">
	.st0{display:none;}
	.st1{display:inline;fill:#84D5F7;}
	.st2{fill-rule:evenodd;clip-rule:evenodd;fill:#84D5F7;}
	.st3{fill:#84D5F7;}
</style>
<g id="g4158" class="st0">
	<polygon id="polygon9" class="st1" points="42.8,94.6 37.7,94.6 41,74.4 46.1,74.4 	"/>
	<path id="path11" class="st1" d="M61.7,74.9c-1.5-0.6-3-0.9-4.6-0.9c-5.1,0-8.8,2.8-8.8,6.7c0,2.9,2.6,4.5,4.6,5.4s2.7,1.6,2.7,2.5
		c0,1.4-1.6,2-3.1,2c-1.7,0.1-3.3-0.3-4.9-1.1l-0.7-0.4l-0.7,4.5c1.9,0.7,3.8,1.1,5.8,1.1c5.4,0,9.1-2.7,9.1-6.9
		c0-2.3-1.4-4.1-4.4-5.5c-1.8-0.9-2.9-1.5-2.9-2.5s0.9-1.7,3-1.7c1.3-0.1,2.7,0.2,3.8,0.8l0.4,0.2L61.7,74.9L61.7,74.9z"/>
	<path id="path13" class="st1" d="M68.7,87.5c0.4-1.2,2.1-5.7,2.1-5.7s0.4-1.2,0.7-2l0.4,1.7c0,0,1,4.8,1.2,5.8L68.7,87.5z
		 M75.1,74.4H71c-1.2-0.1-2.3,0.6-2.8,1.7l-7.7,18.5h5.4l1.1-3h6.7l0.6,3h4.9L75.1,74.4L75.1,74.4z"/>
	<path id="path15" class="st1" d="M33.3,74.4l-5.1,13.7l-0.6-2.8c-0.9-3.2-3.9-6.7-7.2-8.5L25,94.4h5.5l8.2-20.1L33.3,74.4
		L33.3,74.4z"/>
	<path id="path17" class="st1" d="M23.5,74.4h-8.4L15,74.8c6.5,1.7,10.9,5.7,12.6,10.5l-1.7-9.2C25.5,74.8,24.6,74.5,23.5,74.4z"/>
</g>
<g>
	<g>
		<path class="st2" d="M106.5,97.9c-0.8,0-1.6-0.4-2-1.1l-9.8-17.1c-0.6-1.1-0.3-2.5,0.9-3.3c1.1-0.6,2.5-0.3,3.2,0.9l9.8,17.1
			c0.6,1.1,0.3,2.5-0.9,3.3C107.4,97.7,107,97.9,106.5,97.9z"/>
		<path class="st2" d="M131.3,88.6c0-1.3-0.4-2.4-1.1-3.7c-1.1-1.9-2.3-3.2-3.9-4.1c-1.4-0.6-2.9-1-4.6-0.9c0.5-1.1,0.9-2.3,1-3.6
			c0.1-1.8-0.4-3.4-1.5-5.3c-0.8-1.3-1.5-2.2-2.5-2.8c-1-0.6-2.2-1-3.3-1.1c-1.1-0.1-2.4,0-3.8,0.3c-0.4,0.1-0.9,0.3-1.3,0.4
			c-0.1,0-0.4,0.1-0.5,0.1c-0.8,0.3-2.8,1.4-3.6,1.9l-3.3,2.2h-0.1c-1.3,0.8-1.6,2.4-1,3.7c0.5,0.9,1.4,1.4,2.3,1.4
			c0.4,0,0.9-0.1,1.3-0.4l0,0l5.5-3.2c0.5-0.3,1-0.5,1.6-0.5c0.5-0.1,1.1,0,1.6,0.1s1,0.4,1.4,0.8c0.5,0.4,0.9,0.8,1.1,1.3
			s0.5,1,0.6,1.6s0.1,1.1,0,1.6s-0.3,1-0.5,1.4c-0.3,0.4-0.6,0.8-1.1,1.1l-3.3,2l-1.4,0.9l-0.9,0.5c-1.1,0.6-1.6,2.3-0.9,3.4
			c0.5,0.8,1.3,1.3,2.2,1.3c0.4,0,0.9-0.1,1.3-0.4l1.8-1l4.7-2.7c0.5-0.3,1-0.4,1.5-0.5c0.5,0,1,0,1.5,0.3c0.5,0.1,1,0.5,1.4,0.9
			s0.8,0.9,1.1,1.4c0.3,0.5,0.5,1,0.5,1.6c0.1,0.6,0,1.1-0.1,1.6s-0.4,1-0.8,1.5s-0.8,0.9-1.3,1.1l-8.1,4.7l-0.4,0.3l-1.5,0.9
			l-2.8,1.5c-1.3,0.6-1.8,2.3-1,3.6c0.5,0.9,1.4,1.4,2.3,1.4c0.4,0,0.9-0.1,1.3-0.3l7-3.8l5.6-3.2c1.3-0.8,2.4-1.6,3.3-2.5
			c0.9-1,1.6-2,2.2-3.2C131.1,90.9,131.3,89.7,131.3,88.6z"/>
		<path class="st2" d="M261.5,80.4c1,0,1.5,0.3,2.2,0.6c0.5,0.3,0.8,0.8,0.8,1.3s-0.3,0.9-0.5,1.1s-0.6,0.4-1,0.4
			c-0.3,0-0.6-0.1-1-0.4s-0.8-0.4-1.1-0.4c-1,0-2,0.8-2,2.3v5.6c0,0.8,0,1-0.3,1.4c-0.3,0.5-0.8,0.8-1.4,0.8s-1.1-0.3-1.4-0.8
			c-0.1-0.4-0.3-0.6-0.3-1.4v-8.5c0-0.8,0-1,0.3-1.4c0.3-0.4,0.8-0.8,1.3-0.8c0.4,0,0.8,0.1,1,0.4c0.3,0.3,0.4,0.5,0.5,1
			C259.1,81,260.2,80.4,261.5,80.4z"/>
		<path class="st2" d="M220.8,84.3c-0.4-0.8-1-1.3-2-1.3s-1.8,0.5-2,1.3c-0.3,0.5-0.3,0.8-0.3,1.4h4.7
			C221.1,85,220.9,84.8,220.8,84.3z M216.4,87.8c0,1.6,0.9,2.8,2.8,2.8c0.8,0,1.5-0.3,2.2-0.6c0.5-0.4,0.8-0.5,1.1-0.5
			c0.6,0,1.3,0.6,1.3,1.3c0,0.6-0.5,1.1-1.3,1.6c-0.9,0.6-2,0.9-3.4,0.9c-2.9,0-5.7-1.4-5.7-6.5c0-4.1,2.2-6.5,5.3-6.5
			c3.3,0,5.3,2.4,5.3,5.6c0,0.5,0,1-0.4,1.4s-0.9,0.4-1.4,0.4L216.4,87.8L216.4,87.8L216.4,87.8z"/>
		<path class="st2" d="M227.1,83.3h-0.3c-0.6,0-0.8,0-1-0.1c-0.4-0.3-0.5-0.5-0.5-1s0.3-0.9,0.5-1c0.3-0.1,0.5-0.1,1-0.1h0.3v-1.6
			c0-0.8,0-1,0.3-1.4c0.3-0.5,0.8-0.8,1.4-0.8c0.6,0,1.1,0.3,1.4,0.8c0.1,0.4,0.3,0.6,0.3,1.4V81h0.9c0.6,0,0.8,0,1,0.1
			c0.4,0.3,0.5,0.5,0.5,1s-0.3,0.9-0.5,1c-0.3,0.1-0.5,0.1-1,0.1h-0.9v6.1c0,0.6,0.3,1,1,1.1c0.4,0,0.6,0,0.9,0.3
			c0.4,0.3,0.6,0.5,0.6,1.1c0,0.5-0.3,0.9-0.6,1.1c-0.3,0.1-0.6,0.3-1.3,0.3H231c-2.5,0-3.6-1.8-3.6-3.6v-6.5
			C227.4,83.3,227.1,83.3,227.1,83.3z"/>
		<path class="st2" d="M235.4,83.3h-0.3c-0.6,0-0.8,0-1-0.1c-0.4-0.3-0.5-0.5-0.5-1s0.3-0.9,0.5-1c0.3-0.1,0.5-0.1,1-0.1h0.3v-1.6
			c0-0.8,0-1,0.3-1.4c0.3-0.5,0.8-0.8,1.4-0.8c0.6,0,1.1,0.3,1.4,0.8c0.1,0.4,0.3,0.6,0.3,1.4V81h0.9c0.6,0,0.8,0,1,0.1
			c0.4,0.3,0.5,0.5,0.5,1s-0.3,0.9-0.5,1c-0.3,0.1-0.5,0.1-1,0.1h-0.9v6.1c0,0.6,0.3,1,1,1.1c0.4,0,0.6,0,0.9,0.3
			c0.4,0.3,0.6,0.5,0.6,1.1c0,0.5-0.3,0.9-0.6,1.1c-0.3,0.1-0.6,0.3-1.3,0.3h-0.1c-2.5,0-3.6-1.8-3.6-3.6v-6.5
			C235.6,83.3,235.4,83.3,235.4,83.3z"/>
		<path class="st2" d="M249.8,84.3c-0.4-0.8-1-1.3-2-1.3s-1.8,0.5-2,1.3c-0.3,0.5-0.3,0.8-0.3,1.4h4.7C250.1,85,250,84.8,249.8,84.3
			z M245.4,87.8c0,1.6,0.9,2.8,2.8,2.8c0.8,0,1.5-0.3,2.2-0.6c0.5-0.4,0.8-0.5,1.1-0.5c0.6,0,1.3,0.6,1.3,1.3c0,0.6-0.5,1.1-1.3,1.6
			c-0.9,0.6-2,0.9-3.4,0.9c-2.9,0-5.7-1.4-5.7-6.5c0-4.1,2.2-6.5,5.3-6.5c3.3,0,5.3,2.4,5.3,5.6c0,0.5,0,1-0.4,1.4s-0.9,0.4-1.4,0.4
			L245.4,87.8L245.4,87.8L245.4,87.8z"/>
		<path class="st2" d="M205.7,90.1c1.5,0,2.2-1,2.2-2.2c0-1.1-0.8-2.2-2.2-2.2h-3.4V90L205.7,90.1L205.7,90.1z M202.2,79v3.9h3.3
			c1.4,0,2.2-0.8,2.2-2c0-1.1-0.8-2-2.2-2L202.2,79L202.2,79z M200.9,93c-0.5,0-1.1,0-1.5-0.5c-0.5-0.5-0.5-1.1-0.5-1.5V77.9
			c0-0.5,0-1.1,0.5-1.5c0.5-0.5,1-0.5,1.5-0.5h4.8c3.3,0,5.2,1.9,5.2,4.8c0,1.9-1.3,3.2-2.2,3.6c1,0.5,2.4,1.5,2.4,3.8
			c0,3.2-2.2,4.9-5.2,4.9C205.9,93,200.9,93,200.9,93z"/>
		<path class="st2" d="M195.6,92.3c-0.3,0.5-0.8,0.8-1.3,0.8c-0.6,0-1.1-0.3-1.3-0.8c-0.1-0.4-0.3-0.6-0.3-1.4v-5.5
			c0-1.6-1-2.3-2-2.3s-2,0.5-2,2.3v5.5c0,0.8,0,1-0.3,1.4c-0.3,0.5-0.8,0.8-1.3,0.8s-1.1-0.3-1.3-0.8c-0.1-0.4-0.3-0.6-0.3-1.4v-13
			c0-0.8,0-1,0.3-1.4c0.3-0.5,0.8-0.8,1.3-0.8s1.1,0.3,1.3,0.8c0.1,0.4,0.3,0.6,0.3,1.4v3.7c0.8-0.8,1.6-1.3,3-1.3
			c1.3,0,2.2,0.4,2.9,1.1c1,1,1.3,2.2,1.3,3.6v6C195.8,91.6,195.8,92,195.6,92.3z"/>
		<path class="st2" d="M182,81c0.6,0.4,1.5,1,1.5,1.8c0,0.4-0.1,0.8-0.4,1c-0.3,0.3-0.6,0.4-0.9,0.4c-0.4,0-0.6-0.1-1-0.4
			c-0.5-0.4-0.9-0.5-1.5-0.5c-0.8,0-1.3,0.3-1.8,0.8c-0.5,0.6-0.6,1.4-0.6,2.8c0,1.3,0.3,2.2,0.6,2.8c0.5,0.5,1,0.8,1.8,0.8
			c0.6,0,1-0.1,1.5-0.5c0.4-0.3,0.8-0.5,1-0.5c0.4,0,0.8,0.3,0.9,0.4c0.3,0.3,0.4,0.6,0.4,1c0,0.8-0.8,1.4-1.5,1.8
			c-0.8,0.4-1.4,0.6-2.4,0.6c-2.4,0-5.5-1.4-5.5-6.3c0-5.1,3-6.3,5.5-6.3C180.6,80.4,181.2,80.5,182,81z"/>
		<path class="st2" d="M165.6,93.2c-1.3,0-2.2-0.4-2.9-1.1c-1-1-1.3-2.2-1.3-3.6v-6c0-0.8,0-1,0.3-1.4c0.3-0.5,0.8-0.8,1.3-0.8
			c0.6,0,1.1,0.3,1.3,0.8c0.1,0.4,0.3,0.6,0.3,1.4V88c0,1.6,1,2.3,2,2.3s2-0.5,2-2.3v-5.5c0-0.8,0-1,0.3-1.4
			c0.3-0.5,0.8-0.8,1.3-0.8c0.6,0,1.1,0.3,1.3,0.8c0.1,0.4,0.3,0.6,0.3,1.4v8.4c0,0.8,0,1-0.3,1.4s-0.8,0.8-1.3,0.8
			c-0.4,0-0.8-0.1-1-0.4c-0.3-0.3-0.4-0.5-0.5-0.9C167.9,92.7,166.8,93.2,165.6,93.2z"/>
		<path class="st2" d="M149.1,88.6l-2.8-5.5v7.7c0,0.8,0,1-0.3,1.5s-0.8,0.8-1.4,0.8s-1.1-0.4-1.4-0.8c-0.3-0.4-0.3-0.6-0.3-1.5
			V77.9c0-0.8,0.1-1.3,0.5-1.6c0.3-0.3,0.6-0.5,1.1-0.5c0.4,0,0.6,0.1,1,0.3c0.4,0.3,0.6,0.6,0.9,1l4.2,8.1l4.2-8.1
			c0.3-0.4,0.5-0.8,0.9-1c0.3-0.3,0.6-0.3,1-0.3c0.5,0,0.8,0.1,1.1,0.5c0.4,0.4,0.5,0.9,0.5,1.6v12.9c0,0.8,0,1-0.3,1.5
			s-0.8,0.8-1.4,0.8s-1.1-0.4-1.4-0.8c-0.3-0.4-0.3-0.6-0.3-1.5v-7.7l-2.8,5.5c-0.4,0.9-0.8,1.1-1.5,1.1
			C149.9,89.7,149.5,89.4,149.1,88.6z"/>
	</g>
	<g id="logo_pc_00000173874355537111373090000016477295457556351393_" transform="translate(-743 -500)">
		<path id="パス_1_00000159447163809601990000000015447475672384905135_" class="st3" d="M1038.8,569.2l1.5,3
			c0.1,0.1,0.3,0.3,0.4,0.3l3.3,0.5c0.3,0,0.5,0.3,0.4,0.5c0,0.1-0.1,0.3-0.1,0.3l-2.4,2.4c-0.1,0.1-0.1,0.3-0.1,0.4l0.6,3.3
			c0,0.3-0.1,0.5-0.4,0.5c-0.1,0-0.3,0-0.3,0l-3-1.5c-0.1-0.1-0.3-0.1-0.5,0l-3,1.5c-0.3,0.1-0.5,0-0.6-0.3c0-0.1-0.1-0.3,0-0.3
			l0.6-3.3c0-0.1,0-0.4-0.1-0.4l-2.4-2.4c-0.3-0.1-0.3-0.5,0-0.6c0.1-0.1,0.1-0.1,0.3-0.1l3.3-0.5c0.1,0,0.3-0.1,0.4-0.3l1.5-3
			c0.1-0.3,0.4-0.4,0.6-0.3C1038.6,569.1,1038.8,569.2,1038.8,569.2"/>
		<path id="パス_2_00000093870947494247615440000014554953580838454938_" class="st3" d="M1063.2,569.2l-1.5,3
			c-0.1,0.1-0.3,0.3-0.4,0.3l-3.3,0.5c-0.3,0-0.5,0.3-0.4,0.5c0,0.1,0.1,0.3,0.1,0.3l2.4,2.4c0.1,0.1,0.1,0.3,0.1,0.4l-0.6,3.3
			c0,0.3,0.1,0.5,0.4,0.5c0.1,0,0.3,0,0.3,0l3-1.5c0.1-0.1,0.3-0.1,0.5,0l3,1.5c0.3,0.1,0.5,0,0.6-0.3c0-0.1,0.1-0.3,0-0.3l-0.6-3.3
			c0-0.1,0-0.4,0.1-0.4l2.4-2.4c0.3-0.1,0.3-0.5,0-0.6c-0.1-0.1-0.1-0.1-0.3-0.1l-3.3-0.5c-0.1,0-0.3-0.1-0.4-0.3l-1.5-3
			c-0.1-0.3-0.4-0.4-0.6-0.3C1063.4,569.1,1063.2,569.2,1063.2,569.2"/>
		<path id="パス_3_00000142170993891981117630000009697898866932461971_" class="st3" d="M1066.3,584c-6.1,2.2-11.3,6-15.2,11
			c-3.8-5.1-9.1-9-15.2-11c-0.6-0.3-1.1,0.5-0.5,0.9c5.8,3.3,10.5,8.4,13.3,14.6c0.4,0.6,0.8,1.4,1,2.2c0.3,0.5,0.9,0.9,1.4,0.8
			c0.6,0,1.1-0.3,1.4-0.8c0.3-0.8,0.6-1.4,1-2.2c2.7-6.2,7.4-11.3,13.3-14.6C1067.4,584.7,1066.9,583.9,1066.3,584"/>
		<path id="パス_4_00000111913552390389039970000014708647407945881519_" class="st3" d="M1095.8,574.8l-7.2,17.4h-1.9l-7-17.4
			h3.2l5.3,13.6h0.1l5.6-13.6H1095.8z"/>
		<path id="パス_5_00000057125029765605881260000014692596221954493353_" class="st3" d="M1135.7,584.5c0-3.3-1.8-4.6-5.1-4.6
			c-3.2,0-4.8,1.3-5.1,1.6c0,0.5,0.6,1.1,1.1,1.1c0.9-0.9,2.2-1.4,3.4-1.4c1.5,0,2.5,0.8,2.5,2.9v1.1c-0.5-0.1-1-0.1-1.6-0.1
			c-4.2,0-6.3,1.5-6.3,3.9s1.6,3.2,3.7,3.2c2.2,0,3.4-0.9,4.1-1.5v1.6h3.2v-8L1135.7,584.5L1135.7,584.5z M1129.8,590.9
			c-1.4,0-2-0.9-2-2c0-1.4,1.1-2.3,3.4-2.3c0.5,0,0.9,0,1.4,0.1v2.9C1131.9,590.4,1130.8,590.9,1129.8,590.9"/>
		<path id="パス_6_00000070832754921793532800000009197480462892541829_" class="st3" d="M1175.1,584.5c0-3.3-1.8-4.6-5.1-4.6
			c-3.2,0-4.8,1.3-5.1,1.6c0,0.5,0.6,1.1,1.1,1.1c0.9-0.9,2.2-1.4,3.4-1.4c1.5,0,2.5,0.8,2.5,2.9v1.1c-0.5-0.1-1-0.1-1.6-0.1
			c-4.2,0-6.3,1.5-6.3,3.9s1.6,3.2,3.7,3.2c2.2,0,3.4-0.9,4.1-1.5v1.6h3.2v-8L1175.1,584.5L1175.1,584.5z M1169.1,590.9
			c-1.4,0-2-0.9-2-2c0-1.4,1.1-2.3,3.4-2.3c0.5,0,0.9,0,1.4,0.1v2.9C1171.3,590.4,1170.3,590.9,1169.1,590.9"/>
		<path id="パス_7_00000092436045621542888690000013632717740707491977_" class="st3" d="M1106.7,589.6L1106.7,589.6
			c-1.1,0.9-2.5,1.4-3.9,1.4c-2.5,0-4.2-1.4-4.2-4.6h9c0-3.4-1.3-6.5-5.7-6.5c-4.1,0-6.3,2.4-6.3,6.3c0,4.2,2.8,6.1,6.8,6.1
			c2.2,0,3.6-0.5,4.3-0.9L1106.7,589.6L1106.7,589.6z M1101.8,581.2c1.9,0,2.7,1.6,2.7,3.8h-5.7
			C1098.9,582.5,1100,581.2,1101.8,581.2"/>
		<path id="パス_8_00000013871898185195140540000012523769495985935240_" class="st3" d="M1202.5,589.6L1202.5,589.6
			c-1.1,0.9-2.5,1.4-3.9,1.4c-2.5,0-4.2-1.4-4.2-4.6h9c0-3.4-1.3-6.5-5.7-6.5c-4.1,0-6.3,2.4-6.3,6.3c0,4.2,2.8,6.1,6.8,6.1
			c2.2,0,3.6-0.5,4.3-0.9L1202.5,589.6L1202.5,589.6z M1197.6,581.2c1.9,0,2.7,1.6,2.7,3.8h-5.7
			C1194.6,582.5,1195.8,581.2,1197.6,581.2"/>
		<path id="パス_9_00000121973977459919578810000004894440005423044482_" class="st3" d="M1117.3,580c-4.6,0-7.4,2.4-7.4,6.7
			c0,4.2,2.3,5.7,5.1,5.7c1.4,0,2.8-0.4,3.8-1.4l0.1,0.1v1.5c0,3.8-1.6,4.8-4.1,4.8c-2.3,0-3.4-1.1-3.7-1.4v2
			c1.1,0.5,2.4,0.8,3.8,0.8c3.7,0,7-1.4,7-7v-11.2C1121.6,580.6,1120.1,580,1117.3,580 M1119,589.6c-0.8,0.8-1.8,1.3-2.8,1.1
			c-1.8,0-3.2-1.1-3.2-4.4c0-3.4,1.6-5.1,3.9-5.1c0.6,0,1.4,0.1,2,0.4L1119,589.6L1119,589.6z"/>
		
			<rect id="長方形_1_00000013164438764608173440000011307405177408813197_" x="1178.7" y="572.5" class="st3" width="3" height="20"/>
		
			<rect id="長方形_2_00000062900070392097689360000009872238028243691698_" x="1185.3" y="572.5" class="st3" width="3" height="20"/>
		<path id="パス_10_00000109750538212640082610000009753392032232810166_" class="st3" d="M1213.3,580.1h-2.3v-4.2h-3.2v4.2h-2.3
			v1.4h2.3v10.8h3.2v-10.8h2.3V580.1z"/>
		<path id="パス_11_00000020362403415921944760000006621662910820753032_" class="st3" d="M1162.9,580.1l-4.8,12h-1.9l-3.4-8.6
			h-0.1l-3.4,8.6h-1.8l-4.7-12h3.2l3,8.4h0.1l3.3-8.4h2l3.2,8.4h0.1l3.2-8.4H1162.9z"/>
	</g>
</g>
<g>
	<g>
		<path class="st3" d="M268.3,17.7c-12.4,0-22.3,5.8-22.3,13.1c0,3,1.8,6,4.8,8.1c-1.5-1.6-2.3-3.8-2.4-6.1
			c0-7.5,9.8-13.6,21.8-13.6c7.7,0,14.6,2.5,18.4,6.3C285.3,21,277.4,17.7,268.3,17.7L268.3,17.7z"/>
		<path class="st3" d="M258.3,29.4c0.6-0.5,1.5-0.8,2.4-0.8s1.6,0.3,2.4,0.8c0.6,0.5,1,1.3,1.1,2h-7.1
			C257.3,30.6,257.7,29.9,258.3,29.4z M266.3,34.6c0.8,0,1.6-0.3,2.2-0.6c0.6-0.4,1-1.1,1-1.9c0-1.5-0.5-2.9-1.5-4.2
			c-1.8-2.3-4.4-3.6-7.4-3.6c-2.4-0.1-4.8,0.9-6.6,2.5c-1.6,1.6-2.5,3.8-2.5,6.1c0,2.4,0.9,4.6,2.7,6.1c1.8,1.6,4.2,2.5,6.6,2.5
			c1.4,0,2.8-0.3,4.1-0.6c1.3-0.3,2.5-1,3.4-2c0.4-0.4,0.6-0.9,0.6-1.5c0-1.3-0.6-1.9-2-1.9c-0.8,0.3-1.6,0.4-2.4,0.8
			c-1,0.5-2.2,0.8-3.3,0.8c-1,0-2-0.3-2.8-0.8c-0.8-0.5-1.1-1.3-1.3-2.2L266.3,34.6z"/>
		<path class="st3" d="M272.4,39.4c1.6,1.6,4.1,2.5,6.6,2.5c1.4,0,2.8-0.3,4.1-0.6c1.5-0.6,2.3-1.5,2.3-2.5c0-0.6-0.3-1.1-0.6-1.5
			c-0.4-0.4-1-0.6-1.5-0.6c-0.6,0-1.1,0.3-1.6,0.4c-0.6,0.3-1.4,0.4-2,0.4c-1.1,0.1-2.2-0.4-2.9-1.1c-0.6-0.8-1-1.9-0.9-2.9
			c0-1,0.3-2,0.9-2.9s1.8-1.3,2.9-1.3c0.6,0,1.5,0.1,2,0.4s1.1,0.4,1.6,0.4c0.6,0,1.1-0.3,1.6-0.6c0.4-0.4,0.6-0.9,0.6-1.5
			c0-1.1-0.6-2-2.2-2.5c-1.1-0.4-2.5-0.6-3.8-0.6c-2.5-0.1-4.8,0.8-6.7,2.4c-1.6,1.6-2.5,3.9-2.5,6.2
			C270,35.5,270.9,37.6,272.4,39.4L272.4,39.4z"/>
		<path class="st3" d="M291.9,30.3c1.1-1.5,3.4-1.8,4.8-0.6c0.3,0.3,0.4,0.4,0.6,0.6c0.6,0.8,0.9,1.8,0.9,2.8s-0.3,2-0.8,2.8
			c-0.6,0.9-1.6,1.4-2.7,1.3c-1.1,0-2-0.5-2.7-1.3c-0.6-0.8-0.9-1.8-0.9-2.8C291,32,291.3,31.1,291.9,30.3L291.9,30.3z M288,39.4
			c3.8,3.4,9.5,3.4,13.2,0c1.6-1.6,2.5-3.8,2.5-6.1c0.1-2.4-0.8-4.6-2.5-6.2c-1.8-1.6-4.2-2.5-6.6-2.5c-2.5-0.1-4.8,0.8-6.6,2.5
			c-1.6,1.6-2.5,3.8-2.5,6.2C285.4,35.5,286.3,37.7,288,39.4L288,39.4z"/>
		<path class="st3" d="M311.2,38.1v-3.8h3.8c2.2,0.1,4.4-0.6,6.1-2s2.4-3.4,2.3-5.6c0.1-2.2-0.8-4.3-2.5-5.6c-1.9-1.4-4.1-2-6.3-1.9
			h-4.8c-1.1-0.1-2,0.3-2.9,0.8c-0.6,0.8-0.9,1.8-0.8,2.8V38c0,2.4,0.9,3.6,2.8,3.6C310.3,41.7,311.2,40.5,311.2,38.1L311.2,38.1z
			 M311.2,23.9h2.5c2.5,0,3.8,1,3.8,2.9c0,2-1.3,2.9-3.8,2.9h-2.4L311.2,23.9L311.2,23.9z"/>
		<path class="st3" d="M338.8,41.7c1.8,0,2.7-1.1,2.7-3.6v-9.9c0-2.4-0.9-3.6-2.7-3.6c-1.1,0-2,0.6-2.5,1.6
			c-1.1-1.1-2.7-1.8-4.3-1.8c-2.4-0.1-4.6,1-6.1,2.7c-2.9,3.4-2.9,8.4-0.1,11.8c1.5,1.8,3.7,2.8,6,2.7c1.6,0.1,3.4-0.6,4.6-1.8
			C336.8,41,337.8,41.7,338.8,41.7L338.8,41.7z M330.1,30.4c0.6-0.8,1.6-1.3,2.5-1.1c1-0.1,2,0.4,2.5,1.1c0.6,0.8,0.8,1.6,0.8,2.7
			s-0.3,1.9-0.8,2.7c-0.6,0.9-1.6,1.4-2.5,1.4s-2-0.4-2.7-1.3c-0.6-0.8-0.9-1.8-0.8-2.7C329.2,32.2,329.6,31.1,330.1,30.4z"/>
		<path class="st3" d="M354.1,26.6l-3.3,7.9l-3-7.4c-0.3-0.6-0.5-1.1-0.9-1.6c-0.5-0.5-1.1-0.6-1.8-0.6c-0.6,0-1.4,0.3-1.9,0.6
			s-0.6,1.1-0.6,1.6s0.1,0.9,0.3,1.4l5.5,11.5l-2.2,4.3c-0.3,0.5-0.4,1.1-0.5,1.6c0,0.6,0.3,1.3,0.6,1.6c0.5,0.4,1.1,0.6,1.9,0.6
			c1,0,1.8-0.6,2.4-2l8.2-17.6c0.3-0.5,0.4-1.1,0.4-1.6c0-1.6-0.9-2.4-2.7-2.4C355.3,24.8,354.7,25.3,354.1,26.6L354.1,26.6z"/>
		<path class="st3" d="M372.3,37H367l7.1-8.4c0.6-0.6,1-1.3,1.1-2c0.1-0.6-0.3-1.1-0.8-1.1c-0.8-0.3-1.6-0.3-2.5-0.3h-8.6
			c-2.3,0-3.4,0.6-3.4,2.2s1.1,2.3,3.4,2.3h4.7l-7.6,8.5c-0.5,0.5-0.8,1.1-0.8,1.9c0,1.1,1,1.5,2.9,1.5h9.8c2.3,0,3.4-0.8,3.4-2.3
			S374.5,37,372.3,37L372.3,37z"/>
	</g>
	<g>
		<g>
			<path class="st3" d="M61.5,15c2.8,0,5.1,2.3,5.1,5.1v22c0,2.8-2.3,5.1-5.1,5.1H21.9c-2.8,0-5.1-2.3-5.1-5.1v-22
				c0-2.8,2.3-5.1,5.1-5.1H61.5L61.5,15z M61.5,13.1H21.9c-4,0-7.1,3.2-7.1,7.1v22c0,4,3.2,7.1,7.1,7.1h39.5c4,0,7.1-3.2,7.1-7.1
				V20.1C68.6,16.1,65.4,13.1,61.5,13.1L61.5,13.1z"/>
		</g>
		<g>
			<rect x="15.7" y="20.8" class="st3" width="51.4" height="6.9"/>
		</g>
		<g>
			<path class="st3" d="M59.7,41.6h-2.8c-1,0-2.1-0.8-2.1-2.1v-2.8c0-1,0.8-2.1,2.1-2.1h2.8c1,0,2.1,0.8,2.1,2.1v2.8
				C61.7,40.7,60.9,41.6,59.7,41.6z"/>
		</g>
		<g>
			<path class="st3" d="M35.5,37.7H22.2c-0.6,0-0.9-0.5-0.9-0.9v-0.1c0-0.6,0.5-0.9,0.9-0.9h13.4c0.6,0,0.9,0.5,0.9,0.9v0.1
				C36.6,37.3,36,37.7,35.5,37.7z"/>
		</g>
		<g>
			<path class="st3" d="M28.5,40.6h-6.3c-0.6,0-0.9-0.5-0.9-0.9l0,0c0-0.6,0.5-0.9,0.9-0.9h6.3c0.6,0,0.9,0.5,0.9,0.9l0,0
				C29.4,40.2,28.9,40.6,28.5,40.6z"/>
		</g>
	</g>
	<g id="JetonGo_00000120527635163754346710000009099345743331652771_">
		<g id="logo-jetonwallet_00000024698699894167327310000007227920185470313139_">
			<g id="Group_00000040536474887930294290000002209734430224748456_" transform="translate(257.723404, 14.162791)">
				<polygon id="Path_00000034787542701315145230000007168223858733883041_" class="st3" points="224.3,7.7 226.4,7.7 230.7,24.4 
					230.7,24.4 235.4,7.7 237.7,7.7 242.2,24.4 242.4,24.4 246.7,7.7 248.4,7.7 243.2,26.8 241.3,26.8 236.5,9.7 236.4,9.7 
					231.6,26.8 229.7,26.8 				"/>
				<g transform="translate(75.808511, 0.000000)">
					<path id="Shape_00000029043901913823399320000015737546720517280920_" class="st3" d="M173.1,17.2c0.1-3.2,2.4-4.6,5.6-4.6
						c2.4,0,5.1,0.8,5.1,4.4v7.4c0,0.3,0,0.5,0.3,0.8s0.5,0.3,0.8,0.3c0.1,0,0.4,0,0.5-0.1v1.4c-0.4,0.1-0.8,0.1-1.1,0.1
						c-1.6,0-2-1-2-2.4l0,0c-1.1,1.8-2.4,2.8-5.1,2.8c-2.5,0-4.6-1.3-4.6-4.1c0-3.9,3.8-4.1,7.4-4.4c1.4-0.1,2.2-0.4,2.2-1.9
						c0-2.3-1.6-2.8-3.6-2.8s-3.7,1-3.7,3.2C174.8,17.2,173.1,17.2,173.1,17.2z M182.2,19.2L182.2,19.2c-0.3,0.4-1,0.5-1.5,0.6
						c-2.8,0.5-6.3,0.5-6.3,3.2c0,1.6,1.5,2.7,3,2.7c2.5,0,4.8-1.6,4.8-4.3V19.2z"/>
					<polygon id="Path_00000016773916289553590800000013427122496705233296_" class="st3" points="187.2,7.7 188.9,7.7 188.9,26.8 
						187.2,26.8 					"/>
					<polygon id="Path_00000065772270225439383730000018256091129164859300_" class="st3" points="192.2,7.7 193.8,7.7 193.8,26.8 
						192.2,26.8 					"/>
					<path id="Shape_00000108275261483292616980000002575535713034046629_" class="st3" d="M198.1,20.4c0,2.4,1.3,5.5,4.6,5.5
						c2.4,0,3.8-1.4,4.3-3.6h1.6c-0.8,3.2-2.5,4.9-6,4.9c-4.4,0-6.2-3.4-6.2-7.2c0-3.7,1.8-7.2,6.2-7.2s6.2,3.9,6.1,7.7H198
						L198.1,20.4L198.1,20.4z M207,19c-0.1-2.5-1.6-4.9-4.4-4.9c-2.8,0-4.3,2.4-4.6,4.9H207z"/>
					<path id="Path_00000171714717958292573650000006265510730705414814_" class="st3" d="M213.6,13h2.8v1.4h-2.8v9.3
						c0,1.1,0.1,1.8,1.4,1.8c0.5,0,1,0,1.4-0.1v1.4c-0.5,0-1,0-1.5,0c-2.3,0-3-0.8-3-3v-9.4h-2.4V13h2.4V8.8h1.6L213.6,13z"/>
				</g>
			</g>
			<path id="Path_00000149344128286520302950000011718474387012620175_" class="st3" d="M414.2,28.1v-6.7c0-0.3,0-0.4-0.3-0.4h-4.3
				c-0.3,0-0.4,0.1-0.4,0.4s0,0.3,0,0.4v12.6c0.1,0.9-0.5,1.8-1.5,1.9c-0.9,0.1-1.8-0.5-2-1.4c-0.1-0.3-0.3-0.3-0.4-0.3h-4.2
				c-0.4,0-0.5,0.1-0.4,0.5c0.1,3.8,4.1,6.8,7.7,6.1c3.3-0.5,5.7-3.4,5.7-6.8L414.2,28.1L414.2,28.1z"/>
			<path id="Path_00000059998243765629038720000014581126961876965296_" class="st3" d="M438.7,37c-0.6,0-1.3,0.1-1.8,0.1
				s-0.9-0.3-0.9-1v-5.3c0-0.3,0.1-0.4,0.4-0.4h2c0.3,0,0.4-0.1,0.4-0.4v-3c0-0.3-0.1-0.4-0.4-0.4h-2c-0.3,0-0.4-0.1-0.4-0.4V23
				c0-0.3-0.1-0.4-0.4-0.4h-3.3c-0.4,0-0.5,0.1-0.5,0.5v3c0,0.4-0.1,0.5-0.5,0.5h-0.8c-0.1,0-0.3,0-0.4,0.1S430,27,430,27.1v2.3
				c0,1.1,0,1.1,1,1.1c0.6,0,0.6,0,0.6,0.6c0,2,0,4.1,0,6.1c0,1.5,0.9,2.9,2.3,3.4s2.8,0.6,4.2,0.1c0.3,0,0.4-0.3,0.4-0.5L438.7,37
				L438.7,37z"/>
			<path id="Path_00000097495938052241407350000010455211560175019148_" class="st3" d="M468.5,40.9h-3.6c-0.6,0-0.6,0-0.6-0.6v-7.6
				c0-0.3,0-0.5,0-0.8c-0.3-1.3-0.9-1.8-2.2-1.8c-1.1-0.1-2,0.8-2.2,1.8c-0.1,0.4-0.1,0.8-0.1,1c0,2.5,0,4.9,0,7.5
				c0,0.4-0.1,0.5-0.5,0.5h-3.2c-0.4,0-0.5-0.1-0.5-0.4V27.1c0-0.3,0.1-0.4,0.4-0.4h3.2c0.4,0,0.5,0.1,0.5,0.5c0,0.1,0,0.1,0,0.3
				c0.1-0.1,0.3-0.1,0.4-0.3c1.5-1,3.4-1.3,5.1-0.5s2.8,2.3,3,4.1c0,0.3,0.1,0.5,0.1,0.9L468.5,40.9z"/>
			<path id="Shape_00000080194893558553743070000011133976234742978479_" class="st3" d="M419.9,35.1c0.1,0.6,0.5,1.3,1,1.8
				c1.1,0.9,2.7,1,3.9,0.1c0.1,0,0.3-0.1,0.4-0.1s0.1,0,0.3,0.1l3.4,1c-0.5,0.9-1.1,1.6-2,2.2c-3.6,2.4-10,1.1-11-4.9
				c-0.5-2.3,0.1-4.7,1.5-6.5s3.7-2.8,6-2.5c1.5,0.1,3,0.8,4.2,1.8c1.1,1.1,1.9,2.8,2,4.4c0,0.6,0,1.3,0,1.9s-0.1,0.6-0.8,0.6
				L419.9,35.1L419.9,35.1z M425.2,31.8c-0.1-1.1-1.3-1.9-2.7-1.9c-1.3,0-2.4,0.9-2.5,1.9H425.2z"/>
			<path id="Shape_00000032639717621057803630000014297699825850795420_" class="st3" d="M447,41.2c-4.2,0-7.4-3.2-7.4-7.6
				c-0.1-2.8,1.3-5.3,3.6-6.7c2.3-1.4,5.3-1.4,7.6,0c2.3,1.4,3.7,4.1,3.6,6.7c0.1,2-0.6,3.9-2,5.3C450.8,40.5,448.9,41.3,447,41.2z
				 M450.2,33.7c0-0.4-0.1-0.8-0.1-1.1c-0.3-1.4-1.4-2.4-2.8-2.5s-2.7,0.6-3.2,1.9c-0.4,0.9-0.4,1.9-0.3,2.8c0.3,1.1,1,2,2,2.4
				s2.3,0.1,3-0.6C449.8,35.8,450.2,34.8,450.2,33.7L450.2,33.7z"/>
			<path id="Path_00000013902763100172784760000016340763443743364278_" class="st3" d="M414.2,28.1v6.2c0,3.7-2.8,6.7-6.3,6.8
				c-3.7,0.1-6.7-2.5-7.1-6.2c0-0.4,0.1-0.5,0.4-0.5c1.4,0,2.8,0,4.2,0c0.3,0,0.4,0,0.4,0.3c0.1,0.9,1,1.5,2,1.4
				c0.9-0.1,1.5-1,1.5-1.9c0-4.2,0-8.4,0-12.6v-0.4c0-0.1,0-0.1,0.1-0.3s0.1-0.1,0.3-0.1h4.3c0.4,0,0.3,0.3,0.3,0.4L414.2,28.1
				L414.2,28.1z"/>
			<path id="Path_00000112610791414711478720000017691208024216916887_" class="st3" d="M438.7,37v3.2c0,0.3-0.1,0.4-0.4,0.5
				c-1.4,0.5-2.8,0.5-4.2-0.1c-1.4-0.5-2.3-1.9-2.3-3.4c-0.1-2,0-4.1,0-6.1c0-0.6,0-0.6-0.6-0.6c-1,0-1,0-1-1.1V27
				c0-0.4,0.1-0.5,0.4-0.4c0.3,0,0.5,0,0.8,0c0.4,0,0.5-0.1,0.5-0.5v-3c0-0.4,0.1-0.5,0.5-0.5h3.3c0.4,0,0.4,0.1,0.4,0.4v3.3
				c0,0.3,0.1,0.4,0.4,0.4h2c0.3,0,0.4,0.1,0.4,0.4v3.2c0,0.3-0.1,0.4-0.4,0.4h-2c-0.3,0-0.4,0.1-0.4,0.4v5.5c0,0.6,0.3,1,0.9,1
				C437.4,37.1,438,37.1,438.7,37L438.7,37z"/>
			
				<rect id="Rectangle_00000003789271461550062740000002654802263894219154_" x="475.3" y="17.3" class="st3" width="1.4" height="27.4"/>
		</g>
	</g>
	<g>
		<g>
			<g>
				<path class="st3" d="M127.5,39l-5.9-4.8c-0.2-0.2-0.7-0.2-1-0.1c-0.2,0.1-0.6,0.6-0.6,0.8v2.9h-1.7c-1.3,0-2.5-0.7-3.3-1.8
					l-6.3-10.2c-1.5-2.3-3.9-3.8-6.5-3.8h-5.7v3.9h5.6c1.3,0,2.5,0.7,3.3,1.8l6.3,10.2c1.5,2.3,3.9,3.8,6.5,3.8h1.6v2.9
					c0,0.5,0.2,0.7,0.6,0.8c0.1,0,0.2,0.1,0.5,0.1c0.2,0,0.5-0.1,0.6-0.2l5.9-4.8c0.2-0.1,0.2-0.5,0.2-0.7
					C127.6,39.3,127.6,39.1,127.5,39z"/>
			</g>
		</g>
		<g>
			<g>
				<path class="st3" d="M127.5,23.3l-5.9-4.8c-0.2-0.2-0.7-0.2-1-0.1c-0.2,0.1-0.6,0.6-0.6,0.8v2.9h-1.7c-2.7,0-5.2,1.5-6.5,3.8
					l-0.2,0.6l2.3,3.8l1.5-2.2c0.7-1.1,2.1-1.8,3.3-1.8h1.6v2.9c0,0.5,0.2,0.7,0.6,0.8c0.1,0,0.2,0.1,0.5,0.1c0.2,0,0.5-0.1,0.6-0.2
					l5.9-4.8c0.2-0.1,0.2-0.5,0.2-0.7C127.7,23.8,127.6,23.5,127.5,23.3z"/>
			</g>
		</g>
		<g>
			<g>
				<path class="st3" d="M106.8,33.9l-1.3,2.2c-0.7,1.1-2.1,1.8-3.3,1.8h-5.6v3.9h5.6c2.7,0,5.2-1.5,6.5-3.8l0.2-0.6L106.8,33.9z"/>
			</g>
		</g>
		<g>
			<path class="st3" d="M154,34.8c-0.8,0.7-2.1,1.3-2.9,1.8c0.7,1.3,1.7,2.2,3.1,2.9c-0.7,0.6-1.6,1.8-2.1,2.5c-1.7-1-3-2.4-3.9-4.1
				l0.2,2.4c-2.2,0.6-4.5,1-6.3,1.5l-0.5-1.5c-2.7,0.5-5.5,0.8-7.6,1.3l-0.6-2.9c0.8-0.1,2.1-0.2,3.1-0.5v-1l-2.1,0.6
				c0-1-0.5-2.5-0.7-3.8l2.1-0.6c0.2,1,0.6,2.2,0.7,3V33H134v-2.7h2.7v-1.1h-1.8v-0.7l0,0c-0.5-0.7-1.3-1.7-1.8-2.2
				c1.8-1.6,3.1-3.4,3.9-5.2h2.5c1.3,1,2.9,2.4,3.6,3.6v-2.9h10.2v10.2h-3.6c0.1,0.7,0.2,1.5,0.6,2.1c0.7-0.6,1.3-1.1,1.8-1.6
				L154,34.8z M140.4,26.7c-0.6-0.7-1.3-1.7-2.1-2.4c-0.6,0.7-1.1,1.6-1.8,2.4H140.4z M139.5,38.1l2.9-0.5v0.8l0.7-0.1V25.3
				l-1.3,1.6v2.5h-2.3v1.1h2.7v2.8h-2.7V37c0.2-1,0.6-2.3,0.6-3.3l2.3,0.6c-0.5,1.3-0.8,2.5-1.1,3.4l-1.8-0.6V38.1L139.5,38.1z
				 M145.9,24.8v1h4.1v-1H145.9z M150.1,29.5v-1H146v1H150.1z M145.9,37.9c0.7-0.1,1.5-0.2,2.2-0.5c-0.7-1.6-1.1-3.3-1.5-5.2h-0.7
				L145.9,37.9L145.9,37.9z"/>
			<path class="st3" d="M163.8,27.2c-0.6,1.1-1.5,2.3-2.3,3.3V42h-3.1v-7.9c-0.5,0.5-1,0.8-1.5,1.3c-0.5-0.7-1.6-2.2-2.2-2.7
				c2.2-1.6,4.6-4,6.1-6.5L163.8,27.2z M163,22.5c-1.7,2.2-4,4.5-6.3,6.1c-0.5-0.7-1.1-2.1-1.7-2.5c1.8-1.1,3.9-3.1,4.8-4.6
				L163,22.5z M175.6,31.6h-2.8v6.9c0,1.6-0.2,2.4-1.5,3c-1,0.5-2.5,0.6-4.2,0.6c-0.1-1-0.6-2.3-1-3.3c1,0,2.5,0,2.9,0
				c0.5,0,0.6-0.1,0.6-0.5v-6.9h-6.1v-3h12V31.6L175.6,31.6z M175.1,25.5h-10.7v-3h10.7V25.5z"/>
			<path class="st3" d="M182.6,36.5c0.8,1.3,2.3,1.8,4.5,2.1c2.7,0.1,7.6,0,10.8-0.2c-0.2,0.7-0.8,2.3-1,3.3c-2.7,0.1-7.1,0.1-9.9,0
				c-2.5-0.1-4.2-0.7-5.7-2.3c-0.8,0.7-1.8,1.6-3,2.5l-1.6-3.3c0.8-0.6,1.8-1.1,2.9-1.7v-4h-2.3V30h5.3V36.5L182.6,36.5z
				 M180.7,27.1c-0.6-1-2.2-2.4-3.4-3.4l2.3-1.8c1.3,0.8,2.9,2.3,3.6,3.3L180.7,27.1z M192.4,32.1c1,1.7,2.7,2.9,5.2,3.4
				c-0.7,0.6-1.6,1.8-2.1,2.7c-2.3-0.7-3.9-2.2-5-4c-1,1.5-2.5,2.9-5,4c-0.5-0.7-1.5-1.7-2.2-2.3c3-1,4.2-2.4,4.8-3.9h-4.7V29h5.2
				v-1.6h-4.2v-2.7h1.8c-0.2-0.8-0.8-1.7-1.5-2.5l2.7-1.1c0.7,1,1.6,2.3,1.8,3.3l-1,0.5h4.2l-1-0.2c0.6-1,1.3-2.3,1.7-3.3l3.3,1
				c-0.7,1-1.3,2.1-1.8,2.7h2.3v2.7h-5v1.6h5.7v2.9h-5.5V32.1L192.4,32.1z"/>
			<path class="st3" d="M216.2,35.7c-0.7,1-1.6,2.2-2.2,3h4.5v2.7h-18.5v-2.7h3.9c-0.5-1-1-2.2-1.6-3.1l1.6-0.7h-2.7v-2.8h6.3v-1.7
				h-3.8v-0.8c-1,0.7-2.1,1.3-3,1.8c-0.5-0.7-1.3-1.8-2.1-2.5c3.8-1.7,7.1-5.2,8.7-7.8h3.3c2.4,3.4,5.7,6.1,9.3,7.5
				c-0.7,0.8-1.6,1.8-2.2,2.9c-1-0.6-2.2-1.3-3.1-2.1v1h-3.9v1.7h6.3v2.7h-3L216.2,35.7z M205,35c0.7,1,1.5,2.2,1.7,3l-1.6,0.7h2.2
				V35H205z M212.4,27.8c-1.3-1.1-2.5-2.3-3.3-3.4c-0.8,1.1-1.8,2.3-3.3,3.4H212.4z M210.7,35v3.8h1.6l-1.1-0.5
				c0.6-0.8,1.3-2.2,1.8-3.3C213,35,210.7,35,210.7,35z"/>
		</g>
	</g>
</g>
</svg>
