<svg id="e5G46sFgipO1" xmlns="http://www.w3.org/2000/svg" xmlns:xlink="http://www.w3.org/1999/xlink" viewBox="150 0 900 300" shape-rendering="geometricPrecision" text-rendering="geometricPrecision"><style><![CDATA[#e5G46sFgipO234_ts {animation: e5G46sFgipO234_ts__ts 4000ms linear infinite normal forwards}@keyframes e5G46sFgipO234_ts__ts { 0% {transform: translate(370.100037px,144.099991px) scale(-0.02711,-0.02711)} 22.5% {transform: translate(370.100037px,144.099991px) scale(-0.02711,-0.02711);animation-timing-function: cubic-bezier(0.42,0,0.58,1)} 35% {transform: translate(370.100037px,144.099991px) scale(1,1);animation-timing-function: cubic-bezier(0.42,0,0.58,1)} 47.5% {transform: translate(370.100037px,144.099991px) scale(-0.02711,-0.02711)} 62% {transform: translate(370.100037px,144.099991px) scale(-0.02711,-0.02711);animation-timing-function: cubic-bezier(0.42,0,0.58,1)} 79.5% {transform: translate(370.100037px,144.099991px) scale(1,1);animation-timing-function: cubic-bezier(0.42,0,0.58,1)} 97% {transform: translate(370.100037px,144.099991px) scale(-0.02711,-0.02711)} 100% {transform: translate(370.100037px,144.099991px) scale(-0.02711,-0.02711)}} #e5G46sFgipO234 {animation: e5G46sFgipO234_c_o 4000ms linear infinite normal forwards}@keyframes e5G46sFgipO234_c_o { 0% {opacity: 0} 22.5% {opacity: 0;animation-timing-function: cubic-bezier(0.42,0,0.58,1)} 32.5% {opacity: 1;animation-timing-function: cubic-bezier(0.42,0,0.58,1)} 42.5% {opacity: 0} 59.5% {opacity: 0;animation-timing-function: cubic-bezier(0.42,0,0.58,1)} 77% {opacity: 1;animation-timing-function: cubic-bezier(0.42,0,0.58,1)} 92% {opacity: 0} 100% {opacity: 0}} #e5G46sFgipO235_ts {animation: e5G46sFgipO235_ts__ts 4000ms linear infinite normal forwards}@keyframes e5G46sFgipO235_ts__ts { 0% {transform: translate(660.899963px,70.400002px) scale(1,1)} 2.5% {transform: translate(660.899963px,70.400002px) scale(1,1);animation-timing-function: cubic-bezier(0.42,0,0.58,1)} 20% {transform: translate(660.899963px,70.400002px) scale(-0.02711,-0.02711)} 37% {transform: translate(660.899963px,70.400002px) scale(-0.02711,-0.02711);animation-timing-function: cubic-bezier(0.42,0,0.58,1)} 54.5% {transform: translate(660.899963px,70.400002px) scale(1,1);animation-timing-function: cubic-bezier(0.42,0,0.58,1)} 72% {transform: translate(660.899963px,70.400002px) scale(-0.02711,-0.02711)} 100% {transform: translate(660.899963px,70.400002px) scale(-0.02711,-0.02711)}} #e5G46sFgipO235 {animation: e5G46sFgipO235_c_o 4000ms linear infinite normal forwards}@keyframes e5G46sFgipO235_c_o { 0% {opacity: 1;animation-timing-function: cubic-bezier(0.42,0,0.58,1)} 15% {opacity: 0} 34.5% {opacity: 0;animation-timing-function: cubic-bezier(0.42,0,0.58,1)} 52% {opacity: 1;animation-timing-function: cubic-bezier(0.42,0,0.58,1)} 67% {opacity: 0} 100% {opacity: 0}} #e5G46sFgipO236_ts {animation: e5G46sFgipO236_ts__ts 4000ms linear infinite normal forwards}@keyframes e5G46sFgipO236_ts__ts { 0% {transform: translate(779.199951px,156.399994px) scale(-0.02711,-0.02711)} 10% {transform: translate(779.199951px,156.399994px) scale(-0.02711,-0.02711);animation-timing-function: cubic-bezier(0.42,0,0.58,1)} 27.5% {transform: translate(779.199951px,156.399994px) scale(1,1);animation-timing-function: cubic-bezier(0.42,0,0.58,1)} 45% {transform: translate(779.199951px,156.399994px) scale(-0.02711,-0.02711)} 62% {transform: translate(779.199951px,156.399994px) scale(-0.02711,-0.02711);animation-timing-function: cubic-bezier(0.42,0,0.58,1)} 79.5% {transform: translate(779.199951px,156.399994px) scale(1,1);animation-timing-function: cubic-bezier(0.42,0,0.58,1)} 97% {transform: translate(779.199951px,156.399994px) scale(-0.02711,-0.02711)} 100% {transform: translate(779.199951px,156.399994px) scale(-0.02711,-0.02711)}} #e5G46sFgipO236 {animation: e5G46sFgipO236_c_o 4000ms linear infinite normal forwards}@keyframes e5G46sFgipO236_c_o { 0% {opacity: 0} 10% {opacity: 0;animation-timing-function: cubic-bezier(0.42,0,0.58,1)} 25% {opacity: 1;animation-timing-function: cubic-bezier(0.42,0,0.58,1)} 40% {opacity: 0} 59.5% {opacity: 0;animation-timing-function: cubic-bezier(0.42,0,0.58,1)} 77% {opacity: 1;animation-timing-function: cubic-bezier(0.42,0,0.58,1)} 92% {opacity: 0} 100% {opacity: 0}} #e5G46sFgipO237_ts {animation: e5G46sFgipO237_ts__ts 4000ms linear infinite normal forwards}@keyframes e5G46sFgipO237_ts__ts { 0% {transform: translate(171.149994px,60.700005px) scale(-0.02711,-0.02711)} 10% {transform: translate(171.149994px,60.700005px) scale(-0.02711,-0.02711);animation-timing-function: cubic-bezier(0.42,0,0.58,1)} 27.5% {transform: translate(171.149994px,60.700005px) scale(1,1);animation-timing-function: cubic-bezier(0.42,0,0.58,1)} 45% {transform: translate(171.149994px,60.700005px) scale(-0.02711,-0.02711)} 62% {transform: translate(171.149994px,60.700005px) scale(-0.02711,-0.02711);animation-timing-function: cubic-bezier(0.42,0,0.58,1)} 79.5% {transform: translate(171.149994px,60.700005px) scale(1,1);animation-timing-function: cubic-bezier(0.42,0,0.58,1)} 97% {transform: translate(171.149994px,60.700005px) scale(-0.02711,-0.02711)} 100% {transform: translate(171.149994px,60.700005px) scale(-0.02711,-0.02711)}} #e5G46sFgipO237 {animation: e5G46sFgipO237_c_o 4000ms linear infinite normal forwards}@keyframes e5G46sFgipO237_c_o { 0% {opacity: 0} 10% {opacity: 0;animation-timing-function: cubic-bezier(0.42,0,0.58,1)} 25% {opacity: 1;animation-timing-function: cubic-bezier(0.42,0,0.58,1)} 40% {opacity: 0} 59.5% {opacity: 0;animation-timing-function: cubic-bezier(0.42,0,0.58,1)} 77% {opacity: 1;animation-timing-function: cubic-bezier(0.42,0,0.58,1)} 92% {opacity: 0} 100% {opacity: 0}} #e5G46sFgipO238_ts {animation: e5G46sFgipO238_ts__ts 4000ms linear infinite normal forwards}@keyframes e5G46sFgipO238_ts__ts { 0% {transform: translate(206.349991px,107.400002px) scale(1,1)} 7.5% {transform: translate(206.349991px,107.400002px) scale(1,1);animation-timing-function: cubic-bezier(0.42,0,0.58,1)} 25% {transform: translate(206.349991px,107.400002px) scale(-0.02711,-0.02711)} 42% {transform: translate(206.349991px,107.400002px) scale(-0.02711,-0.02711);animation-timing-function: cubic-bezier(0.42,0,0.58,1)} 59.5% {transform: translate(206.349991px,107.400002px) scale(1,1);animation-timing-function: cubic-bezier(0.42,0,0.58,1)} 77% {transform: translate(206.349991px,107.400002px) scale(-0.02711,-0.02711)} 100% {transform: translate(206.349991px,107.400002px) scale(-0.02711,-0.02711)}} #e5G46sFgipO238 {animation: e5G46sFgipO238_c_o 4000ms linear infinite normal forwards}@keyframes e5G46sFgipO238_c_o { 0% {opacity: 1} 5% {opacity: 1;animation-timing-function: cubic-bezier(0.42,0,0.58,1)} 20% {opacity: 0} 39.5% {opacity: 0;animation-timing-function: cubic-bezier(0.42,0,0.58,1)} 57% {opacity: 1;animation-timing-function: cubic-bezier(0.42,0,0.58,1)} 72% {opacity: 0} 100% {opacity: 0}}]]></style><defs><path id="e5G46sFgipO11" d="M534.9,79.6c-6.6-6.1-13.4-8.1-19-6.4l-1.1.3c-7.2-5.7-14.6-7.5-20.8-5.6l-26.3,7.8c.1,0,.1,0,.2-.1c0,0-.1,0-.1,0-.4.1-.7.2-1.1.4-.1,0-.2.1-.3.1-.5.1-.9.2-1.3.3l-26.3,7.8c.1,0,.1,0,.2-.1c0,0-.1,0-.1,0-.4.1-.7.2-1.1.4-.1,0-.3.1-.4.1-.2.1-.5.2-.7.3-.3.1-.6.1-.8.2L424,88.7c-1.3.4-2.3.7-3.2.9l-6.7,2c-1.2-.9-2.5-1.6-4-2-4.3-1-8.6.7-11.1,4c0,0,0,0,0,0-.1.1-.1.2-.2.3-.1.2-.3.4-.4.6-.1.1-.1.2-.2.3-.1.2-.2.4-.3.6s-.1.3-.2.5-.1.3-.2.5c-.1.3-.2.7-.3,1-.5,2.1-.4,4.2.3,6-.9,1.7-1.7,3.5-2.4,5.5l-5.1,1.5c0,0-.1,0-.1,0-.2.1-.4.1-.6.2s-.3.1-.5.2-.4.2-.5.2c-.2.1-.3.1-.5.2s-.4.2-.5.3c-.2.1-.3.2-.5.3s-.3.2-.5.3-.3.2-.5.3-.3.3-.5.4-.3.2-.5.4c-.2.1-.3.3-.5.4-.1.1-.3.3-.4.4-.2.2-.3.3-.5.5-.1.1-.3.3-.4.4-.2.2-.3.3-.4.5s-.3.3-.4.5-.3.4-.4.6-.2.3-.4.5c-.1.2-.3.4-.4.6s-.2.4-.3.5c-.1.2-.3.5-.4.7s-.2.4-.3.6-.2.5-.4.7c-.1.2-.2.4-.3.6-.1.3-.2.5-.3.8-.1.2-.2.4-.3.6-.1.3-.2.6-.3.9-.1.2-.1.4-.2.6-.1.3-.2.7-.3,1.1-.1.2-.1.3-.2.5-.2.5-.3,1.1-.4,1.7-.9,4-1.3,8.3-1.1,12.8l-5,1.5c.1,0,.3-.1.4-.1-2.6.5-4.6,2.9-5.6,6.8-1.7,7.3,1.3,17.2,6.8,22.3c2.7,2.5,5.4,3.3,7.8,2.6c0,0,0,0-.1,0l5-1.5c2.4,4.1,5.3,7.7,8.5,10.7.4.4.8.8,1.2,1.1.1.1.3.2.4.3.3.2.6.5.8.7.2.1.3.2.5.4.3.2.5.4.8.5.2.1.4.2.5.3.2.2.5.3.7.5.2.1.4.2.5.3.2.1.5.3.7.4s.4.2.6.3.5.2.7.3.4.2.6.2c.2.1.4.2.7.3.2.1.4.1.6.2s.4.2.7.2c.2.1.4.1.6.2s.4.1.6.2c.2,0,.4.1.6.1s.4.1.6.1.4.1.6.1.4.1.6.1.4,0,.6,0s.4,0,.6,0s.4,0,.5,0c.2,0,.4,0,.6,0s.4,0,.5,0c.2,0,.4,0,.6-.1.2,0,.4-.1.5-.1.2,0,.4-.1.6-.1s.3-.1.5-.1c.1,0,.3-.1.4-.1l3.9-1.1c.7-.2,1.5-.4,2.2-.7l2-.6c6,3.5,11.8,4.4,17,2.8-.1,0-.1,0-.2.1l26.3-7.8c.7-.2,1.3-.5,2-.7.4-.1.7-.2,1.1-.3-.1,0-.1,0-.2.1l26.3-7.8c.5-.1.9-.3,1.4-.5c0,0,.1,0,.1,0c.1,0,.2,0,.3-.1.4-.1.7-.2,1.1-.3-.1,0-.1,0-.2.1l26.3-7.8c5.1-1.5,9.5-5.4,12.5-11.5l4-1.2c5.9-1.7,10.6-7.4,12.7-16.6c4.1-17.7-3.4-42.4-16.7-54.8Zm-37.5,91.6c0,0,.1,0,0,0c0,0-.2.1-.3.1.1,0,.2,0,.3-.1Zm1.4-.6c-.1.1-.2.1-.3.2.1-.1.2-.1.3-.2Zm1.1-.6c0,0,.1,0,.1-.1-.1.1-.2.1-.3.2.1,0,.1-.1.2-.1Zm-31.4,9.8c0,0,0,0,0,0s-.2.1-.3.1c.1,0,.2-.1.3-.1Zm1.3-.6c-.1.1-.2.1-.3.1.1,0,.2-.1.3-.1Zm1.2-.7c0,0,.1,0,.1-.1-.1.1-.2.1-.3.2c0,0,.1,0,.2-.1ZM439.9,83.9c.2,0,.4-.1.6-.1c0,0-.1,0-.1,0-.2.1-.4.1-.5.1Zm28.9-8.5c.2,0,.4-.1.6-.1c0,0-.1,0-.1,0-.2,0-.4,0-.5.1Zm20.7,6.8c.5.4,1,.9,1.5,1.4-.4-.5-1-.9-1.5-1.4Zm-34.3,4.7c0,0,0,0,0,0-.2-.1-.5-.3-.7-.4.2.1.5.3.7.4Zm-1.4-.7c-.3-.1-.6-.3-.8-.4.2.1.5.2.8.4Zm-1.6-.8c-.3-.1-.5-.2-.8-.3.3.1.6.2.8.3Zm-1.5-.6c-.3-.1-.5-.2-.8-.3.3.1.5.2.8.3Zm-27,9.7c.3.1.6.3.8.4-.2-.1-.5-.3-.8-.4Zm1.6.8c.3.2.6.3.8.5-.3-.2-.5-.4-.8-.5Zm85.8,58.1c-.1.2-.1.4-.2.7.1-.3.1-.5.2-.7Zm-.6,1.9c-.1.3-.2.5-.3.8.1-.3.2-.5.3-.8Zm-30.9-79c-.3-.1-.5-.2-.8-.3.3.1.6.2.8.3Zm9.4,5.5c-.3-.3-.7-.6-1-.8.3.2.7.5,1,.8Zm-1.6-1.3c-.3-.2-.6-.5-.9-.7.3.3.6.5.9.7Zm-1.6-1.1c-.3-.2-.6-.4-.9-.6.3.2.6.4.9.6Zm-1.6-.9c-.3-.2-.6-.3-.9-.5.4.1.7.3.9.5Zm-1.5-.9c-.3-.1-.6-.3-.8-.4.2.1.5.3.8.4Zm-1.5-.7c-.3-.1-.5-.2-.8-.3.2,0,.5.2.8.3Zm-6.8-1.8c.3,0,.5.1.8.1-.3-.1-.6-.1-.8-.1Zm1.5.2c.3,0,.5.1.8.2-.3-.1-.6-.2-.8-.2Zm1.4.3c.3.1.5.1.8.2-.2-.1-.5-.2-.8-.2Zm-7.2-.5c.2,0,.5-.1.7-.1-.2.1-.4.1-.7.1Zm-20.9,9.2c-.3-.1-.5-.2-.8-.2.3.1.5.2.8.2Zm-3.7-.7c.3,0,.5.1.8.1-.3,0-.6-.1-.8-.1Zm1.4.2c.3,0,.5.1.8.2-.3-.1-.5-.1-.8-.2Zm-5.7-.1c.2,0,.5-.1.7-.1-.2,0-.4,0-.7.1Zm-22.7,9c-.3-.1-.5-.1-.8-.2.3.1.6.2.8.2Zm4.6,1.5c-.3-.1-.5-.2-.8-.4.2.1.5.3.8.4Zm-1.6-.6c-.3-.1-.5-.2-.8-.3.3.1.6.2.8.3Zm-1.5-.5c-.3-.1-.5-.2-.8-.2.3,0,.6.1.8.2Zm-46.1,48.1c.2,0,.4.1.5.1-.1-.1-.3-.1-.5-.1Zm1,.2c.2.1.4.1.6.2-.2-.1-.4-.1-.6-.2Zm-1.9,2.3c-.1.1-.2.1-.3.2.1-.1.2-.1.3-.2Zm-.7.5c-.1.1-.2.2-.3.2.1-.1.2-.1.3-.2Zm-2.2,3.5c0-.1.1-.2.1-.3c0,.1,0,.2-.1.3Zm.4-1c.1-.1.1-.2.2-.4-.1.2-.1.3-.2.4Zm.4-.9c.1-.1.1-.2.2-.3c0,.1-.1.2-.2.3Zm.6-.7c.1-.1.2-.2.3-.3-.2.1-.3.2-.3.3Zm4.8,23.1c-.3-.2-.6-.5-.8-.7.3.3.5.5.8.7Zm4.2,1.7c-.1,0-.3,0-.4,0c.1,0,.2,0,.4,0Zm-.8-.1c-.1,0-.3-.1-.5-.1.2,0,.3.1.5.1Zm-.8-.2c-.2-.1-.3-.1-.5-.2.1.1.3.2.5.2Zm-.9-.3c-.2-.1-.3-.2-.5-.3.2.1.4.2.5.3Zm-.8-.5c-.2-.1-.4-.3-.6-.4.2.2.4.3.6.4Zm95.1,8.9c-.1.1-.2.1-.3.2.1-.1.2-.1.3-.2Zm1-.8c0,0,.1-.1.1-.1-.1.1-.2.1-.3.2.1,0,.2-.1.2-.1Zm6.1-7.8c-.1.2-.3.5-.4.7.1-.2.3-.4.4-.7Zm-.8,1.6c-.1.2-.3.4-.4.7.1-.3.2-.5.4-.7Zm-1,1.4c-.1.2-.3.4-.4.6.1-.2.3-.4.4-.6Zm-.9,1.3c-.2.2-.3.4-.5.6.2-.2.3-.4.5-.6Zm-1,1.2c-.2.2-.3.4-.5.5.1-.1.3-.3.5-.5Zm-1.1,1.2c0,0,0,0,0,0s0,0,0,0s0,0,0,0Zm26.6-6.6c-.1.1-.2.1-.3.2.1-.1.2-.2.3-.2Zm1.1-.9c0,0,.1-.1.1-.1-.1.1-.2.1-.3.2.1,0,.1,0,.2-.1Zm7.5-11.1c-.1.3-.2.5-.3.7.1-.2.2-.5.3-.7Zm-.7,1.7c-.1.3-.2.5-.4.7.2-.2.3-.4.4-.7Zm-.8,1.7c-.1.2-.3.5-.4.7.2-.3.3-.5.4-.7Zm-.8,1.5c-.1.2-.3.4-.4.7.1-.2.2-.5.4-.7Zm-.9,1.4c-.1.2-.3.4-.4.6.1-.1.2-.3.4-.6Zm-1,1.4c-.2.2-.3.4-.5.6.2-.2.3-.4.5-.6Zm-1,1.2c-.2.2-.3.4-.5.5.1-.1.3-.3.5-.5Zm-1.1,1.1c0,0,0,.1,0,0c0,.1,0,.1,0,0c0,0,0,0,0,0ZM473.7,75c-.3,0-.5,0-.8,0c.3,0,.6,0,.8,0Zm-2.2,0c.2,0,.5,0,.7,0-.2,0-.4,0-.7,0Zm-26.7,8.6c-.2,0-.5,0-.7,0c.2-.1.4-.1.7,0Zm-2.2-.1c.2,0,.5,0,.7,0-.2,0-.4,0-.7,0Zm-25.6,9c-.3,0-.5-.1-.8-.1.3,0,.6,0,.8.1Zm-1.4-.2c-.2,0-.5,0-.7,0c0,0,0,0,0,0c.2,0,.5,0,.7,0ZM376.3,142c-.1-.1-.3-.2-.4-.2.1.1.3.1.4.2c0,0,0,0,0,0Zm-2.8-.9c-.2,0-.3,0-.5,0c.1,0,.3,0,.5,0Zm-1,0c-.2,0-.3,0-.5,0c.2,0,.4,0,.5,0Zm-.6,2.7c-.1,0-.3.1-.4.2.2-.1.3-.1.4-.2Zm-.7.3c-.1.1-.2.1-.4.2.1,0,.3-.1.4-.2Zm-.7.4c-.1.1-.2.2-.3.3.1-.1.2-.2.3-.3Zm-.6.6c-.1.1-.2.2-.3.4.1-.2.2-.3.3-.4Zm-1.1,1.4c-.1.2-.2.3-.3.5.1-.2.2-.4.3-.5Zm.5-.8c-.1.1-.2.3-.3.4.1-.1.2-.3.3-.4Zm-1.3,2.6c-.1.3-.2.7-.3,1.1c0-.4.1-.7.3-1.1Zm.3-1c-.1.2-.2.4-.3.7.2-.2.2-.4.3-.7Zm7.1,22.3c-.1-.1-.2-.1-.3-.2c0,.1.1.2.3.2Zm-1-.5c-.1-.1-.2-.1-.3-.2.2,0,.3.1.3.2Zm1.5.8c.1.1.2.1.4.1-.2,0-.3,0-.4-.1Zm.8.3c.1,0,.2.1.4.1-.2,0-.3,0-.4-.1Zm.8.2c.1,0,.2,0,.4,0-.1.1-.3.1-.4,0Zm.8.1c.1,0,.2,0,.4,0-.1,0-.3,0-.4,0Zm1.1-.1c-.1,0-.2.1-.3.1.1,0,.2-.1.3-.1Zm2.1,2.1c-.1.1-.3.1-.4.2.1-.1.2-.2.4-.2Zm.8-.5c-.1.1-.2.2-.4.2.1-.1.2-.1.4-.2Zm.4-.3c.1-.1.2-.2.3-.3-.1.1-.2.2-.3.3Zm1.6-2c-.1.1-.2.3-.3.4.1-.2.2-.3.3-.4Zm-.6.9c-.1.1-.2.2-.3.3.1-.1.2-.2.3-.3Zm55.7,17.9c-.2.1-.4.2-.6.2.1,0,.4-.1.6-.2Zm3.7-2.1c-.2.1-.4.3-.6.4.2-.1.4-.2.6-.4Zm-1.2.8c-.2.1-.4.2-.6.3.2,0,.4-.1.6-.3Zm-1.2.7c-.2.1-.4.2-.6.3.1-.1.4-.2.6-.3Zm4.2-2.9c.2-.2.4-.3.5-.5-.2.2-.4.3-.5.5Zm-1.2,1c.2-.1.4-.3.6-.4-.2.1-.4.2-.6.4Zm6.5-8.1c-.1.2-.3.5-.4.7.2-.3.3-.5.4-.7Zm-.8,1.5c-.1.2-.3.4-.4.7.1-.3.2-.5.4-.7Zm-.9,1.4c-.1.2-.3.4-.5.6.2-.1.3-.3.5-.6Zm-1,1.4c-.2.2-.3.4-.5.6.2-.2.3-.4.5-.6Zm-1,1.2c-.2.2-.3.4-.5.5.1-.1.3-.3.5-.5Zm27.8-7.4c.1-.1.2-.1.2-.2c0,.1-.1.2-.2.2Zm28.9-8.5c.1-.1.2-.1.2-.2c0,0-.1.1-.2.2Z"/><radialGradient id="e5G46sFgipO14-fill" cx="0" cy="0" r="95.387" spreadMethod="pad" gradientUnits="userSpaceOnUse" gradientTransform="matrix(1.8495 0 0 1.1148 0.027209 -0.017586)"><stop id="e5G46sFgipO14-fill-0" offset="0%" stop-color="#86d1f5"/><stop id="e5G46sFgipO14-fill-1" offset="89.24%" stop-color="rgba(134,209,245,0.1076)"/><stop id="e5G46sFgipO14-fill-2" offset="100%" stop-color="rgba(134,209,245,0)"/></radialGradient></defs><g transform="translate(63.352103 31.958699)"><g transform="translate(31.899979 33.800003)"><ellipse rx="176.4" ry="106.3" transform="translate(498.1 130.7)" opacity="0.58" fill="url(#e5G46sFgipO14-fill)"/><g><g><g><g><g><path d="M538.9,151.2l-18.1,5.3c5.9-1.7,10.6-7.4,12.7-16.6l18.1-5.3c-2.2,9.2-6.9,14.9-12.7,16.6Z" fill="#ffd519"/><path d="M497.7,78.6l18.1-5.3c5.7-1.7,12.5.3,19,6.4c13.4,12.4,20.8,37,16.7,55L533.4,140c4.2-18-3.3-42.6-16.7-55-6.5-6.1-13.3-8.1-19-6.4Z" fill="#ffdf4d"/><g><path d="M534.3,139.8c0,0,0,0,0,0l17.2-5.1c3.3-14.5-.8-33.2-9.5-46.4-.6.2-12.8,3.8-17.1,5.1c0,0-.1,0-.1.1c8.6,13.1,12.8,31.8,9.5,46.3Z" fill="#cfb442"/></g></g><g><ellipse rx="29" ry="50.1" transform="matrix(.9591-.2832 0.2832 0.9591 481.818957 123.712902)" fill="#ccc"/><path d="M510.2,152.7c2.5-10.9,1.7-24-2.2-37s-10.6-24.3-18.7-31.8c-4.7-4.3-9.5-7.1-14.3-8.3-1.3-.3-2.6-.5-3.9-.6-8.9.7-16.2,8-19.2,21-5.1,22.2,4.1,52.5,20.6,67.8c11.3,10.4,23,11.1,30.9,3.4c3.1-3.6,5.4-8.5,6.8-14.5Z" fill="#e6e6e6"/><path d="M522.3,164L496,171.8c7.2-2.1,13-9.1,15.6-20.4l26.3-7.8c-2.6,11.3-8.4,18.2-15.6,20.4Z" fill="#f7f7f7"/><path d="M467.6,75.7l26.3-7.8c7-2.1,15.4.4,23.5,7.9c16.5,15.3,25.7,45.6,20.6,67.8l-26.3,7.8c5.1-22.2-4.1-52.5-20.6-67.8-8.1-7.5-16.5-10-23.5-7.9Z" fill="#fff"/><g><path d="M483.2,71.7c-3,.9-3.7,1.3-4.1,1.7c1.9-.6,5.6-1.1,5.9-.4-.5.8-3.5,1.2-5.6,1.1c3.2,1.5,20.4,3.9,24.4-1-.2,0-.2,0-.4.3-.7.6-2.9,2.1-8.7,2.4-5.1.2-11.8-.6-14.7-1.5c5.1.7,17.5,2,23.5-1.1-3.1.2-6.8-.8-5.8-1.8.3-.4,1.5-.9,3.6-1.1-7.3-1.7-18.6,1.8-20.5,2.5c1.6-1,7.4-2.6,12.5-3.2c3-.4,5.6-.3,7.4.3.8.3.8.3,2.4.3-3.2-2-12.3-.7-19.9,1.5v0Z" fill="#ffed2e"/><path d="M499.1,70.8c-2.2.7-1.4,1.3-1,1.6c1,.6,4.7,1.3,5.8.7-.1.1-.1.1-.1.2.5.1,3.8-.6,2.9-1.8-.5-.6-2.2-1.2-5.1-1c.1.1.2.1.3.2-.3-.3-.9-.5-2.8.1v0Z" fill="#ffed2e"/><path d="M479.3,73.3c-.9.3-1.3.5-1.1.7c1.1.6,7.1-.3,6.8-1.1-.2-.5-3.4-.2-5.7.4v0Z" fill="#ffed2e"/><path d="M480.1,74.4c4.5,1.4,19.5,3.2,23.7-1.1-.1,0-.2,0-.5.1-2,1-5,1.6-9,1.8-4.5.2-10.3-.3-14.2-.8v0Z" fill="#e8d82a"/><path d="M503.9,73c-.1.1-.2.1-.4.2c0,0,.1,0,.1,0s0,0,.1,0c0,0,0,0,0,0s0,0,0,0c.1,0,.1-.1.2-.2v0Z" fill="#e8d82a"/><path d="M484.1,71.6c-1.7.5-2.6.9-3.3,1.3c2.3-.9,7.2-2.2,11.6-2.7c2.1-.3,3.9-.3,5.5-.3c1.2.1,2.3.5,3.6.5-4.8-2.4-16.1.9-17.4,1.2v0Z" fill="#fff99a"/><path d="M501.4,70.4c.2.1.4.1.6.2-.2-.1-.3-.2-.3-.2s0,0-.1,0c0,0,0,0-.1,0c0,0-.1,0-.1,0v0Z" fill="#fff99a"/><path d="M507,92.9c2.8,5.6,12.2,11.1,19.7,9.4-7.4,4.1-19.5-3.8-19.7-9.4v0Zm22.1,6.3c-2.3-7.1-12.8-10.8-20.1-9.1c6.8-3.6,20.7,1.6,20.1,9.1v0ZM510.7,89c-1.8.6-2.9,1.3-3.5,2.6c1.2.4.6.9.5.9-.2.1-.3.1-.8,0-1.6,3.2,8.8,13.6,18,10.9c5.8-1.7,6-8.5-1.5-12.6-3.9-2.2-9-2.9-12.7-1.8v0Z" fill="#7d38cc"/><path d="M507,92.9c.2,5.6,12.3,13.5,19.7,9.4-7.5,1.7-16.9-3.8-19.7-9.4v0Z" fill="#662ea7"/><path d="M510.6,89.4c-.8.2-1.2.4-1.6.6c7.2-1.7,17.8,2,20.1,9.1.6-6.1-10.5-12-18.5-9.7v0Z" fill="#a87add"/><path d="M502.6,89.1c-.1,0-.1.1-.2.1-.4,1.1-.4,1.1-.1,1.3s4.6,2.3,5.3,2c.4-.2.1-.7,0-.8c0,0,0,0,0,0-1.1-.4-1.8-.8-2.3-1-.8-.5-1.5-1.1-2.4-1.6-.1-.1-.3,0-.3,0v0Z" fill="#5c3f2f"/></g></g><g><path d="M493.3,172.5L467,180.3c7.2-2.1,13-9.1,15.6-20.4l26.3-7.8c-2.5,11.3-8.3,18.3-15.6,20.4Z" fill="#f7f7f7"/><path d="M438.7,84.2L465,76.4c7-2.1,15.4.4,23.5,7.9c16.5,15.3,25.7,45.6,20.6,67.8l-26.3,7.8c5.1-22.2-4.1-52.5-20.6-67.8-8.2-7.5-16.5-10-23.5-7.9Z" fill="#fff"/><g><ellipse rx="29" ry="50.1" transform="matrix(.9591-.2832 0.2832 0.9591 452.904454 132.20774)" fill="#ccc"/></g><g><path d="M488.6,111.7c7-2.5,9.6-8.6,6.4-15.7c7,7.7,2,17.5-6.5,17.3-2.4-.1-4.3-.9-5.2-1.3c2,.3,3.7.2,5.3-.3v0Zm-.1-16.5c-.1,0-.2,0-.2-.1-.5-.7-.5-.7-.7-.8-.7-.3-.7-.3-.7-.4c0,0-.1-.1,0-.2.6-.4.6-.4.6-.6s-.1-.4,0-.6c0-.1.2-.1.2-.1.9.5.9.5,1.2.5.8,0,.8,0,.8.1c0,.7,0,.7.1.9.1.1.3.3.4.5s0,.2,0,.2c-.9,0-.9,0-1,.1-.6.5-.6.5-.7.5v0ZM479.9,110c-8.7-7.7-9.4-18.3,1.9-19.1.1,0,.1,0,.2,0-9.1,2.4-7.8,11.6-2.1,19.1v0Zm-1.4-18.7c-11.8,4.1-2.4,17.8,5.2,21.3c9.5,4.3,17-3.7,14.2-12-2.6-7.7-12.5-11.3-19.4-9.3v0Z" fill="#ff7e2e"/><path d="M479,91.3c-10.1,3.5-4.2,14,1,18.6-5.8-7.5-7-16.7,2.1-19.1-1.7.1-2.8.4-3.1.5v0Z" fill="#ffb282"/><path d="M495,96.1c4.4,9.8-2.9,17.1-11.7,16c9.6,4.4,17.2-3.3,14.4-11.4-.8-2.5-2.3-4.1-2.7-4.6v0Z" fill="#e67229"/><path d="M489.5,93c0,0,0,0,0,0c0,.7,0,.7.1.9c0,0,0,0,0,0-.1-.1-.1-.2-.1-.3c0-.2,0-.4,0-.6.1.1,0,.1,0,0v0Zm-2-.5c0,.1-.1.1,0,0c0,.8,0,.8-.2.9-.6.4-.6.4-.4.5.9.4.9.4,1,.6.5.7.5.7.6.6.6-.4.6-.4.8-.4.7,0,.7,0,.7,0s.1-.1,0-.2c0,0,0,0,0,0s0,.1,0,.1c-.9,0-.9,0-1.1.1-.5.4-.5.4-.5.3-.5-.7-.5-.7-.7-.8-.8-.4-.8-.4-.7-.4.6-.4.6-.4.6-.6c0-.3-.1-.5-.1-.7c0,0,0,0,0,0v0Z" fill="#c96324"/><path d="M487.6,92.5c0,0,0,0,0,0c0,.8,0,.8-.2.9-.5.3-.5.3-.4.4.9.5.9.5,1.1.7.4.6.4.6.5.6.6-.4.6-.4.8-.4.8,0,.8,0,.7-.1l-.4-.5c-.1-.1-.2-.2-.2-.4c0-.6,0-.6-.1-.6-.9,0-.9,0-1.2-.1-.6-.5-.6-.5-.6-.5v0Z" fill="#11a300"/><path d="M478.1,81.5c0,0,0,0,0,0s0,0,0,0v0Zm.2-.2c0,.1-.1.1-.2.1.2,0,.2,0,.2-.1v0Zm0-.1c0,0,0,.1,0,0c0,.1,0,0,0,0v0Zm-17.1,5c0,0,0,0,0,0s0,0,0,0v0Zm-.1,0c0,0,0,0,0,0s0,0,0,0v0Zm-.4-.1c0,0,0,0,0,0s0,0,0,0v0Zm-.7-.2c0,0,0,0,0,0s0,0,0,0v0Zm-.2,0c0,0,0,0,0,0s0,0,0,0v0Zm13.5-4.4c.1.1.3.1.5.1c2.3-.1,2.5-.1,4.2-.1c0,0,.1,0,.1,0s-.1,0-.1,0c-4.6.1-4.6.1-4.7,0v0Zm-9.9,2.8c.1,0,.1,0,0,0c.1,0,.1,0,0,0v0Zm0,0c0,0,0,0,0,0s0,0,0,0v0Zm0,0c0,0,0,0,0,0s0,0,0,0v0Zm-.3-.1c.1,0,.1,0,.2.1c0-.1-.1-.1-.2-.1v0Zm0,0c0,0,0,0,0,0s0,0,0,0v0Zm0,0c0,0,0,0,0,0s0,0,0,0v0Zm-10-1.5c-.4.1-.3.2-.2.3c0,0,.1,0,.1,0-.2-.1-.1-.2-.1-.2.4-.2,1.4-.2,1.3,0c0,.1-.2.1-.3.2.4-.1.2-.2.2-.3-.1-.2-.6-.1-1,0v0Zm4.7,1.4c-1.6.4-7.8-1.6-7.4-2.4.3-.6,2.6-.9,2.8-.8c0,0,0,0,0,.1-.7.6-.3,1,3.3,2c1.6.5,1.6.5,1.8.6.1.1,0,.3-.5.5v0Zm16.4-4.9c-.5.1-.9.1-1.1.1c0,0-.1,0-.1,0-.5,0-.7-.2-.9-.3-.6-.4-1.9-1-4.1-1.2-1.5-.1-3.4,0-5.4.3-.7.1-1.2.1-1.4.1c0,0,0,0,0-.1.5-.3,4.7-1.2,8.3-1c3.1.2,5.2,1.4,5.2,1.7c0,.1-.1.3-.5.4v0Zm-20,.6c-5.4,1.6-6.3,2.2-4.9,2.9c1.5.8,9.5,2.9,10.4,3.2c0,0-.1,0-.1,0c1-.9,1.3-1.1,2.3-2-1.8-.7-3.9-.8-5.6-1.9-.5-.3-1.2-.8.1-1.5.1-.1,10.7-4.6,16.1.2c2.4-.1,3-.2,5.4-.3.1.2.2.3.4.8-2.8-7-14.9-3.8-19.5-2.7.1,0,.2,0,.3,0-.2.2-6.5,2.1-8.4,2.4.2-.1.9-.3,3.5-1.1c0,0,0,0,0,0v0Z" fill="#ffc619"/><path d="M461.8,83.8c-1,.9-1.3,1.1-2.3,2c.1,0,1.9.5,1.9.5s.3.1.5-.1c1.8-1.7,1.8-1.7,1.8-1.7.1-.1.1-.1-1.9-.7v0Z" fill="#ffec19"/><path d="M472.5,80.7c.3.3.5.6.8.8c0,0,.2.1.5.1c1.4,0,2.8-.1,4.2-.1.1,0,.1,0,.2,0s.2-.1.2-.2c-.1-.4-.3-.7-.4-.9-1.5.1-3.3.1-5.5.3v0v0Z" fill="#ffec19"/><path d="M456.7,83.8c-.6.2-1.3,0-1.2-.2.2-.3,1.4-.3,1.4,0c.1,0,0,.1-.2.2v0Zm-3.7-.9c-.2-.1-.1-.2-.1-.2.4-.2,1.4-.2,1.3,0c0,.1-.2.1-.3.2-.3.1-.7.1-.9,0v0Zm-.7-.8c-.6.2-1.2.1-1.1,0c.1-.2,1.4-.3,1.4-.2s-.1.2-.3.2v0Zm-.2-.7c-.6.2-1.2.2-1.1.1.1-.2,1.4-.4,1.4-.2c0,0-.2.1-.3.1v0Zm-1-.3c-.1,0-1.6.5-.3,1.2c1.1.6,5.3,1.7,5.5,1.8c1,.2,2.1-.1,2-.5c0-.1,0-.1-2.8-1-1.6-.5-2.1-.7-2.4-1-.1-.1-.2-.2-.2-.4s.2-.3.3-.5c-.2,0-1.5.3-2.1.4v0Z" fill="#ffec19"/><path d="M454.2,79.8c-1.6.5-2.6.8-3.5,1.1c0,0,.9-.1,1.7-.3.1,0,6.5-1.9,6.7-2c0,0,0,0,0,0-.1-.1-.3-.2-4.9,1.2v0Z" fill="#ffec19"/><path d="M473.5,78.8c-.6.2-1.3,0-1.2-.2.2-.3,1.4-.3,1.4,0c.1.1,0,.2-.2.2v0Zm-2.5-.9c-.6.2-1.2.1-1.2-.1.1-.2,1.4-.3,1.4-.1.1,0,0,.1-.2.2v0Zm-3.2-.4c-.6.2-1.2.1-1.1,0c.1-.2,1.4-.3,1.4-.2s-.1.2-.3.2v0Zm-3.6.3c-.6.2-1.2.2-1.1.1.1-.2,1.4-.4,1.4-.2c0,0-.1.1-.3.1v0Zm-2.5.2c-.4.1-.4.1-.5.2c0,0,0,0,0,.1.2.1.6,0,1.4-.1c2.1-.3,3.9-.5,5.4-.3c2.2.2,3.5.8,4.1,1.2.1.1.4.2.9.3.1,0,.2,0,.2,0c.8,0,1.6-.2,1.5-.5-.5-1.4-7.4-2.5-13-.9v0Z" fill="#ffec19"/></g></g><path d="M481.3,161.2c2.5-10.9,1.7-24-2.2-37s-10.6-24.3-18.7-31.8c-4.7-4.3-9.5-7.1-14.3-8.3-1.3-.3-2.6-.5-3.9-.6-8.9.7-16.2,8-19.2,21-5.1,22.2,4.1,52.5,20.6,67.8c11.3,10.4,23,11.1,30.9,3.4c3.1-3.6,5.4-8.5,6.8-14.5Z" fill="#e6e6e6"/><g><path d="M464.2,181.3l-26.3,7.8c7.2-2.1,13-9.1,15.6-20.4l26.3-7.8c-2.6,11.2-8.4,18.2-15.6,20.4Z" fill="#f7f7f7"/><path d="M409.5,93l26.3-7.8c7-2.1,15.4.4,23.5,7.9c16.5,15.3,25.7,45.6,20.6,67.8l-26.3,7.8c5.1-22.2-4.1-52.5-20.6-67.8-8.1-7.5-16.5-10-23.5-7.9Z" fill="#fff"/><path d="M409.5,93l26.3-7.8c7-2.1,15.4.4,23.5,7.9c16.5,15.3,25.7,45.6,20.6,67.8l-26.3,7.8c5.1-22.2-4.1-52.5-20.6-67.8-8.1-7.5-16.5-10-23.5-7.9Z" fill="#fff"/><g><ellipse rx="29" ry="50.1" transform="matrix(.9591-.2832 0.2832 0.9591 423.719082 141.009268)" fill="#e6e6e6"/></g><g><path d="M441.9,97.8c-.3.1-.5.2-.6.6-.3,1.1.5,2,.5,3.1c0,1.4-1.8,1.9-1.7,3.4c0,.8.7,1.4,2.3,2c2,.7,4.7.7,6.8-.2-1.3-2.1-.9-3.9,1-4.7-3.2-4.1-7.5-4.5-8.3-4.2v0Z" fill="#6fb353"/><path d="M449,95.7c-1,.3-2,2.1,1.7,6.2c2.3-.5,5,.5,6.5,2.4c4.5-.9,5.7-4.1,3.8-5.3-1.8-1.2-3.9-.7-5.8-1.3-1.6-.5-2.9-1.5-4.5-1.9-.4-.1-1.1-.2-1.7-.1v0Z" fill="#6fb353"/><path d="M455.6,109.8c1,1.4,1.6,2.9,2.5,4.3c1.5,2.6,2.6,4.4,3.8,5.9c2.1,2.4,3.6,2.6,4.7,2.7-.1-.6-.2-1.4-.3-2.1-.8-.1-2.4-.2-4-2-.6-.7-.6-.7-5-7.1-.4-.6-.7-1.3-1.1-1.9-.2.1-.4.2-.6.2v0Z" fill="#6fb353"/><path d="M448.7,107.5c-4.5,1.4-4.6,4.6-2.9,5.7c1.6,1,3.7.7,5.3,1.6c1.4.8,2.4,2.2,3.8,2.8.5.2.7.3,1,.3c1,0,2.1-1.8,1.4-4.5-.3-1.2-.9-2.4-1.7-3.6-2.1.4-4.5-.6-6.1-2.5-.3.1-.6.1-.8.2v0Z" fill="#6fb353"/><path d="M458.4,104.6c-.3.1-.5.2-.8.3c1.1,2,.5,3.9-1.4,4.7c2.3,4.7,6.8,7.8,7.8,5.4c0-.1.1-.2.1-.3.4-1.4-.3-2.9.4-4.3.5-.9,1.3-1.6,1.8-2.5.1-.3.4-.9.1-1.5-.8-1.5-4.1-2.9-8-1.8v0Z" fill="#6fb353"/><path d="M450.4,102c-3.5,1.1-2.2,5.2,1.3,7.1c3.9,2.1,7.2-.1,6.4-3.1-.9-3.1-5-4.8-7.7-4v0Z" fill="#6fb353"/><path d="M434.9,91.6c7.3-2.4,6.7-5,5.2-5.8-.4-.2-.9-.3-1.3-.3c4.5,0,5.7,1.9,4.2,3.7-.9,1.1-4,3.5-13.5,3.5c2.1-.3,3.9-.7,5.4-1.1v0Zm-2.6-4.7c-.1,0-.2,0-.2,0-.5,0-.5,0-.7.1-.8.1-.8.1-.8.1s0,0,0,0c.6-.2.6-.2.6-.2s0,0,0-.1c0,0,.2-.1.2-.1.9-.2.9-.2,1.2-.3.7-.2.7-.2.8-.2c0,0,0,.1,0,.1s0,0,.1,0s.3,0,.4,0s.1,0,.1,0s0,0-.1,0c-.9.2-.9.2-1,.3-.3.1-.5.2-.6.3v0Zm-6.9,5.6c-.8-.1-7.4-.7-8.1-1.4c0-.4.3-.5,8.5-2.9-6.1,1.8-7.3,2.2-6,2.9.7.3,2.8.8,5.6,1.4v0Zm-3-3.4c-4.5,1.3-5.1,1.5-5.4,1.9.5,1.1,12.3,2.1,16.9,1.6c8.2-.8,9.6-3.5,9.8-4.3.2-.7.5-3.1-5.7-2.8-3.7.1-9.7,1.9-15.6,3.6v0Z" fill="#ff7e2e"/><path d="M422.8,89c-4.6,1.4-5.4,1.6-5.5,2c.7.7,7.3,1.4,8.1,1.4-6.8-1.4-6.3-1.9-5.9-2.2.5-.4,2.7-1.1,6.3-2.1-1.3.4-2.9.9-3,.9v0Z" fill="#ffb282"/><path d="M438.8,85.5c4.1.8,1.8,3.3,0,4.4-2.1,1.3-5.3,2.2-9.4,2.7c12.2.1,15.5-4.1,13.7-6-.5-.5-1.6-1.1-4.3-1.1v0Z" fill="#e67229"/><path d="M433.2,86.3v0c0,.1,0,.1,0,0c0,.1.1.1.2.1c0,0,0,0,0,0-.1,0-.2,0-.2-.1c0,.1.1,0,0,0c0,0,0,0,0,0v0Zm-2,.5c-.1,0-.1,0,0,0-.1,0-.1,0,0,0c0,.1,0,.1-.2.1-.4.1-.4.1-.5.2c0,0,0,0,.1,0c.9-.2.9-.2,1-.2.5,0,.5,0,.6-.1.5-.2.5-.2.7-.3.7-.2.7-.2.8-.2c0,0,0,0,0,0s0,0,0,0s0,0-.1,0c-.9.2-.9.2-1,.3-.5.2-.5.2-.5.2-.5,0-.5,0-.8.1-.2,0-.5.1-.7.1c0,0,0,0,0,0c.6-.2.6-.2.6-.2s0,0,0,0s0,0,0,0v0Z" fill="#c96324"/><path d="M431.2,86.8c0,0,0,0,0,0s0,0,0,0c0,.1,0,.1-.2.1-.1,0-.3.1-.4.2c0,0,0,0,0,0c.9-.2.9-.2,1.1-.2.4,0,.4,0,.5,0c.5-.2.5-.2.8-.3.2-.1.5-.1.7-.2c0,0,0,0,0,0h-.4c-.2,0-.2,0-.2,0s0-.1,0-.1s0,0-.1,0c-.9.2-.9.2-1.1.3-.6.1-.6.1-.7.2v0Z" fill="#11a300"/></g></g><g><path d="M524.6,160.8c0,0,0,0,0,0s0,0,0,0v0Zm.3-.1c-.1.1-.2.1-.3.1.1,0,.2-.1.3-.1v0Zm.2-.1c0,0-.1,0,0,0-.1,0,0,0,0,0v0Zm-2.6.1c-.1.1-.1.1,0,.1c1.6,0,2,0,2,0s0,0-.1,0c-.5,0-1.8,0-2,0c.1,0,0,0,.1-.1v0Zm-8.7,2.3c0,.1-.1.2-.1.2.1-.1.1-.1.1-.2v0Zm0,0c0,0,0,0,0,0s0,0,0,0v0Zm9.9-3.3c-.4.4-.7.6-1.1.9.4-.3.7-.6,1.1-.9v0Zm-11.6,2.6c-.8.2-1,.3.7-2.7c2.2-3.9,6.8-9.2,7.2-7.4.1.2-.1.6-.2.8-.2.2-.3.4-.5.5-.9.8-2.4,2.2-3.8,4.3-.8,1.1-1.5,2.4-1.9,3.4-.1.2-.1.2-.2.3-.3.3-.9.7-1.3.8v0Zm15-4.4c-.6.2-.7,0-.5-.3.5-.9,1.2-1.5,1.7-2.4.2-.5.7-1.4.6-2.4c0-1.1-.7-1.6-.9-1.8-.4-.2-.2-.7,0-1c1.1-1.8,2.4-.6,2.8.9.6,2.4-1.8,6.4-3.7,7v0Zm-2.2-10.3c-9.2,2.9-15.1,14.7-15.4,17.2c0,0,0-.1,0-.1c4.5-2.2,4.5-2.2,4.6-2.3c2.3-5.3,5.6-7.6,7.3-8.5c3.8-2,6.5-1.1,5.4,1.8-.4,1.1-1.4,2.5-3,3.9c1.1.1,1.4.1,2.6.1-.5.3-.8.5-1.2.9c8.8-5.9,8.6-12.3,3.8-13.3-.1,0-.3,0-.4-.1c0,0-.3,1.1-1.1,1.4c0,0-.1,0-.1.1-1,.3-2,.2-2.9.5-1,.3-1.8.9-2.8,1.2-.1,0-.3.1-.5-.2-.6-1.1,1.7-2,3.7-2.6c0,0,0,0,0,0v0Z" fill="#ffc619"/><path d="M514,162.5c-2,1-2.4,1.2-4.5,2.2-.1.7-.1.7.3.5c3.8-1.8,3.8-1.8,3.9-1.9.1-.3.2-.5.3-.8v0Z" fill="#ffec19"/><path d="M523.8,159.6c-.6.6-1,.9-1.2,1s-.2.2-.1.2c0,0,0,0,0,0c2,0,2,0,2.1,0c.2-.1.3-.1.4-.2.6-.4,1-.7,1.3-.9-1.1,0-1.3-.1-2.5-.1v0Z" fill="#ffec19"/><path d="M512.4,161.7c-.4.1-.3-.2-.3-.2.2-.4,1-.8,1.1-.5c0,.2-.4.6-.8.7v0Zm1.2-2.3c-.4.1-.4-.1-.3-.3.3-.4,1-.7,1-.4.2.2-.3.6-.7.7v0Zm1.9-2.6c-.4.1-.4-.1-.3-.4.3-.5.9-.7,1-.4.1.2-.3.6-.7.8v0Zm2.4-2.6c-.4.1-.5-.2-.3-.5.3-.5.9-.7,1-.4s-.3.8-.7.9v0Zm1.4-2.3c-.8.3-3.1,2.7-4.6,4.7-1.2,1.7-3.6,5.6-3.2,5.8.3.2,1.4-.3,1.8-.9.1-.1.1-.2.2-.3.4-1,1.1-2.3,1.9-3.4c1.4-2.1,2.8-3.5,3.8-4.3.2-.2.3-.3.5-.5s.3-.6.2-.8c0-.3-.3-.4-.6-.3v0Z" fill="#ffec19"/><path d="M524.9,147.6c-2.3.7-3.9,1.8-3.9,1.8s-.1.7.2.9c.1.1.4,0,.5,0c1.1-.3,2-1,3.1-1.3.9-.2,1.8-.1,2.6-.4s1.1-1.3,1.1-1.4c-1.1-.1-2.2,0-3.6.4v0Z" fill="#ffec19"/><path d="M527.8,157.1c-.4.1-.3-.2-.3-.2.2-.4,1-.8,1.1-.5c0,.2-.4.6-.8.7v0Zm1.4-2.3c-.4.1-.4-.1-.3-.3.3-.4,1-.7,1-.4.2.2-.3.6-.7.7v0Zm.5-2.2c-.4.1-.4-.1-.3-.4.3-.5.9-.7,1-.4.1.2-.3.6-.7.8v0Zm-.7-1.7c-.4.1-.5-.2-.3-.5.3-.5.9-.7,1-.4s-.3.8-.7.9v0Zm0-1.8c-.7.2-1.2.9-1.3,1.2-.1.4,0,.5.2.6.4.3,1.3,1.1.8,2.9-.4,1.4-1.4,2.7-1.9,3.4-.2.2-.3.3-.3.5c0,.1,0,.1.1.2c0,0,1.3.5,3.2-2.7c1.2-2.1,1.2-3.5,1-4.3-.2-.7-.9-2.1-1.8-1.8v0Z" fill="#ffec19"/></g><g><path d="M492.1,158.1c-.2.1-.5.2-.9.5-.1.1-.2.2-.3.3-1.3,1.2-2,2.9-3.3,4.1-1.5,1.4-3.5,2.2-4.8,3.7-.7.8-.4,1.5.2,1.7c1.4.6,4.7-.6,4.8-.6c0,0,.1-.1.1-.1.6-1,2-2.4,3.7-3.4.6-.3,1.2-.5,1.7-.8.1-.1.1-.2.2-.3.7-1.4.9-2.9.5-3.9-.4-.9-1.2-1.4-1.9-1.2v0Z" fill="#6fb353"/><path d="M499.3,156c-1.5.5-4,3.6-5.5,7.3c2.1-.5,3,.5,2.2,2.1c4.4-1.1,9.6-4.5,7.7-5.6-.7-.4-1.5-.3-2.1-.7-.3-.2-.4-.4-.6-.9-.5-1.7-.7-2.5-1.7-2.2v0Z" fill="#6fb353"/><path d="M489.5,169.8c-.8,1.2-3.9,4-4,4-.8.7-.9.8-1,1c.1.1.3.1,1.4-.2.5-.2,1.1-.5,1.6-.6-.9.2-1.1.2-1.3.2c0-.1,0-.2.3-.5.7-.8,1.6-1.5,2.3-2.4.3-.5.7-.9.9-1.1.1-.1.2-.3.3-.3c0,0,.1-.1.1-.1h-.6v0Z" fill="#6fb353"/><path d="M486.7,168.5c-4.2,1.3-8.4,4.1-7.5,4.7.2.1.7.2,1.3.2.8,0,.9.1,1,.3.1.3-.2.8.2,1c.1,0,.4,0,.9-.1c1.2-.4,5.1-2.1,6.9-4.7-2,.5-2.7,0-2-1.5-.4,0-.7.1-.8.1v0Z" fill="#6fb353"/><path d="M496.6,165.6c-.5.1-.8.3-.8.3-.4.3-.6.8-1,1.1-1.4,1.3-3.3,2.2-4.5,2.6-.1,0-.1,0-.2.1c0,0-2.4,2.5-1.6,2.9.7.3,2.5-.6,3.5-1.2c1.2-.7,2.3-1.5,3.6-2.1c1.5-.8,3.1-1.4,4.6-2.4.3-.2,1.1-.8.8-1.3-.4-.7-2.1-.7-4.4,0v0Z" fill="#6fb353"/><path d="M493.5,163.4c-3.6,1.1-7.4,5.6-6,6.4c1.8,1.1,9.5-3.2,8.7-5.8-.2-.8-1.2-1-2.7-.6v0Z" fill="#6fb353"/></g><g><path d="M464.8,165.6c-2.4.8-4.4,2-6.6,4c1.9-.6,3.1.5,2.4,2.1-1,2.1-4.6,3.4-5.2,1.8c0-.1-.1-.2-.1-.4-2.3,3.5-4.8,9.2,3.7,7.2c1.3-.3,4-1.1,7.3-2.7-.1,0-.3.1-.4.2-4.5,2.1-9,3.1-10.9,2.5-2-.6-2-2.7-.1-6.3-1.5,5.9,2.3,7.1,11.2,3.6-1.7.1-1.3-1.1-.4-2.1c1.3-1.5,4-2.9,5.8-2.7c1.5-4.5-4.1-7.5-10.9-4.1-.2.1-.4.2-.6.3c7-5.5,13-2.4,12.5,1.5-.1,1-.6,1.8-1,2.3.4.1.5.2.6.3c3.4-3.8.6-8.4-4.9-8.1-.8.2-1.6.3-2.4.6v0Z" fill="#ffed2e"/><path d="M469.5,173.1c-3.1,1-5.6,3.8-4.4,4.4.5.3.9.1,1.5-.1-.1.1-.3.2-.4.2c3-.3,7.4-3.2,5.9-4.5-.2-.2-.5-.2-.6-.3-.1.1-.2.3-.3.4.1-.2.1-.3.2-.4-.2.1-.8,0-1.9.3v0Z" fill="#ffed2e"/><path d="M458.4,169.5c-2.3.7-4,3.7-2.5,4.5c1.6.9,5.4-1.5,4.9-3.6-.3-.8-1.2-1.2-2.4-.9v0Z" fill="#ffed2e"/><path d="M454.8,174c-3.1,5.9-.9,7.8,6.4,5.6c2.5-.8,4.4-1.7,5-2-1.1.1-2,.7-3.1,1-3.8,1.1-5.7,1-6.7.7-2.4-.7-2.2-3.2-1.6-5.3v0Z" fill="#e8d82a"/><path d="M466.6,177.4c-.2.1-.4.2-.6.2.1,0,.1,0,.1,0c.1,0,.3-.1.5-.2v0Z" fill="#e8d82a"/><path d="M464.7,166.6c-1.7.5-3.2,1.3-4.8,2.6c7.1-3.9,12.6-.6,11.5,3.4c0,.1-.1.3-.1.4c0,0,0,0,.1,0c2.7-3.5,0-7.2-4.9-6.7-.3-.1-1,0-1.8.3v0Z" fill="#fff99a"/></g><path d="M422.4,184.6c-4-1-7.9-3.2-11.7-6.8-13.6-12.6-21.2-37.8-17-56.1c1.7-7.4,5.1-12.8,9.8-15.7c3.6-2.2,7.7-2.8,12-1.7c4,1,7.9,3.2,11.7,6.8c13.6,12.6,21.2,37.8,17,56.1-1.7,7.4-5.1,12.8-9.8,15.7-3.5,2.1-7.7,2.7-12,1.7Z" fill="#e6e6e6"/><g><path d="M413,188.5c-5.7,1.7-12.5-.3-19-6.4-13.4-12.4-20.8-37-16.7-55c2.1-9.1,6.8-14.8,12.7-16.6l17.3-5.1c-5.9,1.7-10.6,7.4-12.7,16.6-4.2,18,3.3,42.6,16.7,55c6.6,6.1,13.4,8.1,19,6.4-5.2,1.5-12.1,3.6-17.3,5.1Z" fill="#ffd519"/><g><path d="M425.7,169.9c-3.9,16.7-17.1,20.9-29.5,9.4s-19.4-34.4-15.5-51.2c3.9-16.7,17.1-20.9,29.5-9.4s19.3,34.5,15.5,51.2Zm-7.6-7c2.6-11.1-2-26.3-10.3-34s-17-4.9-19.6,6.3c-2.6,11.1,2,26.3,10.3,34s17,4.8,19.6-6.3v0Z" fill="#a88210"/></g><g><path d="M425.7,172c-4.2,18-18.4,22.5-31.7,10.1s-20.8-37-16.7-55c4.2-18,18.4-22.5,31.7-10.1c13.4,12.3,20.9,37,16.7,55Zm-1.7-1.6c3.9-16.7-3.1-39.6-15.5-51.2-12.4-11.5-25.7-7.3-29.5,9.4-3.9,16.7,3.1,39.6,15.5,51.2c12.4,11.5,25.6,7.3,29.5-9.4v0Z" fill="#cca914"/></g><path d="M385,128.2l11-3.3c3.5-1,7.7.2,11.8,4c8.3,7.7,12.9,22.9,10.3,34l-11,3.3c2.6-11.1-2-26.3-10.3-34-4.1-3.8-8.3-5.1-11.8-4Z" fill="#ffd519"/><g><path d="M407.1,166.1c-2.6,11.1-11.3,13.9-19.6,6.3s-12.9-22.9-10.3-34s11.3-13.9,19.6-6.3c8.2,7.7,12.9,22.9,10.3,34Zm-5.2-4.7c1.7-7.3-1.3-17.2-6.8-22.3s-11.2-3.2-12.8,4.1c-1.7,7.3,1.3,17.2,6.8,22.3c5.4,5,11.1,3.1,12.8-4.1v0Z" fill="#c29612"/></g><path d="M382,169.7l-2.2.6c-1.9.6-4.2-.1-6.5-2.2-4.5-4.2-7.1-12.6-5.7-18.7.7-3.1,2.3-5,4.3-5.6l2.2-.6c-2,.6-3.6,2.5-4.3,5.6-1.4,6.1,1.1,14.5,5.7,18.7c2.2,2.1,4.5,2.8,6.5,2.2Z" fill="#ffd519"/><path d="M410.3,173.1l-11,3.3c3.6-1.1,6.5-4.6,7.8-10.2l11-3.3c-1.3,5.6-4.2,9.1-7.8,10.2Z" fill="#ffd519"/><path d="M430.3,183.4L413,188.5c5.9-1.7,10.6-7.4,12.7-16.6l17.3-5.1c-2.1,9.2-6.8,14.9-12.7,16.6Z" fill="#ffd519"/><g><ellipse rx="8" ry="13.8" transform="matrix(.9591-.2832 0.2832 0.9591 378.007173 156.425661)" fill="#a88210"/></g><path d="M371.2,141.3l16.3-4.8c2.3-.7,5,.1,7.7,2.6c5.4,5,8.4,15,6.8,22.3l-16.3,4.8c1.7-7.3-1.3-17.2-6.8-22.3-2.6-2.5-5.4-3.3-7.7-2.6Z" fill="#ffd519"/><path d="M396.8,168l-16.3,4.8c2.4-.7,4.3-3,5.1-6.7l16.3-4.8c-.8,3.8-2.7,6-5.1,6.7Z" fill="#ffd519"/><g><path d="M385.7,166.2c-1.7,7.3-7.4,9.1-12.8,4.1s-8.4-15-6.8-22.3c1.7-7.3,7.4-9.1,12.8-4.1s8.5,15,6.8,22.3Zm-1.6-1.5c1.4-6.1-1.1-14.5-5.7-18.7-4.5-4.2-9.4-2.7-10.8,3.4s1.1,14.5,5.7,18.7c4.6,4.3,9.4,2.7,10.8-3.4v0Z" fill="#cca914"/></g><path d="M390,110.5l17.3-5.1c5.7-1.7,12.5.3,19,6.4c13.4,12.4,20.8,37,16.7,55l-17.3,5.1c4.2-18-3.3-42.6-16.7-55-6.6-6.1-13.3-8.1-19-6.4Z" fill="#ffd519"/></g><g><path d="M476.2,140c.1-.2.2-.5.2-.7.7-2.9,0-5.6-1.7-6.3-.4-.2-1.8-.4-2.3,1-.5,1.5-.6,1.9-1.7,1.6-2.4-.7-3.3-.9-5-.4-1.8.6-2.8,1.6-3.3,3.6-.9-3.6-2.9-1.1-3-1.1-.4.7-.4,1.5-.4,1.7.1,1.3.8,2.4.9,3.7.1,1.2,0,2.5.1,3.7c0,.1,0,.2.1.3.1.5.4,1.7,2.1,1.4c2.6-.6,2.7-3,2.1-4.9-.4-1.1-1.3-3.6,1.2-2.9c3.5,1.2,4.6,1.7,7-.5-2.1,4.3-5.9,7.7-7,12.6-.2.9-1.8,8.8,2.7,7.4c1.2-.4,2-1.2,2.5-2.3c1-2.5-.1-5.3.8-7.8c1.1-3.7,3.6-6.5,4.7-10.1Z" fill="#ff4040"/><g><path d="M465.4,140.5c3,1.1,4.3,1.5,6.1.2.1-.1.6-.4.9-.7-.1,0-.3-.1-.4-.2-2.4,2.1-3.5,1.7-7,.5-2.5-.7-1.6,1.8-1.2,2.9.7,1.9.5,4.4-2.1,4.9-.4.1-.7.1-1,0c.3.2.7.3,1.4.2c2.6-.6,2.7-3,2.1-4.9-.3-1-1.3-3.5,1.2-2.9Z" fill="#992626"/></g><g><path d="M477.1,139.7c.1-.2.2-.5.2-.7.7-2.9,0-5.6-1.7-6.3-.3-.1-1.1-.3-1.7.2.4,0,.7.1.9.1c1.7.7,2.4,3.4,1.7,6.3-.1.2-.1.5-.2.7-1.1,3.5-3.6,6.4-4.8,9.9-.9,2.5.2,5.3-.8,7.8-.4,1-1.1,1.7-2,2.1.1,0,.2-.1.4-.1c1.2-.4,2-1.2,2.5-2.3c1-2.5-.1-5.3.8-7.8c1.1-3.5,3.6-6.3,4.7-9.9Z" fill="#992626"/></g><path d="M475.3,145.3c1-1.7,1.9-3.4,2.5-5.3.1-.2.2-.5.2-.8.8-3.3-.1-6.3-2.2-7.2-.1,0-.2-.1-.3-.1-.3-.1-1.2-.2-2,.3-.9.1-1.6.7-1.9,1.7v0c-.1.4-.3.9-.4,1.1-.1,0-.1,0-.3,0c0,0-.1,0-.1,0-.6-.2-1.1-.3-1.6-.4-1.4-.3-2.4-.4-3.9,0-1.5.5-2.4,1.2-3.1,2.3-.3-.4-.7-.6-1.1-.7-1.3-.3-2.4.9-2.6,1.2-.6.9-.5,1.9-.5,2.2.1.7.3,1.4.5,2s.4,1.1.4,1.7c0,.4,0,.8,0,1.3c0,.8,0,1.7.1,2.5c0,.1,0,.2.1.4.1.5.4,1.7,1.7,2c.4.1.8.1,1.3,0c1.2-.2,2-.9,2.5-1.8.6-1.1.7-2.6.1-4.2-.5-1.3-.5-1.8-.4-1.9.1,0,.2,0,.5.1c0,0,.1,0,.1,0c1.1.4,1.9.7,2.7.9.9.2,1.6.3,2.3.1-.4.7-.9,1.3-1.3,1.9-1.7,2.5-3.5,5.1-4.2,8.3-.4,1.8-1.4,7.7,1.8,8.4c0,0,0,0,0,0c.6.1,1.2.1,1.9-.2.2-.1.3-.1.5-.2.1,0,.2-.1.3-.1c1.4-.5,2.4-1.5,3-2.8.6-1.5.5-2.9.5-4.3c0-1.2-.1-2.4.3-3.5.9-1.9,1.7-3.4,2.6-4.9Zm-3.8,12.1c-.5,1.1-1.3,2-2.5,2.3-.1,0-.2.1-.4.1v0c-.2.1-.3.1-.5.2-4.5,1.5-2.9-6.4-2.7-7.4c1-4.9,4.8-8.3,7-12.6-2.4,2.1-3.5,1.7-7,.5-2.5-.7-1.6,1.8-1.2,2.9.7,1.9.5,4.4-2.1,4.9-1.6.4-1.9-.9-2.1-1.4c0-.1,0-.2-.1-.3-.2-1.2-.1-2.5-.1-3.7-.1-1.3-.8-2.4-.9-3.7c0-.3-.1-1,.4-1.7c0,0,2.1-2.5,3,1.1.6-2,1.5-3,3.3-3.6c1.7-.5,2.7-.2,5,.4c1.2.3,1.3,0,1.7-1.6.3-.9.9-1.1,1.5-1.2c0,0,0,0,0,0c.6-.5,1.5-.3,1.7-.2c1.7.7,2.4,3.4,1.7,6.3-.1.2-.1.5-.2.7-1.1,3.5-3.6,6.4-4.8,9.9-.8,2.9.3,5.6-.7,8.1Z" fill="#fad100"/></g><g><path d="M505.3,131.5c.1-.2.2-.5.2-.7.7-2.9,0-5.6-1.7-6.3-.4-.2-1.8-.4-2.3,1-.5,1.5-.6,1.9-1.7,1.6-2.4-.7-3.3-.9-5-.4-1.8.6-2.8,1.6-3.3,3.6-.9-3.6-2.9-1.1-3-1.1-.4.7-.4,1.5-.4,1.7.1,1.3.8,2.4.9,3.7.1,1.2,0,2.5.1,3.7c0,.1,0,.2.1.3.1.5.4,1.7,2.1,1.4c2.6-.6,2.7-3,2.1-4.9-.4-1.1-1.3-3.6,1.2-2.9c3.5,1.2,4.6,1.7,7-.5-2.1,4.3-5.9,7.7-7,12.6-.2.9-1.8,8.8,2.7,7.4c1.2-.4,2-1.2,2.5-2.3c1-2.5-.1-5.3.8-7.8c1.1-3.7,3.6-6.6,4.7-10.1Z" fill="#ff4040"/><g><path d="M494.5,132c3,1.1,4.3,1.5,6.1.2.1-.1.6-.4.9-.7-.1,0-.3-.1-.4-.2-2.4,2.1-3.5,1.7-7,.5-2.5-.7-1.6,1.8-1.2,2.9.7,1.9.5,4.4-2.1,4.9-.4.1-.7.1-1,0c.3.2.7.3,1.4.2c2.6-.6,2.7-3,2.1-4.9-.4-1-1.3-3.6,1.2-2.9Z" fill="#992626"/></g><g><path d="M506.2,131.2c.1-.2.2-.5.2-.7.7-2.9,0-5.6-1.7-6.3-.3-.1-1.1-.3-1.7.2.4,0,.7.1.9.1c1.7.7,2.4,3.4,1.7,6.3-.1.2-.1.5-.2.7-1.1,3.5-3.6,6.4-4.8,9.9-.9,2.5.2,5.3-.8,7.8-.4,1-1.1,1.7-2,2.1.1,0,.2-.1.4-.1c1.2-.4,2-1.2,2.5-2.3c1-2.5-.1-5.3.8-7.8c1.1-3.5,3.6-6.4,4.7-9.9Z" fill="#992626"/></g><path d="M504.4,136.7c1-1.7,1.9-3.4,2.5-5.3.1-.2.2-.5.2-.8.8-3.3-.1-6.3-2.2-7.2-.1,0-.2-.1-.3-.1-.3-.1-1.2-.2-2,.3-.9.1-1.6.7-1.9,1.7v0c-.1.4-.3.9-.4,1.1-.1,0-.1,0-.3,0c0,0-.1,0-.1,0-.6-.2-1.1-.3-1.6-.4-1.4-.3-2.4-.4-3.9,0-1.5.5-2.4,1.2-3.1,2.3-.3-.4-.7-.6-1.1-.7-1.3-.3-2.4.9-2.6,1.2-.6.9-.5,1.9-.5,2.2.1.7.3,1.4.5,2s.4,1.1.4,1.7c0,.4,0,.8,0,1.3c0,.8,0,1.7.1,2.5c0,.1,0,.2.1.4.1.5.4,1.7,1.7,2c.4.1.8.1,1.3,0c1.2-.2,2-.9,2.5-1.8.6-1.1.7-2.6.1-4.2-.5-1.3-.5-1.8-.4-1.9.1,0,.2,0,.5.1c0,0,.1,0,.1,0c1.1.4,1.9.7,2.7.9.9.2,1.6.3,2.3.1-.4.7-.9,1.3-1.3,1.9-1.7,2.5-3.5,5.1-4.2,8.3-.4,1.8-1.4,7.7,1.8,8.4c0,0,0,0,0,0c.6.1,1.2.1,1.9-.2.2-.1.3-.1.5-.2.1,0,.2-.1.3-.1c1.4-.5,2.4-1.5,3-2.8.6-1.5.5-2.9.5-4.3c0-1.2-.1-2.4.3-3.5.9-1.8,1.7-3.3,2.6-4.9Zm-3.8,12.2c-.5,1.1-1.3,2-2.5,2.3-.1,0-.2.1-.4.1v0c-.2.1-.3.1-.5.2-4.5,1.5-2.9-6.4-2.7-7.4c1-4.9,4.8-8.3,7-12.6-2.4,2.1-3.5,1.7-7,.5-2.5-.7-1.6,1.8-1.2,2.9.7,1.9.5,4.4-2.1,4.9-1.6.4-1.9-.9-2.1-1.4c0-.1,0-.2-.1-.3-.2-1.2-.1-2.5-.1-3.7-.1-1.3-.8-2.4-.9-3.7c0-.3-.1-1,.4-1.7c0,0,2.1-2.5,3,1.1.6-2,1.5-3,3.3-3.6c1.7-.5,2.7-.2,5,.4c1.2.3,1.3,0,1.7-1.6.3-.9.9-1.1,1.5-1.2c0,0,0,0,0,0c.6-.5,1.5-.3,1.7-.2c1.7.7,2.4,3.4,1.7,6.3-.1.2-.1.5-.2.7-1.1,3.5-3.6,6.4-4.8,9.9-.8,2.9.3,5.6-.7,8.1Z" fill="#fad100"/></g><g><path d="M532.7,123.2c.1-.2.2-.5.2-.7.7-2.9,0-5.6-1.7-6.3-.4-.2-1.8-.4-2.3,1-.5,1.5-.6,1.9-1.7,1.6-2.4-.7-3.3-.9-5-.4-1.8.6-2.8,1.6-3.3,3.6-.9-3.6-2.9-1.1-3-1.1-.4.7-.4,1.5-.4,1.7.1,1.3.8,2.4.9,3.7.1,1.2,0,2.5.1,3.7c0,.1,0,.2.1.3.1.5.4,1.7,2.1,1.4c2.6-.6,2.7-3,2.1-4.9-.4-1.1-1.3-3.6,1.2-2.9c3.5,1.2,4.6,1.7,7-.5-2.1,4.3-5.9,7.7-7,12.6-.2.9-1.8,8.8,2.7,7.4c1.2-.4,2-1.2,2.5-2.3c1-2.5-.1-5.3.8-7.8c1.1-3.6,3.6-6.5,4.7-10.1Z" fill="#ff4040"/><g><path d="M521.9,123.8c3,1.1,4.3,1.5,6.1.2.1-.1.6-.4.9-.7-.1,0-.3-.1-.4-.2-2.4,2.1-3.5,1.7-7,.5-2.5-.7-1.6,1.8-1.2,2.9.7,1.9.5,4.4-2.1,4.9-.4.1-.7.1-1,0c.3.2.7.3,1.4.2c2.6-.6,2.7-3,2.1-4.9-.4-1.1-1.3-3.6,1.2-2.9Z" fill="#992626"/></g><g><path d="M533.5,122.9c.1-.2.2-.5.2-.7.7-2.9,0-5.6-1.7-6.3-.3-.1-1.1-.3-1.7.2.4,0,.7.1.9.1c1.7.7,2.4,3.4,1.7,6.3-.1.2-.1.5-.2.7-1.1,3.5-3.6,6.4-4.8,9.9-.9,2.5.2,5.3-.8,7.8-.4,1-1.1,1.7-2,2.1.1,0,.2-.1.4-.1c1.2-.4,2-1.2,2.5-2.3c1-2.5-.1-5.3.8-7.8c1.1-3.4,3.6-6.3,4.7-9.9Z" fill="#992626"/></g><path d="M531.8,128.5c1-1.7,1.9-3.4,2.5-5.3.1-.2.2-.5.2-.8.8-3.3-.1-6.3-2.2-7.2-.1,0-.2-.1-.3-.1-.3-.1-1.2-.2-2,.3-.9.1-1.6.7-1.9,1.7v0c-.1.4-.3.9-.4,1.1-.1,0-.1,0-.3,0c0,0-.1,0-.1,0-.6-.2-1.1-.3-1.6-.4-1.4-.3-2.4-.4-3.9,0-1.5.5-2.4,1.2-3.1,2.3-.3-.4-.7-.6-1.1-.7-1.3-.3-2.4.9-2.6,1.2-.6.9-.5,1.9-.5,2.2.1.7.3,1.4.5,2s.4,1.1.4,1.7c0,.4,0,.8,0,1.3c0,.8,0,1.7.1,2.5c0,.1,0,.2.1.4.1.5.4,1.7,1.7,2c.4.1.8.1,1.3,0c1.2-.2,2-.9,2.5-1.8.6-1.1.7-2.6.1-4.2-.5-1.3-.5-1.8-.4-1.9.1,0,.2,0,.5.1c0,0,.1,0,.1,0c1.1.4,1.9.7,2.7.9.9.2,1.6.3,2.3.1-.4.7-.9,1.3-1.3,1.9-1.7,2.5-3.5,5.1-4.2,8.3-.4,1.8-1.4,7.7,1.8,8.4c0,0,0,0,0,0c.6.1,1.2.1,1.9-.2.2-.1.3-.1.5-.2.1,0,.2-.1.3-.1c1.4-.5,2.4-1.5,3-2.8.6-1.5.5-2.9.5-4.3c0-1.2-.1-2.4.3-3.5.8-1.9,1.7-3.4,2.6-4.9Zm-3.9,12.1c-.5,1.1-1.3,2-2.5,2.3-.1,0-.2.1-.4.1v0c-.2.1-.3.1-.5.2-4.5,1.5-2.9-6.4-2.7-7.4c1-4.9,4.8-8.3,7-12.6-2.4,2.1-3.5,1.7-7,.5-2.5-.7-1.6,1.8-1.2,2.9.7,1.9.5,4.4-2.1,4.9-1.6.4-1.9-.9-2.1-1.4c0-.1,0-.2-.1-.3-.2-1.2-.1-2.5-.1-3.7-.1-1.3-.8-2.4-.9-3.7c0-.3-.1-1,.4-1.7c0,0,2.1-2.5,3,1.1.6-2,1.5-3,3.3-3.6c1.7-.5,2.7-.2,5,.4c1.2.3,1.3,0,1.7-1.6.3-.9.9-1.1,1.5-1.2c0,0,0,0,0,0c.6-.5,1.5-.3,1.7-.2c1.7.7,2.4,3.4,1.7,6.3-.1.2-.1.5-.2.7-1.1,3.5-3.6,6.4-4.8,9.9-.8,2.9.3,5.6-.7,8.1Z" fill="#fad100"/></g><g><path d="M425.7,171.9c.1,0,.1,0,0,0l17.2-5.1c3.3-14.5-.8-33.2-9.5-46.4-.6.2-12.8,3.8-17.1,5.1c0,0-.1,0-.1.1c8.7,13.2,12.8,31.9,9.5,46.3Z" fill="#fef270"/><path d="M407.2,166.1l10.9-3.2c2.1-8.9-.5-20.5-5.9-28.7-2.8.8-8.3,2.5-10.9,3.2c0,0-.1,0-.1.1c0,0,0,0,0,0c.7,1,1.3,2.1,1.9,3.2c0,0,0,.1,0,.1.1.3.3.5.4.8c0,0,0,0,0,0c.5,1.1,1,2.2,1.5,3.4c0,.1,0,.1.1.2.1.3.2.5.3.8c0,.1,0,.1.1.2.3.8.6,1.7.8,2.5c0,.1,0,.1.1.2.1.2.1.5.2.7c0,.1.1.2.1.3.1.2.1.5.2.7c0,.1.1.2.1.4.1.2.1.5.2.7c0,.1,0,.1,0,.2.1.5.2.9.3,1.4c0,.1.1.3.1.4c0,.2.1.4.1.6s0,.3.1.5c0,.2,0,.4.1.6c0,.2,0,.3.1.5c0,.2,0,.4.1.5c0,.3,0,.5.1.8c0,.2,0,.4,0,.6s0,.4,0,.6s0,.3,0,.5s0,.4,0,.6s0,.3,0,.5s0,.4,0,.6c0,.1,0,.3,0,.4c0,.3,0,.6,0,1c0,.1,0,.2,0,.3c0,.2,0,.5-.1.7c0,.1,0,.3,0,.4c0,.2,0,.4-.1.6c0,.1,0,.3-.1.4c0,.2-.1.4-.1.6c0,.1,0,.2-.1.4-.5.1-.5.4-.5.7-.1,0-.1,0,0,0-.1,0,0,0,0,0Z" fill="#fef270"/><path d="M401.9,161.4c1.4-5.8-.3-13.4-3.8-18.8-4,1.2-12.2,3.6-16.1,4.8c0,0-.1,0-.1.1.4.7.8,1.4,1.2,2.1c0,0,0,0,0,0c.1.2.2.4.3.5c0,0,0,0,0,0c.4.7.7,1.5,1,2.2c0,0,0,.1,0,.1.1.2.1.3.2.5c0,0,0,.1,0,.1.2.5.4,1.1.5,1.7c0,0,0,.1,0,.1c0,.2.1.3.1.5c0,.1,0,.1.1.2c0,.2.1.3.1.5c0,.1,0,.1,0,.2c0,.2.1.3.1.5c0,0,0,0,0,0c.1.3.1.7.2,1c0,.1,0,.2,0,.3s0,.3.1.4c0,.1,0,.2,0,.3s0,.3,0,.4s0,.2,0,.3s0,.2,0,.4c0,.1,0,.3,0,.4c0,.2,0,.4,0,.5s0,.2,0,.4c0,.1,0,.2,0,.3s0,.2,0,.4c0,.1,0,.2,0,.3s0,.3,0,.4s0,.2,0,.3c0,.2,0,.4,0,.6c0,.1,0,.2,0,.3s0,.3,0,.4s0,.2,0,.3s0,.2,0,.4c0,.1,0,.2,0,.3s0,.3-.1.4c0,.1,0,.2,0,.3c0,.2-.1.4-.1.6c0,0,.1,0,.1,0l16.2-5Z" fill="#fef270"/></g><path d="M388.1,147c-1.9-.5-3.6-1.7-4.2-3-.3-.7-.3-1.4.1-1.9.5-.7,1.6-1,2.8-.9.3,0,.5.1.8.1c1.9.5,3.6,1.7,4.2,3c.3.7.3,1.4-.1,1.9-.5.7-1.6,1-2.8.9-.2.1-.5,0-.8-.1Z" fill="#c29612"/><g><path d="M405,110.5c-1.9-.2-4-1.5-4.5-2.8l-15.9,35.8c.6,1.4,2.6,2.6,4.5,2.8c1.3.1,2.2-.2,2.5-.9c1-2.2,14.9-33.5,15.9-35.8-.3.7-1.2,1-2.5.9Z" fill="#ffd519"/><g><path d="M386.6,145.5c-.9-.5-1.7-1.3-2-2c.6-1.3,12-26.9,15.9-35.8.3.8,1.5.9,2.6,1.4-5.4,11.9-10.7,24.7-16.5,36.4v0Z" fill="#cfb442"/></g><path d="M400.4,106.5c-.4.9-15.9,35.7-15.9,35.8-.1.3-.1.7.1,1.2l15.9-35.8c-.2-.5-.2-.9-.1-1.2Z" fill="#ffd519"/><path d="M405.8,110.5c-3.9,8.9-13,29.2-15.9,35.8.9,0,1.5-.4,1.7-.9c1-2.2,14.9-33.5,15.9-35.8-.2.5-.8.9-1.7.9Z" fill="#cfb442"/><g><ellipse rx="2.1" ry="3.9" transform="matrix(.4066-.9136 0.9136 0.4066 403.575733 108.944866)" fill="#ffd519"/></g><ellipse rx="10.7" ry="10.7" transform="matrix(.7071-.7071 0.7071 0.7071 407.586213 99.971129)" fill="#ff4229"/><ellipse rx="4.8" ry="4.8" transform="matrix(.1639-.9865 0.9865 0.1639 411.689526 98.957555)" fill="#f0896d"/><path d="M406.9,109.7c-6.3-1.5-10.1-7.8-8.6-14.1.2-.7.4-1.4.7-2-.8,1.1-1.4,2.4-1.8,3.8-1.4,5.7,2.1,11.5,7.8,12.9c2.2.5,4.5.3,6.5-.4-1.5.3-3.1.2-4.6-.2Z" fill="#b32e1d"/></g></g></g><g><g clip-path="url(#e5G46sFgipO170)"><g><path d="M473.2,177c.1-.1.2-.1.3-.2c0,0-.1.1-.1.1-.1,0-.2.1-.2.1Z" fill="none"/><path d="M470.8,178.7c.1-.1.2-.1.3-.2c0,0-.1,0-.1.1-.1,0-.2,0-.2.1Z" fill="none"/><path d="M468.2,179.9c.1,0,.2-.1.4-.1c0,0-.1,0-.1,0-.1,0-.2.1-.3.1Z" fill="none"/><path d="M474.6,175.8c0,0,0,0,0,0s0,0,0,0s0,0,0,0Z" fill="none"/><path d="M552.3,130.7l3.8-10.1-5.7-13.4c2.1,7.8,2.9,16.1,1.9,23.5Z" fill="#d1d1d1"/><path d="M503.5,167.3c0,0,0-.1,0,0c0-.1,0-.1,0,0c0,0,0,0,0,0Z" fill="#d1d1d1"/><path d="M497.1,171.3c.1,0,.2-.1.4-.1c0,0-.1,0-.1,0-.1.1-.2.1-.3.1Z" fill="#d1d1d1"/><path d="M499.7,170.1c.1-.1.2-.1.3-.2c0,0-.1,0-.1.1-.1,0-.1.1-.2.1Z" fill="#d1d1d1"/><path d="M502.1,168.5c.1-.1.2-.1.3-.2c0,0-.1.1-.1.1-.1,0-.1,0-.2.1Z" fill="#d1d1d1"/><path d="M543.1,90l7.2,17.2c-1.6-6.1-4-12-7.2-17.2Z" fill="none"/><path d="M552.3,130.7l-5.7,15.1c2.2-2.8,3.9-6.5,5-11.1.3-1.3.5-2.7.7-4Z" fill="none"/><path d="M550.4,107.2L543.1,90c-2.4-4-5.2-7.5-8.3-10.4-6.6-6.1-13.4-8.1-19-6.4l-1.1.3c-7.2-5.7-14.6-7.5-20.8-5.6L471,74.7c1,.4,2,.8,3.2,1.3c40,14.3,36.9,77.5,22.6,95.6l25.5-7.5c5.1-1.5,9.5-5.4,12.5-11.5l4-1.2c2.9-.9,5.6-2.7,7.7-5.5l5.7-15.1c1.1-7.5.3-15.8-1.8-23.6Z" opacity="0.56" fill="#aaa"/></g><clipPath id="e5G46sFgipO170"><use width="187.19632" height="122.293144" xlink:href="#e5G46sFgipO11"/></clipPath></g></g><g><g><g><path d="M582.2,155.3l-65,10.4c-2.5.4-4.8-1.3-5.2-3.7L496.4,64.5c-.4-2.5,1.3-4.8,3.7-5.2l65-10.4c2.5-.4,4.8,1.3,5.2,3.7l15.6,97.5c.4,2.5-1.2,4.8-3.7,5.2Z" fill="#eaeaea"/></g><g><path d="M525.2,70.7c-3-1.3-5,1.7-5.4,2.3-.6-.5-3.4-2.7-5.9-.5-2.7,2.4,1.2,6.6,4.4,9.1c2,1.6,3.5,4.2,3.5,4.2s.3-2.2,2-5.1c2.2-3.5,4.8-8.5,1.4-10Z" fill="#ff5e4d"/></g><g><path d="M507.5,76.5c-1.3-.6-2.2.7-2.3,1-.3-.2-1.5-1.2-2.5-.2-1.2,1,.5,2.8,1.9,3.9.9.7,1.5,1.8,1.5,1.8s.1-1,.9-2.2c.8-1.5,1.9-3.7.5-4.3Z" fill="#ff5e4d"/></g><g><path d="M575.7,139.4c1.3.6,2.2-.7,2.3-1c.3.2,1.5,1.2,2.5.2c1.2-1-.5-2.8-1.9-3.9-.9-.7-1.5-1.8-1.5-1.8s-.1,1-.9,2.2c-.8,1.5-1.9,3.7-.5,4.3Z" fill="#ff5e4d"/></g><g><path d="M558.6,65.4c-3-1.3-5,1.7-5.4,2.3-.6-.5-3.4-2.7-5.9-.5-2.7,2.4,1.2,6.6,4.4,9.1c2,1.6,3.5,4.2,3.5,4.2s.3-2.2,2-5.1c2.1-3.5,4.7-8.6,1.4-10Z" fill="#ff5e4d"/></g><g><path d="M559.9,146c3,1.3,5-1.7,5.4-2.3.6.5,3.4,2.7,5.9.5c2.7-2.4-1.2-6.6-4.4-9.1-2-1.6-3.5-4.2-3.5-4.2s-.3,2.2-2,5.1c-2.1,3.6-4.7,8.6-1.4,10Z" fill="#ff5e4d"/></g><g><path d="M526.6,151.4c3,1.3,5-1.7,5.4-2.3.6.5,3.4,2.7,5.9.5c2.7-2.4-1.2-6.6-4.4-9.1-2-1.6-3.5-4.2-3.5-4.2s-.3,2.2-2,5.1c-2.2,3.5-4.8,8.6-1.4,10Z" fill="#ff5e4d"/></g><g><path d="M545.9,99.4c-3-1.3-5,1.7-5.4,2.3-.6-.5-3.4-2.7-5.9-.5-2.7,2.4,1.2,6.6,4.4,9.1c2,1.6,3.5,4.2,3.5,4.2s.3-2.2,2-5.1c2.1-3.5,4.7-8.5,1.4-10Z" fill="#ff5e4d"/></g><g><g><path d="M502.8,73.6l.6-.5c.1.1.2.1.2.2.1.1.2.1.3.2.2.1.4.1.6.1.2-.1.4-.4.5-.9s.1-1.1-.1-1.7c-.1-.6-.3-1.1-.6-1.5-.1-.1-.2-.3-.3-.4c0,0-.1-.1-.2-.1h-.1-.1l-.1-.1-.1-.1c-.1-.1-.1-.1-.2-.2-.1-.2-.1-.3,0-.5.1-.1.2-.3.3-.6.3-.6.5-1.1.5-1.4c0-.5-.1-1-.3-1.3-.1-.1-.1-.2-.2-.3c0,0-.1-.1-.1-.1s0,0-.1,0c-.1-.1-.2-.1-.3,0s-.3.2-.4.5-.2.6-.1.8l-.8.1c0-.4,0-.8.2-1.2.2-.5.5-.8.8-.9s.7-.1,1.1.1c.1.1.2.1.3.2s.2.3.3.4c.2.4.4,1,.4,1.6c0,.3-.1.6-.2.9-.1.2-.2.5-.4.8l-.1.2-.1.2v0v0l.1.1.1.1c.1.1.1.1.2.1.2.1.3.3.4.4.3.4.6,1,.7,1.8.2.7.2,1.4,0,2-.1.7-.4,1.2-.9,1.4-.1.1-.2.1-.4.1-.2.2-.8,0-1.4-.5Z" fill="#ff5e4d"/></g></g><g><g><path d="M580.4,140.9l-.6.5c-.1-.1-.2-.1-.2-.2-.1-.1-.2-.1-.3-.2-.2-.1-.4-.1-.6-.1-.2.1-.4.4-.5.9s-.1,1.1.1,1.7c.1.6.3,1.1.6,1.5.1.1.2.3.3.4c0,0,.1.1.2.1h.1.1l.1.1.1.1c.1.1.1.1.2.2.1.2.1.3,0,.5-.1.1-.2.3-.3.6-.3.6-.5,1.1-.5,1.4c0,.5.1,1,.3,1.3.1.1.1.2.2.3c0,0,.1.1.1.1s0,0,.1,0c.1.1.2.1.3,0s.3-.2.4-.5.2-.6.1-.8l.8-.1c0,.4,0,.8-.2,1.2-.2.5-.5.8-.8.9s-.7.1-1.1-.1c-.1-.1-.2-.1-.3-.2s-.2-.3-.3-.4c-.2-.4-.4-1-.4-1.6c0-.3.1-.6.2-.9.1-.2.2-.5.4-.8l.1-.2.1-.2v0v0l-.1-.1-.1-.1c-.1-.1-.1-.1-.2-.1-.2-.1-.3-.3-.4-.4-.3-.4-.6-1-.7-1.8-.2-.7-.2-1.4,0-2c.1-.7.4-1.2.9-1.4.1-.1.2-.1.4-.1.3-.1.8.1,1.4.5Z" fill="#ff5e4d"/></g></g></g><g><g><path d="M577.6,181.4L515,163.5c-2.4-.7-3.8-3.2-3.1-5.6L539,63c.7-2.4,3.2-3.8,5.6-3.1l62.6,17.9c2.4.7,3.8,3.2,3.1,5.6l-27.1,94.9c-.7,2.4-3.2,3.8-5.6,3.1Z" fill="#f2f2f2"/></g><g><path d="M570,120.4c0,0-3.7.3-5.8,1.4-2.6,1.4-4.3,4.1-4.3,4.1s-.4-4.1-1.6-6.1c-1.2-2.1-4-3.9-4-3.9s3,0,5.4-1.4c1.3-.8,4.6-4.1,4.6-4.1s.4,3.8,1.5,5.9c1.4,2.2,4.2,4.1,4.2,4.1Z" fill="#3b2b5b"/></g><g><path d="M544.3,82c0,0-1.4.1-2.2.6-1,.6-1.7,1.6-1.7,1.6s-.1-1.6-.6-2.4-1.6-1.5-1.6-1.5s1.2,0,2.1-.6c.5-.3,1.8-1.6,1.8-1.6s.1,1.5.6,2.3c.5.9,1.6,1.6,1.6,1.6Z" fill="#3b2b5b"/></g><g><g><path d="M543.9,76.7c.2-.8.5-1.8.7-2.9-.5-.2-1.2-.4-2.3-.6-.6,1.4-.9,2.3-1,2.6l-.8-.2c.1-.2.3-.9.7-2c.5-1.2,1-2.3,1.4-3.4.6-1.4,1.2-2.5,1.6-3.3.4-.7.6-1.1.9-1.3.2-.2.5-.3.7-.2.1,0,.1,0,.2.1s.1.1.2.2c.3.5.3,2.2-.1,5-.4,2.5-.8,4.6-1.3,6.3l-.9-.3Zm-1.3-4.2c1,.3,1.7.5,2.1.6.6-3.2.9-5.4.7-6.6-.3.4-.7,1.3-1.3,2.5-.4,1-1,2.1-1.5,3.5Z" fill="#3b2b5b"/></g></g><g><path d="M577.4,160.2c0,0,1.4-.1,2.2-.6c1-.6,1.7-1.6,1.7-1.6s.1,1.6.6,2.4s1.6,1.5,1.6,1.5-1.2,0-2.1.6c-.5.3-1.8,1.6-1.8,1.6s-.1-1.5-.6-2.3-1.6-1.6-1.6-1.6Z" fill="#3b2b5b"/></g><g><g><path d="M577.8,165.5c-.2.8-.5,1.8-.7,2.9.5.2,1.2.4,2.3.6.6-1.4.9-2.3,1-2.6l.8.2c-.1.2-.3.9-.7,2-.5,1.2-1,2.3-1.4,3.4-.6,1.4-1.2,2.5-1.6,3.3-.4.7-.6,1.1-.9,1.3-.2.2-.5.3-.7.2-.1,0-.1,0-.2-.1s-.1-.1-.2-.2c-.3-.5-.3-2.2.1-5c.4-2.5.8-4.6,1.3-6.3l.9.3Zm1.3,4.3c-1-.3-1.7-.5-2.1-.6-.6,3.2-.9,5.4-.7,6.6.3-.4.7-1.3,1.3-2.5.4-1,.9-2.2,1.5-3.5Z" fill="#3b2b5b"/></g></g></g><g><g><path d="M570.8,201.2l-55.5-35.3c-2.1-1.3-2.7-4.1-1.4-6.2l53-83.3c1.3-2.1,4.1-2.7,6.2-1.4l55.5,35.3c2.1,1.3,2.7,4.1,1.4,6.2l-53,83.3c-1.3,2.1-4.1,2.7-6.2,1.4Z" fill="#f9f9f9"/></g><g><path d="M584.3,100.1c-1.4-2.9-4.8-2.1-5.6-1.8-.1-.8-.8-4.3-4-4.3-3.6,0-3.5,5.7-2.7,9.7.4,2.5-.2,5.5-.2,5.5s1.7-1.4,4.9-2.5c3.8-1.3,9.1-3.3,7.6-6.6Z" fill="#ff5e4d"/></g><g><path d="M567.1,92.6c-.6-1.3-2.1-.9-2.4-.8c0-.3-.3-1.9-1.8-1.9-1.6,0-1.5,2.5-1.2,4.2.2,1.1-.1,2.4-.1,2.4s.7-.6,2.1-1.1c1.8-.5,4.1-1.4,3.4-2.8Z" fill="#ff5e4d"/></g><g><path d="M576.5,185c.6,1.3,2.1.9,2.4.8c0,.3.3,1.9,1.8,1.9c1.6,0,1.5-2.5,1.2-4.2-.2-1.1.1-2.4.1-2.4s-.7.6-2.1,1.1c-1.8.5-4.1,1.3-3.4,2.8Z" fill="#ff5e4d"/></g><g><path d="M612.8,118.2c-1.4-2.9-4.8-2.1-5.6-1.8-.1-.8-.8-4.3-4-4.3-3.6,0-3.5,5.7-2.7,9.7.4,2.5-.2,5.5-.2,5.5s1.7-1.4,4.9-2.5c3.8-1.3,9.1-3.3,7.6-6.6Z" fill="#ff5e4d"/></g><g><path d="M560.3,179.4c1.4,2.9,4.8,2.1,5.6,1.8.1.8.8,4.3,4,4.3c3.6,0,3.5-5.7,2.7-9.7-.4-2.5.2-5.5.2-5.5s-1.7,1.4-4.9,2.5c-3.9,1.3-9.2,3.3-7.6,6.6Z" fill="#ff5e4d"/></g><g><path d="M531.7,161.3c1.4,2.9,4.8,2.1,5.6,1.8.1.8.8,4.3,4,4.3c3.6,0,3.5-5.7,2.7-9.7-.4-2.5.2-5.5.2-5.5s-1.7,1.4-4.9,2.5c-3.8,1.3-9.1,3.3-7.6,6.6Z" fill="#ff5e4d"/></g><g><path d="M580.7,135.2c-1.4-2.9-4.8-2.1-5.6-1.8-.1-.8-.8-4.3-4-4.3-3.6,0-3.5,5.7-2.7,9.7.4,2.5-.2,5.5-.2,5.5s1.7-1.4,4.9-2.5c3.8-1.2,9.1-3.3,7.6-6.6Z" fill="#ff5e4d"/></g><g><g><path d="M565.6,87.4h.8c0,.1,0,.2.1.3c0,.1.1.2.1.3.1.2.2.4.4.4.3.1.6-.1,1-.4s.8-.8,1.1-1.3c.3-.6.5-1.1.5-1.5c0-.2,0-.3,0-.5c0-.1,0-.1,0-.2v-.1-.1-.1-.1c0-.1,0-.2,0-.2c0-.2.1-.3.3-.4s.4-.1.6-.2c.6-.2,1.1-.5,1.3-.7.4-.4.6-.8.7-1.1c0-.1,0-.2,0-.4c0,0,0-.1,0-.1s0-.1,0-.1c0-.1-.1-.2-.2-.2-.2-.1-.4,0-.6.1-.3.1-.5.3-.7.5l-.6-.5c.2-.3.6-.6.9-.7.4-.2.8-.3,1.2-.1.4.1.6.4.7.8c0,.1.1.2.1.4s0,.3,0,.5c-.1.5-.4,1-.8,1.5-.2.2-.4.4-.7.6-.2.1-.5.2-.8.3l-.2.1-.2.1v0v0v.1.1c0,.1,0,.2,0,.2c0,.2,0,.4,0,.6c0,.6-.2,1.2-.6,1.8s-.8,1.2-1.3,1.5c-.6.4-1.1.6-1.6.5-.1,0-.2-.1-.4-.2-.7-.3-1-.8-1.1-1.5Z" fill="#ff5e4d"/></g></g><g><g><path d="M579,189.2h-.8c0-.1,0-.2-.1-.3c0-.1-.1-.2-.1-.3-.1-.2-.2-.4-.4-.4-.3-.1-.6.1-1,.4s-.8.8-1.1,1.3c-.3.6-.5,1.1-.5,1.5c0,.2,0,.3,0,.5c0,.1,0,.1,0,.2v.1.1.1.1c0,.1,0,.2,0,.2c0,.2-.1.3-.3.4s-.4.1-.6.2c-.6.2-1.1.5-1.3.7-.4.4-.6.8-.7,1.1c0,.1,0,.2,0,.4c0,0,0,.1,0,.1s0,.1,0,.1c0,.1.1.2.2.2.2.1.4,0,.6-.1.3-.1.5-.3.7-.5l.6.5c-.2.3-.6.6-.9.7-.4.2-.8.3-1.2.1-.4-.1-.6-.4-.7-.8c0-.1-.1-.2-.1-.4s0-.3,0-.5c.1-.5.4-1,.8-1.5.2-.2.4-.4.7-.6.2-.1.5-.2.8-.3l.2-.1.2-.1v0v0-.1-.1c0-.1,0-.2,0-.2c0-.2,0-.4,0-.6c0-.6.2-1.2.6-1.8s.8-1.2,1.3-1.5c.6-.4,1.1-.6,1.6-.5.1,0,.2.1.4.2.7.2,1,.7,1.1,1.5Z" fill="#ff5e4d"/></g></g></g></g></g></g></g><g id="e5G46sFgipO234_ts" transform="translate(370.100037,144.099991) scale(-0.02711,-0.02711)"><path id="e5G46sFgipO234" d="M374.1,148l9.9-3.1c.7-.2.7-1.4,0-1.6l-9.9-3.1c-.2-.1-.4-.3-.5-.6l-2.8-11.2c-.2-.8-1.2-.8-1.4,0l-2.8,11.2c-.1.3-.3.5-.5.6l-9.9,3.1c-.7.2-.7,1.4,0,1.6l9.9,3.1c.2.1.4.3.5.6l2.8,11.2c.2.8,1.2.8,1.4,0l2.8-11.2c.1-.3.3-.5.5-.6Z" transform="translate(-370.100037,-144.099991)" opacity="0" fill="#fff"/></g><g id="e5G46sFgipO235_ts" transform="translate(660.899963,70.400002) scale(1,1)"><path id="e5G46sFgipO235" d="M663.8,73.3L671,71c.5-.2.5-1,0-1.2l-7.2-2.3c-.2-.1-.3-.2-.4-.4l-2-8.1c-.1-.6-.9-.6-1,0l-2,8.1c-.1.2-.2.4-.4.4l-7.2,2.3c-.5.2-.5,1,0,1.2l7.2,2.3c.2.1.3.2.4.4l2,8.1c.1.6.9.6,1,0l2-8.1c.1-.2.3-.4.4-.4Z" transform="translate(-660.899963,-70.400002)" fill="#fff"/></g><g id="e5G46sFgipO236_ts" transform="translate(779.199951,156.399994) scale(-0.02711,-0.02711)"><path id="e5G46sFgipO236" d="M784.3,161.4l12.6-4c.9-.3.9-1.8,0-2l-12.6-4c-.3-.1-.6-.4-.7-.7l-3.5-14.2c-.3-1-1.6-1-1.8,0l-3.5,14.2c-.1.4-.3.6-.7.7l-12.6,4c-.9.3-.9,1.8,0,2l12.6,4c.3.1.6.4.7.7l3.5,14.2c.3,1,1.6,1,1.8,0l3.5-14.2c.1-.4.3-.6.7-.7Z" transform="translate(-779.199951,-156.399994)" opacity="0" fill="#fff"/></g><g id="e5G46sFgipO237_ts" transform="translate(171.149994,60.700005) scale(-0.02711,-0.02711)"><path id="e5G46sFgipO237" d="M173.3,62.7l5.2-1.6c.4-.1.4-.7,0-.8l-5.2-1.6c-.1,0-.2-.2-.3-.3l-1.5-5.9c-.1-.4-.6-.4-.7,0l-1.5,5.9c0,.1-.1.3-.3.3l-5.2,1.6c-.4.1-.4.7,0,.8l5.2,1.6c.1,0,.2.2.3.3l1.5,5.9c.1.4.6.4.7,0L173,63c.1-.2.2-.3.3-.3Z" transform="translate(-171.149994,-60.700005)" opacity="0" fill="#fff"/></g><g id="e5G46sFgipO238_ts" transform="translate(206.349991,107.400002) scale(1,1)"><path id="e5G46sFgipO238" d="M210.4,111.4l10.1-3.2c.7-.2.7-1.4,0-1.6l-10.1-3.2c-.3-.1-.5-.3-.5-.6l-2.8-11.4c-.2-.8-1.3-.8-1.5,0l-2.8,11.4c-.1.3-.3.5-.5.6l-10.1,3.2c-.7.2-.7,1.4,0,1.6l10.1,3.2c.3.1.5.3.5.6l2.8,11.4c.2.8,1.3.8,1.5,0l2.8-11.4c.1-.3.3-.5.5-.6Z" transform="translate(-206.349991,-107.400002)" fill="#fff"/></g></g></svg>