<svg id="eIqpMzOnit61" xmlns="http://www.w3.org/2000/svg" xmlns:xlink="http://www.w3.org/1999/xlink" viewBox="150 0 900 300" shape-rendering="geometricPrecision" text-rendering="geometricPrecision"><style><![CDATA[#eIqpMzOnit62_tr {animation: eIqpMzOnit62_tr__tr 4000ms linear infinite normal forwards}@keyframes eIqpMzOnit62_tr__tr { 0% {transform: translate(545.5px,257.6px) rotate(13.062069deg);animation-timing-function: cubic-bezier(0.42,0,0.58,1)} 15% {transform: translate(545.5px,257.6px) rotate(0deg);animation-timing-function: cubic-bezier(0.47,0,0.745,0.715)} 22.5% {transform: translate(545.5px,257.6px) rotate(13.062069deg);animation-timing-function: cubic-bezier(0.42,0,0.58,1)} 30% {transform: translate(545.5px,257.6px) rotate(10.087752deg);animation-timing-function: cubic-bezier(0.47,0,0.565,0.235)} 37.5% {transform: translate(545.5px,257.6px) rotate(13.062069deg)} 100% {transform: translate(545.5px,257.6px) rotate(13.062069deg)}} #eIqpMzOnit676_ts {animation: eIqpMzOnit676_ts__ts 4000ms linear infinite normal forwards}@keyframes eIqpMzOnit676_ts__ts { 0% {transform: translate(393.899994px,90.849998px) scale(0.684756,0.684756)} 22.5% {transform: translate(393.899994px,90.849998px) scale(0.684756,0.684756);animation-timing-function: cubic-bezier(0.42,0,0.58,1)} 37.5% {transform: translate(393.899994px,90.849998px) scale(0.008723,0.008723);animation-timing-function: cubic-bezier(0.42,0,0.58,1)} 52.5% {transform: translate(393.899994px,90.849998px) scale(0.684756,0.684756);animation-timing-function: cubic-bezier(0.42,0,0.58,1)} 70% {transform: translate(393.899994px,90.849998px) scale(0.008723,0.008723);animation-timing-function: cubic-bezier(0.42,0,0.58,1)} 90% {transform: translate(393.899994px,90.849998px) scale(0.684756,0.684756)} 100% {transform: translate(393.899994px,90.849998px) scale(0.684756,0.684756)}} #eIqpMzOnit676 {animation: eIqpMzOnit676_c_o 4000ms linear infinite normal forwards}@keyframes eIqpMzOnit676_c_o { 0% {opacity: 1} 20% {opacity: 1;animation-timing-function: cubic-bezier(0.42,0,0.58,1)} 35% {opacity: 0;animation-timing-function: cubic-bezier(0.42,0,0.58,1)} 50% {opacity: 1;animation-timing-function: cubic-bezier(0.42,0,0.58,1)} 70% {opacity: 0;animation-timing-function: cubic-bezier(0.42,0,0.58,1)} 90% {opacity: 1} 100% {opacity: 1}} #eIqpMzOnit677_ts {animation: eIqpMzOnit677_ts__ts 4000ms linear infinite normal forwards}@keyframes eIqpMzOnit677_ts__ts { 0% {transform: translate(901.900024px,187.150009px) scale(0.684756,0.684756)} 25% {transform: translate(901.900024px,187.150009px) scale(0.684756,0.684756);animation-timing-function: cubic-bezier(0.42,0,0.58,1)} 40% {transform: translate(901.900024px,187.150009px) scale(0.008723,0.008723);animation-timing-function: cubic-bezier(0.42,0,0.58,1)} 55% {transform: translate(901.900024px,187.150009px) scale(0.684756,0.684756);animation-timing-function: cubic-bezier(0.42,0,0.58,1)} 70% {transform: translate(901.900024px,187.150009px) scale(0.008723,0.008723);animation-timing-function: cubic-bezier(0.42,0,0.58,1)} 90% {transform: translate(901.900024px,187.150009px) scale(0.684756,0.684756)} 100% {transform: translate(901.900024px,187.150009px) scale(0.684756,0.684756)}} #eIqpMzOnit677 {animation: eIqpMzOnit677_c_o 4000ms linear infinite normal forwards}@keyframes eIqpMzOnit677_c_o { 0% {opacity: 1} 22.5% {opacity: 1;animation-timing-function: cubic-bezier(0.42,0,0.58,1)} 37.5% {opacity: 0;animation-timing-function: cubic-bezier(0.42,0,0.58,1)} 52.5% {opacity: 1;animation-timing-function: cubic-bezier(0.42,0,0.58,1)} 67.5% {opacity: 0;animation-timing-function: cubic-bezier(0.42,0,0.58,1)} 87.5% {opacity: 1} 100% {opacity: 1}} #eIqpMzOnit678_ts {animation: eIqpMzOnit678_ts__ts 4000ms linear infinite normal forwards}@keyframes eIqpMzOnit678_ts__ts { 0% {transform: translate(98.550011px,143.395706px) scale(0.684756,0.684756)} 10% {transform: translate(98.550011px,143.395706px) scale(0.684756,0.684756);animation-timing-function: cubic-bezier(0.42,0,0.58,1)} 25% {transform: translate(98.550011px,143.395706px) scale(0.008723,0.008723);animation-timing-function: cubic-bezier(0.42,0,0.58,1)} 40% {transform: translate(98.550011px,143.395706px) scale(0.684756,0.684756);animation-timing-function: cubic-bezier(0.42,0,0.58,1)} 55% {transform: translate(98.550011px,143.395706px) scale(0.008723,0.008723);animation-timing-function: cubic-bezier(0.42,0,0.58,1)} 75% {transform: translate(98.550011px,143.395706px) scale(0.684756,0.684756)} 100% {transform: translate(98.550011px,143.395706px) scale(0.684756,0.684756)}} #eIqpMzOnit678 {animation: eIqpMzOnit678_c_o 4000ms linear infinite normal forwards}@keyframes eIqpMzOnit678_c_o { 0% {opacity: 1} 7.5% {opacity: 1;animation-timing-function: cubic-bezier(0.42,0,0.58,1)} 22.5% {opacity: 0;animation-timing-function: cubic-bezier(0.42,0,0.58,1)} 37.5% {opacity: 1;animation-timing-function: cubic-bezier(0.42,0,0.58,1)} 52.5% {opacity: 0;animation-timing-function: cubic-bezier(0.42,0,0.58,1)} 72.5% {opacity: 1} 100% {opacity: 1}} #eIqpMzOnit679_ts {animation: eIqpMzOnit679_ts__ts 4000ms linear infinite normal forwards}@keyframes eIqpMzOnit679_ts__ts { 0% {transform: translate(805.900085px,125.799992px) scale(0.684756,0.684756)} 2.5% {transform: translate(805.900085px,125.799992px) scale(0.684756,0.684756);animation-timing-function: cubic-bezier(0.42,0,0.58,1)} 17.5% {transform: translate(805.900085px,125.799992px) scale(0.008723,0.008723);animation-timing-function: cubic-bezier(0.42,0,0.58,1)} 32.5% {transform: translate(805.900085px,125.799992px) scale(0.684756,0.684756);animation-timing-function: cubic-bezier(0.42,0,0.58,1)} 47.5% {transform: translate(805.900085px,125.799992px) scale(0.008723,0.008723);animation-timing-function: cubic-bezier(0.42,0,0.58,1)} 67.5% {transform: translate(805.900085px,125.799992px) scale(0.684756,0.684756)} 100% {transform: translate(805.900085px,125.799992px) scale(0.684756,0.684756)}} #eIqpMzOnit679 {animation: eIqpMzOnit679_c_o 4000ms linear infinite normal forwards}@keyframes eIqpMzOnit679_c_o { 0% {opacity: 1;animation-timing-function: cubic-bezier(0.42,0,0.58,1)} 15% {opacity: 0;animation-timing-function: cubic-bezier(0.42,0,0.58,1)} 30% {opacity: 1;animation-timing-function: cubic-bezier(0.42,0,0.58,1)} 45% {opacity: 0;animation-timing-function: cubic-bezier(0.42,0,0.58,1)} 65% {opacity: 1} 100% {opacity: 1}} #eIqpMzOnit680_ts {animation: eIqpMzOnit680_ts__ts 4000ms linear infinite normal forwards}@keyframes eIqpMzOnit680_ts__ts { 0% {transform: translate(276.130471px,183.16577px) scale(0.684756,0.684756)} 12.5% {transform: translate(276.130471px,183.16577px) scale(0.684756,0.684756);animation-timing-function: cubic-bezier(0.42,0,0.58,1)} 27.5% {transform: translate(276.130471px,183.16577px) scale(0.008723,0.008723);animation-timing-function: cubic-bezier(0.42,0,0.58,1)} 42.5% {transform: translate(276.130471px,183.16577px) scale(0.684756,0.684756);animation-timing-function: cubic-bezier(0.42,0,0.58,1)} 57.5% {transform: translate(276.130471px,183.16577px) scale(0.008723,0.008723);animation-timing-function: cubic-bezier(0.42,0,0.58,1)} 77.5% {transform: translate(276.130471px,183.16577px) scale(0.684756,0.684756)} 100% {transform: translate(276.130471px,183.16577px) scale(0.684756,0.684756)}} #eIqpMzOnit680 {animation: eIqpMzOnit680_c_o 4000ms linear infinite normal forwards}@keyframes eIqpMzOnit680_c_o { 0% {opacity: 1} 10% {opacity: 1;animation-timing-function: cubic-bezier(0.42,0,0.58,1)} 25% {opacity: 0;animation-timing-function: cubic-bezier(0.42,0,0.58,1)} 40% {opacity: 1;animation-timing-function: cubic-bezier(0.42,0,0.58,1)} 55% {opacity: 0;animation-timing-function: cubic-bezier(0.42,0,0.58,1)} 75% {opacity: 1} 100% {opacity: 1}} #eIqpMzOnit681_ts {animation: eIqpMzOnit681_ts__ts 4000ms linear infinite normal forwards}@keyframes eIqpMzOnit681_ts__ts { 0% {transform: translate(542.150024px,191.349998px) scale(0.015669,0.015669)} 10% {transform: translate(542.150024px,191.349998px) scale(0.015669,0.015669)} 20% {transform: translate(542.150024px,191.349998px) scale(1,1)} 25% {transform: translate(542.150024px,191.349998px) scale(0.015669,0.015669)} 100% {transform: translate(542.150024px,191.349998px) scale(0.015669,0.015669)}} #eIqpMzOnit681 {animation: eIqpMzOnit681_c_o 4000ms linear infinite normal forwards}@keyframes eIqpMzOnit681_c_o { 0% {opacity: 0} 7.5% {opacity: 0} 15% {opacity: 1} 22.5% {opacity: 0} 100% {opacity: 0}}]]></style><g id="eIqpMzOnit62_tr" transform="translate(545.5,257.6) rotate(13.062069)"><g id="eIqpMzOnit62" transform="translate(-472.499987,-217.599999)"><g id="eIqpMzOnit63"><path id="eIqpMzOnit64" d="M487.7,197.4C481.3,198.9,477.3,205.3,478.8,211.8L478.8,211.8L480.2,217.6L497.7,213.5L496.3,207.7L493.6,196.1L487.7,197.4Z" fill="rgb(255,184,16)" stroke="none" stroke-width="1"/></g><g id="eIqpMzOnit65"><path id="eIqpMzOnit66" d="M534.2,186.5L528.4,187.9L531.1,199.5L532.5,205.3L550,201.2L548.6,195.4L548.6,195.4C547.1,189,540.7,185,534.2,186.5Z" fill="rgb(226,148,16)" stroke="none" stroke-width="1"/></g><g id="eIqpMzOnit67"><g id="eIqpMzOnit68"><g id="eIqpMzOnit69"><path id="eIqpMzOnit610" d="M492.2,138L501,175.8C503.2,185.4,497.3,195.1,487.6,197.3L487.6,197.3L491.7,214.8L515,209.4L498,136.7L492.2,138Z" fill="rgb(255,184,16)" stroke="none" stroke-width="1"/></g></g></g><g id="eIqpMzOnit611"><g id="eIqpMzOnit612"><path id="eIqpMzOnit613" d="M512.7,173.1L503.9,135.3L498.1,136.7L509.6,186.2C511.1,192.6,507.1,199.1,500.7,200.6L503.4,212.2L538.3,204.1L534.2,186.6C524.6,188.8,514.9,182.8,512.7,173.1Z" fill="rgb(226,148,16)" stroke="none" stroke-width="1"/></g></g><g id="eIqpMzOnit614"><g id="eIqpMzOnit615"><g id="eIqpMzOnit616"><path id="eIqpMzOnit617" d="M503.4,212.1L471.4,219.6L471.4,219.6C470.7,216.4,472.6,213.2,475.9,212.4L502.1,206.3L503.4,212.1Z" fill="rgb(255,184,16)" stroke="none" stroke-width="1"/></g></g></g><g id="eIqpMzOnit618"><g id="eIqpMzOnit619"><path id="eIqpMzOnit620" d="M492.2,138L494.5,148.1C496.4,148.7,498.6,148.8,500.7,148.3L498,136.7L492.2,138Z" fill="rgb(226,148,16)" stroke="none" stroke-width="1"/></g></g><g id="eIqpMzOnit621"><g id="eIqpMzOnit622"><g id="eIqpMzOnit623"><path id="eIqpMzOnit624" d="M499.4,142.5L499.4,142.5C493,144,486.5,140,485,133.6L483.6,127.8L506.9,122.4L508.3,128.2C509.8,134.6,505.8,141,499.4,142.5Z" fill="rgb(183,121,0)" stroke="none" stroke-width="1"/></g></g></g><g id="eIqpMzOnit625"><g id="eIqpMzOnit626"><g id="eIqpMzOnit627"><path id="eIqpMzOnit628" d="M499.4,142.5L499.4,142.5C493,144,486.5,140,485,133.6L483.6,127.8L506.9,122.4L508.3,128.2C509.8,134.6,505.8,141,499.4,142.5Z" fill="rgb(183,121,0)" stroke="none" stroke-width="1"/></g></g></g><g id="eIqpMzOnit629"><g id="eIqpMzOnit630"><g id="eIqpMzOnit631"><path id="eIqpMzOnit632" d="M457.1,109.4L442.3,112.8C427.4,116.3,412.2,109.1,405.4,95.4L394.9,74.2C393.2,70.7,393,66.6,394.3,63C396,58.6,399.7,55.3,404.3,54.2L413.1,52.2C414.7,51.8,416.3,52.8,416.7,54.4C417.4,57.6,420.7,59.6,423.9,58.9L426.8,58.2C428.4,57.8,430,58.8,430.4,60.4C430.8,62,429.8,63.6,428.2,64L425.3,64.7C419.9,66,414.5,63.3,412,58.6L405.8,60C403.1,60.6,401,62.5,400,65.1C399.2,67.2,399.3,69.6,400.3,71.6L410.8,92.8C416.4,104,428.8,109.9,441,107L455.8,103.6C457.4,103.2,459,104.2,459.4,105.8C459.7,107.4,458.7,109,457.1,109.4Z" fill="rgb(255,184,16)" stroke="none" stroke-width="1"/></g></g></g><g id="eIqpMzOnit633"><g id="eIqpMzOnit634"><g id="eIqpMzOnit635"><path id="eIqpMzOnit636" d="M498.1,136.7L498.1,136.7C474.9,142.1,451.3,129.3,443.3,106.8L422,47.1L526.7,22.7L534,85.7C536.7,109.3,521.3,131.3,498.1,136.7Z" fill="rgb(255,184,16)" stroke="none" stroke-width="1"/></g></g></g><g id="eIqpMzOnit637"><g id="eIqpMzOnit638"><g id="eIqpMzOnit639"><path id="eIqpMzOnit640" d="M537.5,90.7L522.7,94.1C521.1,94.5,519.5,93.5,519.1,91.9C518.7,90.3,519.7,88.7,521.3,88.3L536.1,84.9C548.3,82.1,556.9,71.3,556.9,58.8L556.9,35.1C556.9,32.9,556,30.7,554.3,29.2C552.3,27.3,549.5,26.6,546.9,27.2L540.7,28.6C540.6,33.9,536.9,38.7,531.5,40L528.6,40.7C527,41.1,525.4,40.1,525,38.5C524.6,36.9,525.6,35.3,527.2,34.9L530.1,34.2C533.3,33.5,535.3,30.2,534.6,27C534.2,25.4,535.2,23.8,536.8,23.4L545.6,21.4C550.2,20.3,555,21.6,558.5,24.8C561.3,27.5,563,31.2,563,35.1L563,58.8C562.8,74.1,552.4,87.2,537.5,90.7Z" fill="rgb(226,148,16)" stroke="none" stroke-width="1"/></g></g></g><g id="eIqpMzOnit641"><g id="eIqpMzOnit642"><g id="eIqpMzOnit643"><g id="eIqpMzOnit644"><path id="eIqpMzOnit645" d="M536.1,84.9L521.3,88.3C519.7,88.7,518.7,90.3,519.1,91.9C519.5,93.5,521.1,94.5,522.7,94.1L537.5,90.7C537.6,90.7,537.8,90.6,537.9,90.6C538.1,88.5,538.2,86.4,538.2,84.3C537.5,84.5,536.8,84.7,536.1,84.9Z" fill="rgb(183,121,0)" stroke="none" stroke-width="1"/></g></g></g><g id="eIqpMzOnit646"><g id="eIqpMzOnit647"><g id="eIqpMzOnit648"><path id="eIqpMzOnit649" d="M528.6,40.6L531.5,39.9C532.1,39.8,532.7,39.6,533.2,39.4L532.5,33C531.8,33.5,531,33.9,530.2,34.1L527.3,34.8C525.7,35.2,524.7,36.8,525.1,38.4C525.4,40,527,41,528.6,40.6Z" fill="rgb(183,121,0)" stroke="none" stroke-width="1"/></g></g></g></g><g id="eIqpMzOnit650"><g id="eIqpMzOnit651"><path id="eIqpMzOnit652" d="M511.5,26.2L518.1,83.2C520.8,106.9,505.4,128.8,482.2,134.2L482.2,134.2C479,135,475.7,135.3,472.5,135.4C480.5,138.1,489.3,138.7,498.1,136.6L498.1,136.6C521.3,131.2,536.8,109.2,534,85.6L526.7,22.6L511.5,26.2Z" fill="rgb(226,148,16)" stroke="none" stroke-width="1"/></g></g><g id="eIqpMzOnit653"><g id="eIqpMzOnit654"><circle id="eIqpMzOnit655" r="3" transform="matrix(1 0 0 1 489 203.2)" fill="rgb(255,228,113)" stroke="none" stroke-width="1"/></g></g><g id="eIqpMzOnit656"><g id="eIqpMzOnit657"><path id="eIqpMzOnit658" d="M551.5,194.8L496.2,207.7C497.8,207.3,499.4,208.3,499.8,209.9C500.2,211.5,499.2,213.1,497.6,213.5L558.7,199.2L558.7,199.2C557.9,196,554.7,194,551.5,194.8Z" fill="rgb(226,148,16)" stroke="none" stroke-width="1"/></g></g><g id="eIqpMzOnit659"><path id="eIqpMzOnit660" d="M483,61.9L490.2,70.4L501.6,69.4C503.7,69.2,505.1,71.5,504,73.2L497.8,82.6L502.2,92.8C503,94.7,501.2,96.7,499.1,96.2L488.1,93.5L479.4,100.8C477.8,102.2,475.3,101.2,475.1,99.1L474.5,88L464.8,82.3C463,81.2,463.2,78.6,465.2,77.8L475.9,73.7L478.6,62.9C479,60.9,481.6,60.3,483,61.9Z" fill="rgb(226,148,16)" stroke="none" stroke-width="1"/></g><g id="eIqpMzOnit661"><circle id="eIqpMzOnit662" r="3" transform="matrix(1 0 0 1 405.8 57)" fill="rgb(255,228,113)" stroke="none" stroke-width="1"/></g><g id="eIqpMzOnit663"><path id="eIqpMzOnit664" d="M525.3,200.9L496.2,207.7L494.8,201.9L523.9,195.1C525.5,194.7,527.1,195.7,527.5,197.3L527.5,197.3C527.9,198.9,526.9,200.5,525.3,200.9Z" fill="rgb(255,184,16)" stroke="none" stroke-width="1"/></g><g id="eIqpMzOnit665"><path id="eIqpMzOnit666" d="M503.3,172.3L503.3,172.3C501.7,172.7,500.1,171.7,499.7,170.1L497.7,161.4C497.3,159.8,498.3,158.2,499.9,157.8L499.9,157.8C501.5,157.4,503.1,158.4,503.5,160L505.5,168.7C505.9,170.3,504.9,171.9,503.3,172.3Z" fill="rgb(255,228,113)" stroke="none" stroke-width="1"/></g><g id="eIqpMzOnit667"><circle id="eIqpMzOnit668" r="6" transform="matrix(1 0 0 1 439.9 58.2)" fill="rgb(255,228,113)" stroke="none" stroke-width="1"/></g><g id="eIqpMzOnit669"><path id="eIqpMzOnit670" d="M453.1,98.2C450.5,98.8,447.9,97.4,447,94.8L440,75C439,72.3,440.5,69.3,443.2,68.3C445.9,67.3,448.9,68.8,449.9,71.5L456.9,91.3C457.9,94,456.4,97,453.7,98C453.5,98.1,453.3,98.1,453.1,98.2Z" fill="rgb(255,228,113)" stroke="none" stroke-width="1"/></g><g id="eIqpMzOnit671"><path id="eIqpMzOnit672" d="M474.5,88.1L464.8,82.4C464,81.9,463.5,81,463.6,80.1C463.7,79.3,464.1,78.4,465.2,77.9L475.9,73.8L478.6,63C478.9,61.9,479.8,61.3,480.5,61.1C481.3,60.9,482.2,60.9,483.1,61.9C481.9,62.3,481.7,62.8,481.4,63.9L478.6,75.3C478.5,75.8,478.1,76.2,477.7,76.3L467.2,80.4L473,83.8C474.4,84.6,475.1,86.4,474.5,88.1L474.5,88.1Z" fill="rgb(183,121,0)" stroke="none" stroke-width="1"/></g><g id="eIqpMzOnit673"><path id="eIqpMzOnit674" d="M501.2,72.4L493.4,73.1C491.8,73.2,490.3,72,490.2,70.4L490.2,70.4L501.6,69.4C502.8,69.3,503.6,70,504,70.6C504.5,71.4,504.5,72.4,503.9,73.2C503.6,72.5,503,72.3,501.2,72.4ZM501.8,72.4L501.8,72.4L501.8,72.4Z" fill="rgb(183,121,0)" stroke="none" stroke-width="1"/></g></g></g><g id="eIqpMzOnit675" transform="matrix(1 0 0 1 73 40)"><g id="eIqpMzOnit676_ts" transform="translate(393.899994,90.849998) scale(0.684756,0.684756)"><path id="eIqpMzOnit676" d="M397.8,94.6L407.3,91.6C408,91.4,408,90.3,407.3,90.1L397.8,87.1C397.6,87,397.4,86.8,397.3,86.5L394.6,75.8C394.4,75,393.4,75,393.2,75.8L390.5,86.5C390.4,86.8,390.2,87,390,87.1L380.5,90.1C379.8,90.3,379.8,91.4,380.5,91.6L390,94.6C390.2,94.7,390.4,94.9,390.5,95.2L393.2,105.9C393.4,106.7,394.4,106.7,394.6,105.9L397.3,95.2C397.4,94.9,397.6,94.6,397.8,94.6Z" transform="translate(-393.899994,-90.849998)" fill="rgb(255,255,255)" stroke="none" stroke-width="1"/></g><g id="eIqpMzOnit677_ts" transform="translate(901.900024,187.150009) scale(0.684756,0.684756)"><path id="eIqpMzOnit677" d="M909.2,194.3L927.3,188.6C928.6,188.2,928.6,186.1,927.3,185.7L909.2,180C908.7,179.9,908.4,179.5,908.3,178.9L903.2,158.6C902.8,157.1,901,157.1,900.6,158.6L895.5,178.9C895.4,179.4,895,179.8,894.6,180L876.5,185.7C875.2,186.1,875.2,188.2,876.5,188.6L894.6,194.3C895.1,194.4,895.4,194.8,895.5,195.4L900.6,215.7C901,217.2,902.8,217.2,903.2,215.7L908.3,195.4C908.4,194.9,908.8,194.5,909.2,194.3Z" transform="translate(-901.900024,-187.150009)" fill="rgb(255,255,255)" stroke="none" stroke-width="1"/></g><g id="eIqpMzOnit678_ts" transform="translate(98.550011,143.395706) scale(0.684756,0.684756)"><path id="eIqpMzOnit678" d="M107.6,153L130.1,145.9C131.7,145.4,131.7,142.8,130.1,142.3L107.6,135.2C107,135,106.6,134.5,106.4,133.9L100.1,108.6C99.6,106.8,97.3,106.8,96.9,108.6L90.6,133.9C90.4,134.5,90,135,89.4,135.2L67,142.3C65.4,142.8,65.4,145.4,67,145.9L89.5,153C90.1,153.2,90.5,153.7,90.7,154.3L97,179.6C97.5,181.4,99.8,181.4,100.2,179.6L106.5,154.3C106.6,153.7,107.1,153.2,107.6,153Z" transform="translate(-98.550011,-144.099998)" fill="rgb(255,255,255)" stroke="none" stroke-width="1"/></g><g id="eIqpMzOnit679_ts" transform="translate(805.900085,125.799992) scale(0.684756,0.684756)"><path id="eIqpMzOnit679" d="M810.4,130.2L821.6,126.7C822.4,126.4,822.4,125.1,821.6,124.9L810.4,121.4C810.1,121.3,809.9,121.1,809.8,120.7L806.7,108.1C806.5,107.2,805.3,107.2,805.1,108.1L802,120.7C801.9,121,801.7,121.3,801.4,121.4L790.2,124.9C789.4,125.2,789.4,126.5,790.2,126.7L801.4,130.2C801.7,130.3,801.9,130.5,802,130.9L805.1,143.5C805.3,144.4,806.5,144.4,806.7,143.5L809.8,130.9C809.9,130.5,810.1,130.2,810.4,130.2Z" transform="translate(-805.900085,-125.799992)" fill="rgb(255,255,255)" stroke="none" stroke-width="1"/></g><g id="eIqpMzOnit680_ts" transform="translate(276.130471,183.16577) scale(0.684756,0.684756)"><path id="eIqpMzOnit680" d="M547.9,197.1L562.4,192.5C563.5,192.2,563.5,190.5,562.4,190.2L547.9,185.6C547.5,185.5,547.3,185.2,547.2,184.8L543.2,168.5C542.9,167.3,541.4,167.3,541.1,168.5L537.1,184.8C537,185.2,536.7,185.5,536.4,185.6L521.9,190.2C520.8,190.5,520.8,192.2,521.9,192.5L536.4,197.1C536.8,197.2,537,197.5,537.1,197.9L541.1,214.2C541.4,215.4,542.9,215.4,543.2,214.2L547.2,197.9C547.3,197.5,547.6,197.2,547.9,197.1Z" transform="translate(-542.150024,-191.349998)" fill="rgb(255,255,255)" stroke="none" stroke-width="1"/></g><g id="eIqpMzOnit681_ts" transform="translate(542.150024,191.349998) scale(0.015669,0.015669)"><path id="eIqpMzOnit681" d="M547.9,197.1L562.4,192.5C563.5,192.2,563.5,190.5,562.4,190.2L547.9,185.6C547.5,185.5,547.3,185.2,547.2,184.8L543.2,168.5C542.9,167.3,541.4,167.3,541.1,168.5L537.1,184.8C537,185.2,536.7,185.5,536.4,185.6L521.9,190.2C520.8,190.5,520.8,192.2,521.9,192.5L536.4,197.1C536.8,197.2,537,197.5,537.1,197.9L541.1,214.2C541.4,215.4,542.9,215.4,543.2,214.2L547.2,197.9C547.3,197.5,547.6,197.2,547.9,197.1Z" transform="translate(-542.150024,-191.349998)" opacity="0" fill="rgb(255,255,255)" stroke="none" stroke-width="1"/></g></g></svg>